<svg width="44" height="44" viewBox="0 0 44 44" fill="none" xmlns="http://www.w3.org/2000/svg">
<rect x="2" y="2" width="40" height="40" rx="20" fill="white"/>
<rect x="2" y="2" width="40" height="40" rx="20" stroke="white" stroke-width="4"/>
<path d="M17.334 20.25C18.3005 20.25 19.084 19.4665 19.084 18.5C19.084 17.5335 18.3005 16.75 17.334 16.75C16.3675 16.75 15.584 17.5335 15.584 18.5C15.584 19.4665 16.3675 20.25 17.334 20.25Z" fill="#3B3839"/>
<path fill-rule="evenodd" clip-rule="evenodd" d="M14.709 11.2084C12.776 11.2084 11.209 12.7754 11.209 14.7084V29.2917C11.209 31.2247 12.776 32.7917 14.709 32.7917H29.2923C31.2253 32.7917 32.7923 31.2247 32.7923 29.2917V14.7084C32.7923 12.7754 31.2253 11.2084 29.2923 11.2084H14.709ZM29.2923 13.5417H14.709C14.0647 13.5417 13.5423 14.064 13.5423 14.7084V23.7712L16.4575 21.9772C16.6516 21.8578 16.8973 21.8623 17.0868 21.9887L20.1982 24.0629L25.1426 20.2173C25.3532 20.0534 25.6482 20.0534 25.8588 20.2172L30.459 23.7952V14.7084C30.459 14.064 29.9366 13.5417 29.2923 13.5417ZM13.5423 29.2917V26.511L16.7255 24.5521L20.3032 26.9372L25.5007 22.8947L30.459 26.7512V29.2917C30.459 29.936 29.9366 30.4584 29.2923 30.4584H14.709C14.0647 30.4584 13.5423 29.936 13.5423 29.2917Z" fill="#3B3839"/>
</svg>
