<svg width="24" height="24" viewBox="0 0 24 24" fill="none" xmlns="http://www.w3.org/2000/svg">
<path d="M8.41308 12.657L12.3631 16.607C12.5407 16.7965 12.6377 17.0476 12.6335 17.3073C12.6293 17.567 12.5242 17.8148 12.3405 17.9984C12.1568 18.182 11.9088 18.2869 11.6492 18.2909C11.3895 18.295 11.1384 18.1978 10.9491 18.02L5.29208 12.364C5.1989 12.2714 5.12495 12.1612 5.07449 12.0399C5.02402 11.9185 4.99805 11.7884 4.99805 11.657C4.99805 11.5256 5.02402 11.3955 5.07449 11.2742C5.12495 11.1528 5.1989 11.0427 5.29208 10.95L10.9491 5.29302C11.0413 5.19751 11.1517 5.12133 11.2737 5.06892C11.3957 5.01651 11.5269 4.98892 11.6597 4.98777C11.7925 4.98662 11.9241 5.01192 12.047 5.0622C12.1699 5.11248 12.2816 5.18673 12.3755 5.28063C12.4694 5.37452 12.5436 5.48617 12.5939 5.60907C12.6442 5.73196 12.6695 5.86364 12.6683 5.99642C12.6672 6.1292 12.6396 6.26042 12.5872 6.38242C12.5348 6.50443 12.4586 6.61477 12.3631 6.70702L8.41308 10.657H17.9991C18.2643 10.657 18.5187 10.7624 18.7062 10.9499C18.8937 11.1374 18.9991 11.3918 18.9991 11.657C18.9991 11.9222 18.8937 12.1766 18.7062 12.3641C18.5187 12.5517 18.2643 12.657 17.9991 12.657H8.41308Z" fill="white"/>
</svg>
