<svg width="24" height="24" viewBox="0 0 24 24" fill="none" xmlns="http://www.w3.org/2000/svg">
<g clip-path="url(#clip0_598_64462)">
<path d="M18.9993 8.71L13.6663 4.562C13.1983 4.19791 12.6223 4.00023 12.0293 4.00023C11.4363 4.00023 10.8603 4.19791 10.3923 4.562L5.0583 8.71C4.73774 8.95928 4.47839 9.27853 4.30005 9.64335C4.12171 10.0082 4.02911 10.4089 4.0293 10.815V18.015C4.0293 18.5454 4.24001 19.0541 4.61508 19.4292C4.99016 19.8043 5.49886 20.015 6.0293 20.015H18.0293C18.5597 20.015 19.0684 19.8043 19.4435 19.4292C19.8186 19.0541 20.0293 18.5454 20.0293 18.015V10.815C20.0293 9.992 19.6493 9.215 18.9993 8.71Z" stroke="#777980" stroke-width="2" stroke-linecap="round" stroke-linejoin="round"/>
<path d="M16 15C13.79 16.333 10.208 16.333 8 15" stroke="#777980" stroke-width="2" stroke-linecap="round" stroke-linejoin="round"/>
</g>
<defs>
<clipPath id="clip0_598_64462">
<rect width="24" height="24" fill="white"/>
</clipPath>
</defs>
</svg>
