<svg width="400" height="48" viewBox="0 0 400 48" fill="none" xmlns="http://www.w3.org/2000/svg">
<rect x="0.5" y="0.5" width="399" height="47" rx="23.5" stroke="#E0E2E7"/>
<path d="M135.306 22.0415H134.5V22H125.5V26H131.152C130.327 28.3285 128.111 30 125.5 30C122.187 30 119.5 27.3135 119.5 24C119.5 20.6865 122.187 18 125.5 18C127.03 18 128.421 18.577 129.481 19.5195L132.309 16.691C130.523 15.0265 128.134 14 125.5 14C119.977 14 115.5 18.4775 115.5 24C115.5 29.5225 119.977 34 125.5 34C131.023 34 135.5 29.5225 135.5 24C135.5 23.3295 135.431 22.675 135.306 22.0415Z" fill="#FFC107"/>
<path d="M116.652 19.3455L119.938 21.755C120.827 19.554 122.98 18 125.499 18C127.029 18 128.42 18.577 129.48 19.5195L132.308 16.691C130.522 15.0265 128.133 14 125.499 14C121.658 14 118.327 16.1685 116.652 19.3455Z" fill="#FF3D00"/>
<path d="M125.5 34C128.083 34 130.43 33.0115 132.205 31.404L129.11 28.785C128.106 29.5455 126.858 30 125.5 30C122.899 30 120.691 28.3415 119.859 26.027L116.598 28.5395C118.253 31.778 121.614 34 125.5 34Z" fill="#4CAF50"/>
<path d="M135.306 22.0415H134.5V22H125.5V26H131.152C130.756 27.1185 130.036 28.083 129.108 28.7855L129.109 28.7845L132.205 31.4035C131.986 31.6025 135.5 29 135.5 24C135.5 23.3295 135.431 22.675 135.306 22.0415Z" fill="#1976D2"/>
<path d="M154.539 26.5469C154.539 26.3281 154.505 26.1328 154.438 25.9609C154.375 25.7839 154.258 25.625 154.086 25.4844C153.919 25.3385 153.682 25.1979 153.375 25.0625C153.073 24.9219 152.682 24.776 152.203 24.625C151.672 24.4583 151.177 24.2708 150.719 24.0625C150.26 23.8542 149.857 23.612 149.508 23.3359C149.164 23.0599 148.896 22.7422 148.703 22.3828C148.51 22.0182 148.414 21.5964 148.414 21.1172C148.414 20.6484 148.513 20.2214 148.711 19.8359C148.914 19.4505 149.201 19.1198 149.57 18.8438C149.94 18.5625 150.375 18.3464 150.875 18.1953C151.38 18.0443 151.938 17.9688 152.547 17.9688C153.391 17.9688 154.12 18.1224 154.734 18.4297C155.354 18.737 155.833 19.1536 156.172 19.6797C156.51 20.2057 156.68 20.7969 156.68 21.4531H154.539C154.539 21.099 154.464 20.7865 154.312 20.5156C154.167 20.2448 153.943 20.0312 153.641 19.875C153.344 19.7188 152.969 19.6406 152.516 19.6406C152.078 19.6406 151.714 19.7057 151.422 19.8359C151.135 19.9661 150.919 20.1432 150.773 20.3672C150.633 20.5911 150.562 20.8411 150.562 21.1172C150.562 21.3255 150.612 21.513 150.711 21.6797C150.81 21.8411 150.958 21.9948 151.156 22.1406C151.354 22.2812 151.599 22.4141 151.891 22.5391C152.188 22.6589 152.531 22.7786 152.922 22.8984C153.547 23.0859 154.094 23.2943 154.562 23.5234C155.036 23.7526 155.43 24.013 155.742 24.3047C156.06 24.5964 156.297 24.9245 156.453 25.2891C156.615 25.6536 156.695 26.0677 156.695 26.5312C156.695 27.0208 156.599 27.4583 156.406 27.8438C156.214 28.2292 155.938 28.5573 155.578 28.8281C155.219 29.099 154.786 29.3047 154.281 29.4453C153.781 29.5859 153.221 29.6562 152.602 29.6562C152.049 29.6562 151.503 29.5833 150.961 29.4375C150.424 29.2865 149.938 29.0625 149.5 28.7656C149.062 28.4635 148.714 28.0833 148.453 27.625C148.193 27.1615 148.062 26.6198 148.062 26H150.219C150.219 26.3594 150.276 26.6667 150.391 26.9219C150.51 27.1719 150.677 27.3776 150.891 27.5391C151.109 27.6953 151.365 27.8099 151.656 27.8828C151.948 27.9557 152.263 27.9922 152.602 27.9922C153.039 27.9922 153.398 27.9323 153.68 27.8125C153.966 27.6875 154.18 27.5156 154.32 27.2969C154.466 27.0781 154.539 26.8281 154.539 26.5469ZM160.383 21.0469V29.5H158.312V21.0469H160.383ZM158.172 18.8359C158.172 18.5286 158.276 18.2734 158.484 18.0703C158.698 17.8672 158.984 17.7656 159.344 17.7656C159.703 17.7656 159.987 17.8672 160.195 18.0703C160.409 18.2734 160.516 18.5286 160.516 18.8359C160.516 19.138 160.409 19.3906 160.195 19.5938C159.987 19.7969 159.703 19.8984 159.344 19.8984C158.984 19.8984 158.698 19.7969 158.484 19.5938C158.276 19.3906 158.172 19.138 158.172 18.8359ZM167.727 21.0469H169.602V29.2422C169.602 30.0078 169.435 30.6562 169.102 31.1875C168.773 31.724 168.312 32.1302 167.719 32.4062C167.125 32.6875 166.435 32.8281 165.648 32.8281C165.31 32.8281 164.943 32.7812 164.547 32.6875C164.156 32.5938 163.779 32.4453 163.414 32.2422C163.055 32.0443 162.755 31.7865 162.516 31.4688L163.445 30.25C163.727 30.5781 164.044 30.8255 164.398 30.9922C164.753 31.1641 165.135 31.25 165.547 31.25C165.964 31.25 166.318 31.1719 166.609 31.0156C166.906 30.8646 167.133 30.6406 167.289 30.3438C167.451 30.0521 167.531 29.6927 167.531 29.2656V22.9766L167.727 21.0469ZM162.016 25.375V25.2109C162.016 24.5651 162.094 23.9792 162.25 23.4531C162.406 22.9219 162.63 22.4661 162.922 22.0859C163.219 21.7057 163.576 21.4115 163.992 21.2031C164.414 20.9948 164.888 20.8906 165.414 20.8906C165.971 20.8906 166.44 20.9922 166.82 21.1953C167.206 21.3984 167.523 21.6875 167.773 22.0625C168.029 22.4375 168.227 22.8828 168.367 23.3984C168.513 23.9089 168.625 24.4714 168.703 25.0859V25.5312C168.63 26.1302 168.513 26.6797 168.352 27.1797C168.195 27.6797 167.987 28.1172 167.727 28.4922C167.466 28.862 167.143 29.1484 166.758 29.3516C166.372 29.5547 165.919 29.6562 165.398 29.6562C164.878 29.6562 164.409 29.5495 163.992 29.3359C163.576 29.1224 163.219 28.8229 162.922 28.4375C162.63 28.0521 162.406 27.599 162.25 27.0781C162.094 26.5573 162.016 25.9896 162.016 25.375ZM164.078 25.2109V25.375C164.078 25.7396 164.115 26.0807 164.188 26.3984C164.26 26.7161 164.372 26.9974 164.523 27.2422C164.674 27.4818 164.865 27.6693 165.094 27.8047C165.323 27.9401 165.596 28.0078 165.914 28.0078C166.341 28.0078 166.69 27.9193 166.961 27.7422C167.237 27.5599 167.445 27.3125 167.586 27C167.732 26.6823 167.826 26.3255 167.867 25.9297V24.7031C167.841 24.3906 167.784 24.1016 167.695 23.8359C167.612 23.5703 167.495 23.3411 167.344 23.1484C167.193 22.9557 167 22.8047 166.766 22.6953C166.531 22.5859 166.253 22.5312 165.93 22.5312C165.617 22.5312 165.344 22.6016 165.109 22.7422C164.875 22.8776 164.682 23.0677 164.531 23.3125C164.38 23.5573 164.266 23.8411 164.188 24.1641C164.115 24.487 164.078 24.8359 164.078 25.2109ZM173.484 22.8516V29.5H171.422V21.0469H173.359L173.484 22.8516ZM173.156 24.9688H172.547C172.552 24.3542 172.635 23.7969 172.797 23.2969C172.958 22.7969 173.185 22.3672 173.477 22.0078C173.773 21.6484 174.125 21.3724 174.531 21.1797C174.938 20.987 175.391 20.8906 175.891 20.8906C176.297 20.8906 176.664 20.9479 176.992 21.0625C177.32 21.1771 177.602 21.3594 177.836 21.6094C178.076 21.8594 178.258 22.1875 178.383 22.5938C178.513 22.9948 178.578 23.4896 178.578 24.0781V29.5H176.5V24.0625C176.5 23.6771 176.443 23.3724 176.328 23.1484C176.219 22.9245 176.057 22.7656 175.844 22.6719C175.635 22.5781 175.378 22.5312 175.07 22.5312C174.753 22.5312 174.474 22.5964 174.234 22.7266C174 22.8516 173.802 23.026 173.641 23.25C173.484 23.474 173.365 23.7318 173.281 24.0234C173.198 24.3151 173.156 24.6302 173.156 24.9688ZM186.57 21.0469V29.5H184.5V21.0469H186.57ZM184.359 18.8359C184.359 18.5286 184.464 18.2734 184.672 18.0703C184.885 17.8672 185.172 17.7656 185.531 17.7656C185.891 17.7656 186.174 17.8672 186.383 18.0703C186.596 18.2734 186.703 18.5286 186.703 18.8359C186.703 19.138 186.596 19.3906 186.383 19.5938C186.174 19.7969 185.891 19.8984 185.531 19.8984C185.172 19.8984 184.885 19.7969 184.672 19.5938C184.464 19.3906 184.359 19.138 184.359 18.8359ZM190.562 22.8516V29.5H188.5V21.0469H190.438L190.562 22.8516ZM190.234 24.9688H189.625C189.63 24.3542 189.714 23.7969 189.875 23.2969C190.036 22.7969 190.263 22.3672 190.555 22.0078C190.852 21.6484 191.203 21.3724 191.609 21.1797C192.016 20.987 192.469 20.8906 192.969 20.8906C193.375 20.8906 193.742 20.9479 194.07 21.0625C194.398 21.1771 194.68 21.3594 194.914 21.6094C195.154 21.8594 195.336 22.1875 195.461 22.5938C195.591 22.9948 195.656 23.4896 195.656 24.0781V29.5H193.578V24.0625C193.578 23.6771 193.521 23.3724 193.406 23.1484C193.297 22.9245 193.135 22.7656 192.922 22.6719C192.714 22.5781 192.456 22.5312 192.148 22.5312C191.831 22.5312 191.552 22.5964 191.312 22.7266C191.078 22.8516 190.88 23.026 190.719 23.25C190.562 23.474 190.443 23.7318 190.359 24.0234C190.276 24.3151 190.234 24.6302 190.234 24.9688ZM203.812 27.4688L205.664 21.0469H206.977L206.586 23.2656L204.719 29.5H203.586L203.812 27.4688ZM202.789 21.0469L204.18 27.4844L204.305 29.5H203L200.781 21.0469H202.789ZM208.695 27.3906L210.055 21.0469H212.055L209.852 29.5H208.547L208.695 27.3906ZM207.18 21.0469L209.016 27.4062L209.258 29.5H208.125L206.242 23.2656L205.859 21.0469H207.18ZM215.461 21.0469V29.5H213.391V21.0469H215.461ZM213.25 18.8359C213.25 18.5286 213.354 18.2734 213.562 18.0703C213.776 17.8672 214.062 17.7656 214.422 17.7656C214.781 17.7656 215.065 17.8672 215.273 18.0703C215.487 18.2734 215.594 18.5286 215.594 18.8359C215.594 19.138 215.487 19.3906 215.273 19.5938C215.065 19.7969 214.781 19.8984 214.422 19.8984C214.062 19.8984 213.776 19.7969 213.562 19.5938C213.354 19.3906 213.25 19.138 213.25 18.8359ZM221.43 21.0469V22.5312H216.586V21.0469H221.43ZM217.883 18.9688H219.953V27.0625C219.953 27.3125 219.987 27.5052 220.055 27.6406C220.122 27.776 220.224 27.8672 220.359 27.9141C220.495 27.9609 220.656 27.9844 220.844 27.9844C220.979 27.9844 221.104 27.9766 221.219 27.9609C221.333 27.9453 221.43 27.9297 221.508 27.9141L221.516 29.4609C221.344 29.5182 221.148 29.5651 220.93 29.6016C220.716 29.638 220.474 29.6562 220.203 29.6562C219.74 29.6562 219.333 29.5781 218.984 29.4219C218.635 29.2604 218.365 29.0026 218.172 28.6484C217.979 28.2891 217.883 27.8151 217.883 27.2266V18.9688ZM224.828 17.5V29.5H222.758V17.5H224.828ZM224.5 24.9688H223.891C223.891 24.3802 223.969 23.8385 224.125 23.3438C224.281 22.849 224.503 22.4193 224.789 22.0547C225.076 21.6849 225.417 21.3984 225.812 21.1953C226.214 20.9922 226.656 20.8906 227.141 20.8906C227.557 20.8906 227.935 20.9505 228.273 21.0703C228.617 21.1849 228.911 21.3698 229.156 21.625C229.401 21.8802 229.589 22.2135 229.719 22.625C229.854 23.0312 229.922 23.526 229.922 24.1094V29.5H227.844V24.0938C227.844 23.7031 227.786 23.3958 227.672 23.1719C227.557 22.9427 227.393 22.7786 227.18 22.6797C226.971 22.5807 226.714 22.5312 226.406 22.5312C226.073 22.5312 225.786 22.5964 225.547 22.7266C225.307 22.8516 225.109 23.026 224.953 23.25C224.802 23.474 224.688 23.7318 224.609 24.0234C224.536 24.3151 224.5 24.6302 224.5 24.9688ZM244.758 23.6172V28.0469C244.591 28.2604 244.328 28.4922 243.969 28.7422C243.615 28.9922 243.151 29.2083 242.578 29.3906C242.005 29.5677 241.302 29.6562 240.469 29.6562C239.745 29.6562 239.083 29.5365 238.484 29.2969C237.885 29.0521 237.37 28.6953 236.938 28.2266C236.505 27.7578 236.172 27.1849 235.938 26.5078C235.703 25.8307 235.586 25.0573 235.586 24.1875V23.4375C235.586 22.5677 235.695 21.7943 235.914 21.1172C236.138 20.4401 236.456 19.8672 236.867 19.3984C237.284 18.9297 237.781 18.5729 238.359 18.3281C238.943 18.0833 239.594 17.9609 240.312 17.9609C241.276 17.9609 242.068 18.1198 242.688 18.4375C243.312 18.7552 243.792 19.1927 244.125 19.75C244.458 20.3021 244.667 20.9375 244.75 21.6562H242.656C242.599 21.2604 242.484 20.9141 242.312 20.6172C242.141 20.3151 241.896 20.0807 241.578 19.9141C241.266 19.7422 240.859 19.6562 240.359 19.6562C239.938 19.6562 239.565 19.7396 239.242 19.9062C238.919 20.0729 238.648 20.3151 238.43 20.6328C238.211 20.9505 238.044 21.3438 237.93 21.8125C237.82 22.2812 237.766 22.8177 237.766 23.4219V24.1875C237.766 24.7969 237.828 25.3385 237.953 25.8125C238.078 26.2812 238.258 26.6771 238.492 27C238.732 27.3177 239.026 27.5599 239.375 27.7266C239.729 27.888 240.13 27.9688 240.578 27.9688C240.984 27.9688 241.32 27.9349 241.586 27.8672C241.857 27.7943 242.073 27.7083 242.234 27.6094C242.396 27.5104 242.521 27.4141 242.609 27.3203V25.1875H240.352V23.6172H244.758ZM246.266 25.3594V25.1953C246.266 24.5755 246.354 24.0052 246.531 23.4844C246.708 22.9583 246.966 22.5026 247.305 22.1172C247.643 21.7318 248.057 21.4323 248.547 21.2188C249.036 21 249.594 20.8906 250.219 20.8906C250.854 20.8906 251.417 21 251.906 21.2188C252.401 21.4323 252.818 21.7318 253.156 22.1172C253.495 22.5026 253.753 22.9583 253.93 23.4844C254.107 24.0052 254.195 24.5755 254.195 25.1953V25.3594C254.195 25.974 254.107 26.5443 253.93 27.0703C253.753 27.5911 253.495 28.0469 253.156 28.4375C252.818 28.8229 252.404 29.1224 251.914 29.3359C251.424 29.5495 250.865 29.6562 250.234 29.6562C249.609 29.6562 249.049 29.5495 248.555 29.3359C248.06 29.1224 247.643 28.8229 247.305 28.4375C246.966 28.0469 246.708 27.5911 246.531 27.0703C246.354 26.5443 246.266 25.974 246.266 25.3594ZM248.328 25.1953V25.3594C248.328 25.7292 248.365 26.0755 248.438 26.3984C248.51 26.7214 248.622 27.0052 248.773 27.25C248.924 27.4948 249.12 27.6875 249.359 27.8281C249.604 27.9635 249.896 28.0312 250.234 28.0312C250.568 28.0312 250.854 27.9635 251.094 27.8281C251.333 27.6875 251.529 27.4948 251.68 27.25C251.836 27.0052 251.951 26.7214 252.023 26.3984C252.096 26.0755 252.133 25.7292 252.133 25.3594V25.1953C252.133 24.8307 252.096 24.4896 252.023 24.1719C251.951 23.849 251.836 23.5651 251.68 23.3203C251.529 23.0703 251.331 22.875 251.086 22.7344C250.846 22.5885 250.557 22.5156 250.219 22.5156C249.885 22.5156 249.599 22.5885 249.359 22.7344C249.12 22.875 248.924 23.0703 248.773 23.3203C248.622 23.5651 248.51 23.849 248.438 24.1719C248.365 24.4896 248.328 24.8307 248.328 25.1953ZM255.328 25.3594V25.1953C255.328 24.5755 255.417 24.0052 255.594 23.4844C255.771 22.9583 256.029 22.5026 256.367 22.1172C256.706 21.7318 257.12 21.4323 257.609 21.2188C258.099 21 258.656 20.8906 259.281 20.8906C259.917 20.8906 260.479 21 260.969 21.2188C261.464 21.4323 261.88 21.7318 262.219 22.1172C262.557 22.5026 262.815 22.9583 262.992 23.4844C263.169 24.0052 263.258 24.5755 263.258 25.1953V25.3594C263.258 25.974 263.169 26.5443 262.992 27.0703C262.815 27.5911 262.557 28.0469 262.219 28.4375C261.88 28.8229 261.466 29.1224 260.977 29.3359C260.487 29.5495 259.927 29.6562 259.297 29.6562C258.672 29.6562 258.112 29.5495 257.617 29.3359C257.122 29.1224 256.706 28.8229 256.367 28.4375C256.029 28.0469 255.771 27.5911 255.594 27.0703C255.417 26.5443 255.328 25.974 255.328 25.3594ZM257.391 25.1953V25.3594C257.391 25.7292 257.427 26.0755 257.5 26.3984C257.573 26.7214 257.685 27.0052 257.836 27.25C257.987 27.4948 258.182 27.6875 258.422 27.8281C258.667 27.9635 258.958 28.0312 259.297 28.0312C259.63 28.0312 259.917 27.9635 260.156 27.8281C260.396 27.6875 260.591 27.4948 260.742 27.25C260.898 27.0052 261.013 26.7214 261.086 26.3984C261.159 26.0755 261.195 25.7292 261.195 25.3594V25.1953C261.195 24.8307 261.159 24.4896 261.086 24.1719C261.013 23.849 260.898 23.5651 260.742 23.3203C260.591 23.0703 260.393 22.875 260.148 22.7344C259.909 22.5885 259.62 22.5156 259.281 22.5156C258.948 22.5156 258.661 22.5885 258.422 22.7344C258.182 22.875 257.987 23.0703 257.836 23.3203C257.685 23.5651 257.573 23.849 257.5 24.1719C257.427 24.4896 257.391 24.8307 257.391 25.1953ZM270.133 21.0469H272.008V29.2422C272.008 30.0078 271.841 30.6562 271.508 31.1875C271.18 31.724 270.719 32.1302 270.125 32.4062C269.531 32.6875 268.841 32.8281 268.055 32.8281C267.716 32.8281 267.349 32.7812 266.953 32.6875C266.562 32.5938 266.185 32.4453 265.82 32.2422C265.461 32.0443 265.161 31.7865 264.922 31.4688L265.852 30.25C266.133 30.5781 266.451 30.8255 266.805 30.9922C267.159 31.1641 267.542 31.25 267.953 31.25C268.37 31.25 268.724 31.1719 269.016 31.0156C269.312 30.8646 269.539 30.6406 269.695 30.3438C269.857 30.0521 269.938 29.6927 269.938 29.2656V22.9766L270.133 21.0469ZM264.422 25.375V25.2109C264.422 24.5651 264.5 23.9792 264.656 23.4531C264.812 22.9219 265.036 22.4661 265.328 22.0859C265.625 21.7057 265.982 21.4115 266.398 21.2031C266.82 20.9948 267.294 20.8906 267.82 20.8906C268.378 20.8906 268.846 20.9922 269.227 21.1953C269.612 21.3984 269.93 21.6875 270.18 22.0625C270.435 22.4375 270.633 22.8828 270.773 23.3984C270.919 23.9089 271.031 24.4714 271.109 25.0859V25.5312C271.036 26.1302 270.919 26.6797 270.758 27.1797C270.602 27.6797 270.393 28.1172 270.133 28.4922C269.872 28.862 269.549 29.1484 269.164 29.3516C268.779 29.5547 268.326 29.6562 267.805 29.6562C267.284 29.6562 266.815 29.5495 266.398 29.3359C265.982 29.1224 265.625 28.8229 265.328 28.4375C265.036 28.0521 264.812 27.599 264.656 27.0781C264.5 26.5573 264.422 25.9896 264.422 25.375ZM266.484 25.2109V25.375C266.484 25.7396 266.521 26.0807 266.594 26.3984C266.667 26.7161 266.779 26.9974 266.93 27.2422C267.081 27.4818 267.271 27.6693 267.5 27.8047C267.729 27.9401 268.003 28.0078 268.32 28.0078C268.747 28.0078 269.096 27.9193 269.367 27.7422C269.643 27.5599 269.852 27.3125 269.992 27C270.138 26.6823 270.232 26.3255 270.273 25.9297V24.7031C270.247 24.3906 270.19 24.1016 270.102 23.8359C270.018 23.5703 269.901 23.3411 269.75 23.1484C269.599 22.9557 269.406 22.8047 269.172 22.6953C268.938 22.5859 268.659 22.5312 268.336 22.5312C268.023 22.5312 267.75 22.6016 267.516 22.7422C267.281 22.8776 267.089 23.0677 266.938 23.3125C266.786 23.5573 266.672 23.8411 266.594 24.1641C266.521 24.487 266.484 24.8359 266.484 25.2109ZM276.055 17.5V29.5H273.984V17.5H276.055ZM281.82 29.6562C281.18 29.6562 280.604 29.5521 280.094 29.3438C279.583 29.1354 279.148 28.8464 278.789 28.4766C278.435 28.1016 278.161 27.6667 277.969 27.1719C277.781 26.6719 277.688 26.1354 277.688 25.5625V25.25C277.688 24.599 277.781 24.0078 277.969 23.4766C278.156 22.9401 278.422 22.4792 278.766 22.0938C279.109 21.7083 279.521 21.4115 280 21.2031C280.479 20.9948 281.008 20.8906 281.586 20.8906C282.185 20.8906 282.714 20.9922 283.172 21.1953C283.63 21.3932 284.013 21.6745 284.32 22.0391C284.628 22.4036 284.859 22.8411 285.016 23.3516C285.172 23.8568 285.25 24.4167 285.25 25.0312V25.8984H278.625V24.4766H283.219V24.3203C283.208 23.9922 283.146 23.6927 283.031 23.4219C282.917 23.1458 282.74 22.9271 282.5 22.7656C282.26 22.599 281.951 22.5156 281.57 22.5156C281.263 22.5156 280.995 22.5833 280.766 22.7188C280.542 22.849 280.354 23.0365 280.203 23.2812C280.057 23.5208 279.948 23.8073 279.875 24.1406C279.802 24.474 279.766 24.8438 279.766 25.25V25.5625C279.766 25.9167 279.812 26.2448 279.906 26.5469C280.005 26.849 280.148 27.112 280.336 27.3359C280.529 27.5547 280.758 27.7266 281.023 27.8516C281.294 27.9714 281.602 28.0312 281.945 28.0312C282.378 28.0312 282.768 27.9479 283.117 27.7812C283.471 27.6094 283.779 27.3568 284.039 27.0234L285.078 28.1016C284.901 28.362 284.661 28.612 284.359 28.8516C284.062 29.0911 283.703 29.2865 283.281 29.4375C282.859 29.5833 282.372 29.6562 281.82 29.6562Z" fill="#3B3839"/>
</svg>
