<svg width="180" height="180" viewBox="0 0 180 180" fill="none" xmlns="http://www.w3.org/2000/svg">
<path d="M110.806 71.1811C111.508 70.6444 112.333 70.2903 113.205 70.1507C114.078 70.011 114.972 70.0902 115.806 70.381C114.344 64.981 112.856 58.861 109.155 54.7786C108.656 54.253 105.63 51.1786 101.88 50.6026C99.7683 50.3083 97.6197 50.4272 95.5536 50.9527C93.0282 51.553 92.4531 52.1029 91.7529 53.1532C90.9643 54.447 90.2625 55.7919 89.6523 57.1789C90.2715 57.1789 94.7121 54.8794 99.6792 56.1034C105.555 57.529 106.755 60.904 107.58 62.3791C108.815 65.2523 109.891 68.1907 110.806 71.1811Z" fill="#68B408"/>
<path d="M119.359 74.4813C118.822 73.6428 118.115 72.927 117.282 72.3807C113.945 69.9993 109.716 72.8388 109.207 76.6314C109.007 78.2316 108.857 81.2574 110.232 83.5614C110.892 84.7246 111.978 85.586 113.261 85.9638C114.543 86.3416 115.923 86.2063 117.108 85.5864C120.563 83.8224 121.259 77.6781 119.359 74.4813ZM118.183 82.3113C118.107 82.3794 118.014 82.4247 117.913 82.4417C117.812 82.4588 117.709 82.447 117.615 82.4078C117.521 82.3685 117.44 82.3033 117.381 82.2198C117.322 82.1363 117.288 82.0379 117.283 81.936C117.334 80.6112 117.834 79.3854 117.759 78.0354C117.76 77.3138 117.616 76.5994 117.337 75.934C117.058 75.2686 116.649 74.6655 116.134 74.16C115.708 73.7847 116.285 73.0566 116.734 73.3851C117.384 73.8728 117.928 74.488 118.332 75.1931C118.736 75.8981 118.992 76.6781 119.084 77.4855C119.308 79.0074 119.283 81.1071 118.183 82.3077V82.3113Z" fill="#68B408"/>
<path d="M74.6998 36.2008C73.7494 33.0508 53.9485 34.5079 51.5698 35.0254C50.974 35.0873 50.4267 35.3822 50.0474 35.8458C49.6681 36.3094 49.4874 36.9042 49.5448 37.5004C49.5052 39.7261 48.895 48.8278 49.2442 51.1282C49.795 54.8281 53.1205 54.6031 56.0959 54.703C57.796 54.7534 65.0221 54.6283 65.0221 54.6283C70.6921 58.6954 69.8587 58.2427 69.9721 58.1293C70.072 57.3787 69.4969 54.5536 70.7218 54.3781C71.2222 54.3034 73.6729 54.3034 74.1481 53.5033C75.2767 51.6277 74.9266 36.9001 74.6998 36.2008ZM56.3731 45.9001C56.0391 45.9326 55.7056 45.8331 55.4441 45.6229C55.1825 45.4126 55.0136 45.1083 54.9736 44.7751C54.9743 44.5483 55.0362 44.3258 55.1528 44.1312C55.2694 43.9366 55.4364 43.7771 55.6361 43.6696C55.8359 43.562 56.061 43.5103 56.2876 43.5201C56.5143 43.5298 56.7341 43.6006 56.9239 43.7248C57.1329 43.8587 57.2946 44.055 57.3858 44.2858C57.4771 44.5167 57.4935 44.7704 57.4325 45.011C57.3716 45.2517 57.2365 45.467 57.0463 45.6266C56.8562 45.7862 56.6206 45.8819 56.3731 45.9001ZM62.1745 45.9001C61.0243 45.9001 60.7993 45.2503 60.7741 44.7751C60.7748 44.5483 60.8367 44.3258 60.9533 44.1312C61.0699 43.9366 61.2369 43.7771 61.4366 43.6696C61.6364 43.562 61.8615 43.5103 62.0881 43.5201C62.3148 43.5298 62.5346 43.6006 62.7244 43.7248C62.9329 43.859 63.094 44.0552 63.1849 44.2858C63.2759 44.5165 63.2921 44.7698 63.2314 45.0102C63.1706 45.2505 63.0359 45.4657 62.8463 45.6254C62.6567 45.7851 62.4217 45.8812 62.1745 45.9001ZM67.8508 45.9001C66.625 45.9001 66.4747 45.2503 66.4504 44.7751C66.4515 44.5486 66.5137 44.3265 66.6304 44.1323C66.7471 43.9381 66.914 43.779 67.1135 43.6716C67.3131 43.5643 67.5378 43.5128 67.7642 43.5225C67.9906 43.5321 68.2101 43.6027 68.3998 43.7266C68.6059 43.862 68.7648 44.0582 68.8543 44.288C68.9438 44.5178 68.9594 44.7697 68.899 45.0088C68.8386 45.2479 68.7052 45.4622 68.5173 45.622C68.3295 45.7817 68.0965 45.879 67.8508 45.9001Z" fill="#68B408"/>
<path d="M175.094 75.96C175.125 75.6642 175.097 75.3651 175.012 75.0802C174.927 74.7952 174.786 74.53 174.597 74.2998C174.409 74.0697 174.177 73.8791 173.914 73.7393C173.652 73.5994 173.364 73.513 173.068 73.485C170.718 72.9846 150.89 71.5347 149.938 74.6847C149.738 75.3849 149.388 90.1125 150.488 91.9872C150.963 92.7873 153.413 92.7873 153.913 92.8629C155.263 93.0555 154.474 96.4989 154.689 96.7131C154.689 96.6636 159.915 93.663 159.915 93.663C159.915 93.663 166.84 93.2373 168.541 93.1878C171.516 93.0879 174.841 93.2877 175.392 89.6121C175.744 87.3081 175.134 78.21 175.094 75.96ZM158.191 83.2365C158.141 83.7108 157.991 84.4614 156.791 84.3615C156.546 84.3439 156.313 84.2499 156.125 84.0928C155.936 83.9357 155.802 83.7233 155.741 83.4858C155.69 83.2603 155.703 83.0252 155.779 82.8068C155.854 82.5883 155.989 82.3953 156.168 82.2492C156.348 82.1032 156.564 82.01 156.793 81.9801C157.022 81.9502 157.255 81.9848 157.466 82.08C157.69 82.1753 157.879 82.3368 158.009 82.5429C158.138 82.7489 158.202 82.9897 158.191 83.2329V83.2365ZM163.842 83.2365C163.792 83.7108 163.692 84.3615 162.442 84.3615C162.194 84.3528 161.957 84.2621 161.767 84.1035C161.576 83.945 161.444 83.7276 161.391 83.4858C161.342 83.2607 161.356 83.0263 161.432 82.8087C161.508 82.5912 161.643 82.3991 161.822 82.2539C162.001 82.1087 162.217 82.0161 162.446 81.9865C162.674 81.9569 162.907 81.9915 163.117 82.0863C163.34 82.1814 163.528 82.342 163.658 82.5468C163.787 82.7515 163.852 82.9908 163.842 83.2329V83.2365ZM169.668 83.2617C169.618 83.736 169.343 84.3615 168.243 84.3867C167.995 84.3677 167.76 84.2707 167.571 84.1096C167.381 83.9486 167.248 83.7317 167.19 83.4901C167.131 83.2485 167.151 82.9946 167.246 82.7649C167.341 82.5352 167.506 82.3414 167.718 82.2114C167.907 82.0854 168.127 82.0131 168.354 82.0022C168.581 81.9914 168.806 82.0425 169.007 82.15C169.207 82.2574 169.374 82.4173 169.491 82.6125C169.607 82.8077 169.668 83.0308 169.668 83.2581V83.2617Z" fill="#68B408"/>
<path d="M90.504 85.8834C90.1044 85.8555 89.9541 86.3829 90.1791 86.6331C92.079 88.7085 96.255 86.5836 96.2091 83.9574C96.2053 83.8503 96.1672 83.7472 96.1005 83.6633C96.0338 83.5794 95.942 83.519 95.8385 83.4911C95.735 83.4633 95.6253 83.4693 95.5255 83.5083C95.4257 83.5474 95.341 83.6174 95.2839 83.7081C94.8804 84.5783 94.2165 85.3016 93.384 85.7781C92.4039 86.283 91.53 85.95 90.504 85.8834Z" fill="#3B3839"/>
<path d="M88.1985 63.1548C87.8007 63.4824 88.2237 64.1295 88.6989 64.0044C90.1236 63.5544 91.074 64.5795 91.0488 65.9844C91.0083 67.6836 89.4288 69.9606 88.1985 75.0861C87.6981 77.1111 86.4732 82.7622 90.3486 82.3122C90.7491 82.2618 90.9237 81.6372 90.4485 81.5373C87.3984 80.9118 89.2236 76.1112 89.7483 74.1861C91.0812 69.4674 93.5814 66.1302 91.6239 63.6345C91.434 63.3734 91.1936 63.1532 90.9168 62.9871C90.64 62.821 90.3327 62.7123 90.013 62.6675C89.6933 62.6227 89.3679 62.6428 89.0562 62.7265C88.7444 62.8103 88.4527 62.9559 88.1985 63.1548Z" fill="#3B3839"/>
<path d="M97.7296 72.2807C98.9545 72.4094 100.705 71.3807 100.555 69.9803C100.55 69.8679 100.511 69.7596 100.441 69.6711C100.372 69.5826 100.276 69.5185 100.167 69.488C100.059 69.4575 99.9437 69.4622 99.8382 69.5013C99.7326 69.5404 99.6422 69.6121 99.58 69.7058C99.1543 70.3304 98.8294 71.0306 97.9546 71.0558C97.5385 71.0407 97.1421 70.8752 96.8388 70.59C96.5354 70.3049 96.3457 69.9194 96.3049 69.5051C96.2999 69.399 96.2543 69.2989 96.1774 69.2256C96.1006 69.1522 95.9984 69.1113 95.8922 69.1113C95.786 69.1113 95.6838 69.1522 95.607 69.2256C95.5302 69.2989 95.4845 69.399 95.4796 69.5051C95.4313 70.1672 95.6372 70.8227 96.0552 71.3383C96.4731 71.8539 97.0719 72.1909 97.7296 72.2807Z" fill="#3B3839"/>
<path d="M89.0995 69.3054C89.0975 69.2187 89.0729 69.1339 89.0283 69.0595C88.9837 68.985 88.9206 68.9234 88.8451 68.8806C88.7696 68.8378 88.6842 68.8153 88.5975 68.8153C88.5107 68.8153 88.4254 68.8378 88.3498 68.8806C88.0744 69.03 87.8494 69.3558 87.4741 69.2802C87.124 69.2055 86.9989 68.8302 86.899 68.5305C86.8803 68.4662 86.8431 68.4087 86.7921 68.3653C86.741 68.3219 86.6783 68.2945 86.6117 68.2864C86.5452 68.2784 86.4777 68.29 86.4178 68.32C86.3578 68.35 86.308 68.3969 86.2744 68.4549C86.1908 68.6374 86.1465 68.8355 86.1446 69.0363C86.1427 69.237 86.1831 69.4359 86.2633 69.62C86.3435 69.804 86.4616 69.9691 86.6099 70.1044C86.7582 70.2397 86.9334 70.3422 87.124 70.4052C87.8782 70.6806 89.158 70.2549 89.0995 69.3054Z" fill="#3B3839"/>
<path d="M96.604 64.4545C99.0259 63.865 100.804 65.4049 102.029 67.2553C102.094 67.3594 102.193 67.4369 102.31 67.4736C102.427 67.5103 102.553 67.5038 102.665 67.4551C102.777 67.4065 102.868 67.3191 102.922 67.2089C102.975 67.0986 102.986 66.9729 102.954 66.8548C102.504 63.955 98.8045 62.8048 96.379 63.6796C96.2817 63.7139 96.2012 63.7842 96.154 63.876C96.1069 63.9678 96.0966 64.0742 96.1254 64.1733C96.1542 64.2725 96.2198 64.3568 96.3088 64.4091C96.3978 64.4614 96.5034 64.4776 96.604 64.4545Z" fill="#3B3839"/>
<path d="M81.9538 94.0841C83.3038 94.8041 85.6294 94.6592 86.0551 93.509C87.0046 90.9332 84.2299 88.7831 81.5794 89.8334C80.6013 88.55 79.949 87.0485 79.6786 85.4576C79.2016 82.7099 80.1016 80.3825 80.8288 77.7815C80.9539 77.3315 80.3536 77.1317 80.1043 77.4818C77.2531 81.4076 77.6536 87.3584 80.629 91.1087C80.4958 91.6813 80.5532 92.2817 80.7923 92.8187C81.0314 93.3557 81.4392 93.8 81.9538 94.0841Z" fill="#3B3839"/>
<path d="M171.069 162.595C169.135 162.534 167.202 162.492 165.267 162.47C165.717 155.619 166.318 148.767 166.443 141.891C166.442 141.795 166.418 141.7 166.375 141.613C166.331 141.527 166.268 141.452 166.191 141.394C166.113 141.336 166.024 141.297 165.929 141.279C165.834 141.261 165.736 141.266 165.643 141.292C163.361 142.018 160.986 142.413 158.591 142.462C156.176 142.46 153.772 142.141 151.441 141.512C151.351 141.488 151.257 141.484 151.166 141.501C151.074 141.519 150.988 141.556 150.914 141.612C150.839 141.667 150.778 141.739 150.735 141.821C150.692 141.904 150.668 141.995 150.666 142.088C150.68 148.925 151.325 155.746 152.591 162.465C150.637 162.485 130.153 162.433 106.304 162.364C116.416 161.817 128.389 157.722 135.813 150.838C135.507 154.378 134.854 157.878 133.863 161.29C133.712 161.84 134.588 162.266 134.837 161.69C135.624 159.693 136.178 157.613 136.489 155.489C136.962 153.586 137.139 151.621 137.014 149.664C139.973 146.649 142.218 143.007 143.581 139.008C144.944 135.009 145.391 130.755 144.89 126.56C143.857 116.234 139.67 108.615 130.412 103.307C131.937 102.885 133.308 102.035 134.363 100.856C134.921 100.233 135.325 99.4871 135.542 98.6795C135.759 97.8718 135.783 97.0244 135.613 96.2055C135.213 94.6296 133.863 93.7755 132.463 93.1293C130.928 92.4019 129.634 91.2473 128.738 89.8038C125.487 85.0788 126.837 78.8526 126.812 75.8772C126.712 65.7972 126.538 51.1731 116.211 45.7722C110.26 42.6465 101.258 43.1217 97.5334 49.2975C99.0514 49.1283 100.587 49.196 102.084 49.4982C105.176 50.0079 107.981 51.6144 109.985 54.0234C112.001 56.3884 113.539 59.123 114.511 62.0748C115.336 64.3248 117.186 71.226 117.186 71.226C118.313 71.8811 119.265 72.7991 119.961 73.9017C122.117 77.6412 121.3 84.5064 117.386 86.5287C116.226 87.1464 114.89 87.3492 113.598 87.1037C112.307 86.8582 111.138 86.1791 110.285 85.1787C109.76 88.3301 110.035 91.563 111.086 94.5801C111.835 96.7302 112.635 99.0306 114.386 100.406C113.072 101.156 106.539 106.696 104.184 108.032C101.434 109.582 96.3076 111.883 95.3329 107.257C95.233 106.757 94.4824 106.982 94.558 107.456C95.8081 114.206 104.188 109.457 107.459 107.307C108.71 106.482 113.361 102.506 114.611 101.681C118.786 98.9055 124.787 101.756 128.663 103.856C133.193 106.161 137.02 109.643 139.74 113.936C142.371 118.714 143.74 124.084 143.715 129.539C143.79 140.241 137.714 149.217 128.638 154.517C123.839 157.216 118.626 159.102 113.21 160.097C107.61 161.222 101.634 161.647 96.1105 160.022C95.5563 157.391 95.5649 154.673 96.1357 152.046C99.7862 152.837 103.577 152.695 107.158 151.632C110.739 150.569 113.994 148.62 116.622 145.965C119.249 143.31 121.164 140.035 122.19 136.443C123.216 132.851 123.319 129.059 122.489 125.417C122.29 124.417 120.74 124.842 120.964 125.842C121.73 129.284 121.604 132.864 120.6 136.245C119.596 139.625 117.746 142.693 115.225 145.159C112.704 147.625 109.596 149.407 106.194 150.336C102.793 151.266 99.2101 151.312 95.7856 150.471C95.6001 150.423 95.4032 150.448 95.2356 150.541C95.0681 150.634 94.9427 150.788 94.8856 150.971C94.6904 151.773 94.5319 152.584 94.4104 153.401C93.0334 152.499 91.4836 151.895 89.86 151.626C85.7992 150.755 83.2459 152.42 79.7332 154.651C77.9765 155.59 76.3033 156.677 74.7319 157.901C74.407 158.201 74.7571 158.852 75.1819 158.676C80.3227 156.538 83.8408 151.393 89.8087 152.776C91.3449 153.222 92.8485 153.773 94.3087 154.426C94.1365 156.205 94.2275 157.999 94.5787 159.752C94.8541 161.152 95.1538 161.227 96.5047 161.577C98.1787 161.998 99.8888 162.261 101.612 162.361L93.4159 162.337C93.5553 162.179 93.6615 161.995 93.7282 161.796C93.7948 161.597 93.8205 161.386 93.8038 161.177C93.8134 160.526 93.6213 159.888 93.2539 159.351C92.6536 158.751 79.4272 159.451 73.8508 159.226C71.8258 155.101 69.8503 150.946 67.8496 146.8C72.4885 145.189 76.6376 142.417 79.9015 138.749C79.9501 142.556 80.9041 148.728 83.0272 151.7C83.4277 152.25 84.3772 151.951 84.1522 151.225C83.5024 149.05 82.4026 147.049 81.9022 144.799C80.4495 137.773 81.3457 130.463 84.4528 123.996C84.5091 123.896 84.5236 123.778 84.493 123.668C84.4625 123.558 84.3894 123.464 84.2899 123.408C84.1903 123.352 84.0725 123.337 83.9623 123.368C83.8521 123.398 83.7585 123.471 83.7022 123.571C81.4498 127.562 80.1572 132.022 79.9267 136.598C76.5638 140.664 72.2533 143.841 67.3744 145.85C65.4997 141.949 63.6241 138.02 61.7242 134.123C65.8075 129.82 70.9042 120.902 75.8011 115.72C82.7023 108.369 88.3534 106.468 90.2281 105.918C95.5795 104.418 96.7297 106.018 96.8296 105.343C97.1249 103.499 97.2338 101.629 97.1545 99.7632C97.1646 98.3833 97.0136 97.0069 96.7045 95.6619C99.58 95.0373 101.906 92.6622 101.456 89.3862C101.38 88.8111 100.48 88.9866 100.455 89.5113C100.385 90.5933 99.975 91.6256 99.2836 92.4607C98.5921 93.2958 97.6545 93.8911 96.6046 94.1616C95.4419 94.371 94.2462 94.3012 93.1158 93.9579C91.9855 93.6146 90.9528 93.0076 90.103 92.187C87.0025 89.4366 85.2772 85.0104 84.4771 81.0351C83.6751 77.0307 83.8498 72.892 84.9862 68.9694C86.1226 65.0468 88.1874 61.4556 91.0057 58.5C91.0753 58.4305 91.1143 58.3361 91.1143 58.2377C91.1143 58.1393 91.0753 58.0449 91.0057 57.9753C90.9361 57.9058 90.8417 57.8667 90.7433 57.8667C90.6449 57.8667 90.5506 57.9058 90.481 57.9753C87.7943 60.5562 85.7109 63.6986 84.3796 67.178C83.0483 70.6574 82.502 74.3879 82.7797 78.1029C83.2297 84.7044 86.5597 94.6809 94.2322 95.706C94.6885 95.7598 95.1484 95.7764 95.6074 95.7555C95.6551 98.469 96.3058 98.3529 95.782 104.008C95.7568 104.008 95.7568 103.982 95.7325 103.982C92.1064 103.182 88.0312 104.757 84.8551 106.432C77.1916 110.454 72.3937 117.177 67.5751 124.086C65.4997 127.061 63.2992 129.936 61.1239 132.836C60.1987 130.911 54.5485 120.056 53.698 119.786C52.816 119.502 12.298 120.173 7.74037 121.037C5.49037 121.461 7.49107 124.612 8.04097 125.837C12.9163 137.014 26.6431 162.093 26.671 162.118C21.8695 162.043 17.221 161.993 12.3934 161.943C12.2841 161.943 12.1792 161.987 12.1019 162.064C12.0246 162.141 11.9812 162.246 11.9812 162.356C11.9812 162.465 12.0246 162.57 12.1019 162.647C12.1792 162.724 12.2841 162.768 12.3934 162.768C52.8502 164.704 160.827 163.952 171.017 163.518C171.081 163.526 171.145 163.521 171.206 163.503C171.266 163.485 171.323 163.455 171.372 163.414C171.421 163.373 171.461 163.323 171.489 163.266C171.518 163.21 171.534 163.148 171.538 163.084C171.541 163.021 171.532 162.957 171.51 162.898C171.487 162.838 171.453 162.784 171.409 162.738C171.365 162.692 171.313 162.655 171.254 162.631C171.195 162.606 171.132 162.594 171.069 162.595ZM164.017 162.47C160.517 162.445 157.016 162.47 153.54 162.495C152.575 156.011 152.033 149.471 151.916 142.916C154.107 143.465 156.358 143.742 158.616 143.742C160.835 143.702 163.038 143.366 165.167 142.742C165.017 149.342 164.443 155.894 164.017 162.47Z" fill="#3B3839"/>
<path d="M37.2216 139.59C36.8715 139.24 35.6718 138.364 34.6962 139.24C33.2211 140.54 35.4216 143.865 37.1262 143.765C39.8226 143.617 37.8723 140.091 37.2216 139.59Z" fill="#68B408"/>
<path d="M154.09 141.191C153.848 138.618 153.889 135.791 153.239 133.29C153.206 133.177 153.133 133.079 153.034 133.014C152.935 132.95 152.816 132.923 152.698 132.938C152.581 132.953 152.473 133.009 152.394 133.097C152.314 133.184 152.268 133.297 152.264 133.415C152.214 135.991 152.889 138.767 153.239 141.316C153.314 141.792 154.136 141.692 154.09 141.191Z" fill="#3B3839"/>
<path d="M157.538 141.091C157.173 136.996 156.988 132.965 157.012 128.84C156.993 128.687 156.919 128.547 156.804 128.446C156.689 128.344 156.541 128.288 156.387 128.288C156.234 128.288 156.086 128.344 155.971 128.446C155.856 128.547 155.782 128.687 155.762 128.84C155.527 132.989 155.847 137.151 156.713 141.216C156.745 141.311 156.809 141.391 156.894 141.442C156.979 141.494 157.079 141.514 157.178 141.5C157.276 141.485 157.366 141.436 157.432 141.361C157.498 141.286 157.536 141.191 157.538 141.091Z" fill="#3B3839"/>
<path d="M162.017 140.717C162.473 138.213 162.692 135.616 162.942 133.09C163.345 130.425 163.562 127.734 163.592 125.039C163.589 124.899 163.536 124.764 163.442 124.66C163.349 124.556 163.221 124.488 163.082 124.47C162.943 124.452 162.802 124.484 162.684 124.561C162.567 124.638 162.481 124.754 162.442 124.889C161.987 127.417 161.695 129.973 161.567 132.539C161.317 135.214 160.992 137.914 160.992 140.59C160.992 141.142 161.912 141.291 162.017 140.717Z" fill="#3B3839"/>
<path d="M174.269 23.4738C174.169 21.6234 174.469 19.3482 172.769 18.1728C170.468 16.5969 167.092 16.4223 164.417 16.2225C155.847 15.5025 141.276 16.4736 138.317 17.0973C136.967 17.3727 136.418 18.6723 136.243 19.9476C136.13 21.2289 136.13 32.4175 136.243 33.6987C136.249 33.8538 136.315 34.0005 136.427 34.1081C136.539 34.2157 136.688 34.2758 136.843 34.2758C136.998 34.2758 137.147 34.2157 137.259 34.1081C137.371 34.0005 137.437 33.8538 137.443 33.6987C137.443 32.4234 137.018 18.5724 138.417 18.3222C146.334 17.3148 154.323 16.9803 162.296 17.3223C165.247 17.4726 168.596 17.5977 171.323 18.8226C171.646 18.9192 171.943 19.0858 172.194 19.3106C172.444 19.5354 172.642 19.8129 172.773 20.1231C172.773 20.7945 174.082 40.752 173.173 43.4763C172.673 45.0513 170.173 45.8271 168.647 45.8523C165.615 45.9513 156.691 45.4365 152.447 45.3267C151.397 45.3015 145.671 51.6267 145.671 51.6267C145.671 51.6267 145.597 48.1761 145.546 46.4508C145.543 46.3518 145.517 46.2547 145.472 46.1667C145.426 46.0787 145.361 46.002 145.282 45.9422C145.203 45.8824 145.112 45.8409 145.015 45.8208C144.918 45.8008 144.817 45.8026 144.721 45.8262C142.546 46.1511 139.92 46.2006 138.12 44.7255C137.045 43.8507 137.095 42.2757 137.07 41.0004C136.995 38.1996 137.57 35.1504 136.995 32.3739C136.92 31.9491 136.195 32.049 136.246 32.4738C136.57 35.9244 135.545 39.4254 135.995 42.9003C136.52 46.9008 140.846 47.5011 144.271 47.151C144.321 49.2516 144.396 51.3522 144.446 53.451C144.451 53.587 144.499 53.718 144.583 53.8249C144.668 53.9317 144.784 54.0089 144.915 54.0452C145.046 54.0814 145.185 54.0748 145.313 54.0264C145.44 53.978 145.548 53.8902 145.622 53.7759C147.582 51.1588 149.802 48.7465 152.248 46.5759C152.397 46.6011 160.174 46.9512 163.899 47.0511C167.175 47.151 172.226 47.826 174.176 44.3259C175.3 42.3 174.406 25.758 174.269 23.4738Z" fill="#3B3839"/>
<path d="M145.738 43.2765C145.745 43.3779 145.79 43.4729 145.864 43.5422C145.939 43.6116 146.036 43.6502 146.138 43.6502C146.239 43.6502 146.337 43.6116 146.411 43.5422C146.486 43.4729 146.531 43.3779 146.537 43.2765C146.907 36.324 149.453 33.7365 153.114 32.3244C153.539 32.175 153.539 31.4244 152.989 31.4748C150.688 31.6494 148.788 33.3747 147.589 35.2548C146.038 37.6758 145.751 40.4514 145.738 43.2765Z" fill="#3B3839"/>
<path d="M149.713 37.3259C149.263 39.3495 148.979 41.4065 148.863 43.4764C148.866 43.5886 148.909 43.696 148.984 43.7794C149.059 43.8629 149.161 43.917 149.272 43.932C149.383 43.9471 149.496 43.9221 149.591 43.8615C149.685 43.801 149.755 43.7088 149.788 43.6016C150.176 41.5641 150.402 39.499 150.463 37.4258C150.488 37.0253 149.785 36.9254 149.713 37.3259Z" fill="#3B3839"/>
<path d="M166.041 36.9C167.554 34.1559 166.416 30.87 164.491 28.6488C164.166 28.2735 163.641 28.7487 163.841 29.1483C164.766 30.9735 165.891 32.8986 165.466 35.0244C165.117 36.7749 162.84 39.3498 161.091 37.3743C161.03 37.3156 160.951 37.2784 160.867 37.2682C160.783 37.258 160.698 37.2754 160.625 37.3177C160.552 37.3601 160.494 37.4251 160.461 37.5029C160.428 37.5808 160.421 37.6674 160.441 37.7496C160.536 38.0564 160.698 38.3383 160.915 38.5749C160.747 39.5532 160.471 42.3099 160.815 43.2549C160.841 43.3414 160.893 43.4175 160.965 43.4716C161.038 43.5257 161.125 43.5549 161.216 43.5549C161.306 43.5549 161.393 43.5257 161.466 43.4716C161.538 43.4175 161.59 43.3414 161.616 43.2549C161.734 41.8747 161.776 40.4889 161.741 39.1041C163.191 39.5757 165.323 38.2041 166.041 36.9Z" fill="#3B3839"/>
<path d="M161.515 35.4502C162.95 34.5664 164.04 32.7997 163.44 31.0744C163.415 30.9961 163.363 30.9292 163.294 30.8857C163.224 30.8422 163.141 30.825 163.06 30.837C162.979 30.849 162.905 30.8895 162.85 30.9513C162.796 31.0131 162.766 31.0922 162.765 31.1743C162.788 31.7497 162.68 32.3228 162.451 32.851C162.222 33.3792 161.876 33.8489 161.44 34.2253C160.937 33.4262 160.269 32.7446 159.479 32.2269C158.69 31.7091 157.798 31.3673 156.865 31.2247C156.822 31.2129 156.777 31.2096 156.733 31.215C156.69 31.2204 156.647 31.2344 156.609 31.2562C156.57 31.278 156.536 31.3072 156.509 31.3421C156.482 31.377 156.462 31.4169 156.45 31.4596C156.438 31.5022 156.435 31.5468 156.44 31.5908C156.445 31.6347 156.459 31.6772 156.481 31.7157C156.503 31.7542 156.532 31.7881 156.567 31.8153C156.602 31.8426 156.642 31.8627 156.685 31.8745C157.561 32.1296 158.377 32.5604 159.082 33.1408C159.787 33.7211 160.366 34.4389 160.785 35.2504C160.818 35.3129 160.864 35.368 160.919 35.4123C160.975 35.4565 161.039 35.489 161.107 35.5077C161.175 35.5264 161.247 35.531 161.317 35.5211C161.387 35.5112 161.454 35.4871 161.515 35.4502Z" fill="#3B3839"/>
<path d="M161.039 30.2742C159.728 28.7883 158.177 32.1246 160.189 32.1246C163.689 32.1246 164.664 25.8489 164.014 24.3234C163.564 23.2488 161.79 22.8987 161.464 24.2982C161.423 24.4956 161.441 24.7007 161.515 24.8883C161.589 25.0759 161.715 25.238 161.88 25.3547C162.044 25.4714 162.239 25.5377 162.441 25.5455C162.642 25.5534 162.841 25.5024 163.014 25.3989C163.014 25.5735 162.839 28.5741 161.039 30.2742Z" fill="#3B3839"/>
<path d="M148.837 29.674C149.061 29.953 149.351 30.1723 149.68 30.3124C150.009 30.4524 150.368 30.5089 150.725 30.4767C151.081 30.4445 151.424 30.3248 151.723 30.128C152.021 29.9313 152.267 29.6637 152.437 29.3491C152.675 29.7627 153.017 30.1064 153.43 30.3454C153.842 30.5843 154.311 30.7102 154.788 30.7102C155.265 30.7102 155.733 30.5843 156.146 30.3454C156.558 30.1064 156.901 29.7627 157.138 29.3491C157.191 29.5778 157.32 29.7818 157.504 29.9278C157.688 30.0738 157.916 30.1533 158.151 30.1533C158.385 30.1533 158.613 30.0738 158.797 29.9278C158.981 29.7818 159.11 29.5778 159.163 29.3491C159.346 29.2581 159.501 29.1196 159.612 28.9481C159.722 28.7766 159.785 28.5785 159.793 28.3744C159.995 28.2766 160.153 28.1071 160.236 27.899C160.319 27.6909 160.322 27.4593 160.243 27.2494C160.268 27.1171 160.268 26.9812 160.243 26.8489C160.381 26.6973 160.483 26.5164 160.541 26.3198C160.599 26.1231 160.611 25.9159 160.578 25.7137C160.544 25.5115 160.465 25.3195 160.346 25.1523C160.228 24.9851 160.073 24.847 159.893 24.7483C159.798 24.6964 159.697 24.6545 159.593 24.6232C159.643 24.3487 159.418 23.8987 158.768 23.9482C158.697 23.8242 158.603 23.7142 158.493 23.6233C158.491 23.4622 158.452 23.3036 158.378 23.1602C158.304 23.0169 158.198 22.8929 158.068 22.798C158.106 22.5685 158.077 22.3327 157.983 22.1199C157.888 21.907 157.734 21.7263 157.539 21.6001C157.414 21.4197 157.252 21.2683 157.063 21.1561C156.875 21.0439 156.664 20.9735 156.446 20.9498C156.228 20.9261 156.007 20.9495 155.799 21.0185C155.591 21.0876 155.4 21.2006 155.239 21.3499C155.044 21.1101 154.785 20.9317 154.491 20.8361C154.197 20.7405 153.882 20.7317 153.584 20.8109C153.285 20.8901 153.016 21.0539 152.808 21.2825C152.601 21.5111 152.463 21.7949 152.413 22.0996C152.232 21.9889 152.026 21.9245 151.814 21.9122C151.602 21.8999 151.391 21.94 151.198 22.0289C151.005 22.1179 150.837 22.253 150.709 22.4223C150.581 22.5916 150.496 22.7899 150.463 22.9996C150.377 22.9249 149.143 23.1085 150.063 24.1741C149.864 24.2933 149.693 24.4553 149.565 24.6485C149.436 24.8417 149.351 25.0612 149.318 25.2911C149.284 25.5209 149.302 25.7554 149.371 25.9773C149.439 26.1993 149.556 26.4033 149.713 26.5744C149.409 26.6708 149.133 26.8413 148.911 27.0706C148.688 27.2999 148.527 27.5809 148.44 27.8882C148.353 28.1955 148.344 28.5196 148.413 28.8313C148.483 29.143 148.628 29.4326 148.837 29.674ZM154.489 29.9242C152.117 29.4562 152.338 26.1235 152.389 25.9993C152.922 25.8998 153.424 25.6758 153.854 25.3455C154.284 25.0152 154.63 24.5879 154.864 24.0985C155.091 24.5851 155.456 24.994 155.914 25.2741C156.373 25.5542 156.903 25.6931 157.44 25.6735C157.395 26.1305 157.378 26.5897 157.389 27.0487C157.389 27.0991 156.442 30.3094 154.489 29.9242Z" fill="#3B3839"/>
<path d="M30.4442 97.0092C33.7949 99.1854 37.1456 101.385 40.3964 103.685C40.4941 103.743 40.6052 103.774 40.7186 103.775C40.832 103.776 40.9437 103.747 41.0425 103.692C41.1413 103.636 41.2236 103.555 41.2813 103.458C41.339 103.36 41.37 103.249 41.3711 103.135C41.1713 101.21 40.9463 99.3096 40.7465 97.3845C44.3717 98.3349 48.9725 98.5599 50.2478 94.1598C50.8724 91.9593 50.723 89.4087 50.723 87.1587C50.7473 84.3075 50.7725 81.4077 50.5223 78.5565C50.5223 78.3842 50.4539 78.2189 50.332 78.097C50.2101 77.9752 50.0449 77.9067 49.8725 77.9067C49.7002 77.9067 49.5349 77.9752 49.413 78.097C49.2912 78.2189 49.2227 78.3842 49.2227 78.5565C49.1228 82.8576 49.4927 87.1335 49.2227 91.4337C49.0976 93.5343 48.6728 95.5845 46.4471 96.3837C44.3969 97.1091 42.146 96.4332 40.1471 95.8338C40.0473 95.8078 39.9429 95.8049 39.8418 95.8253C39.7407 95.8457 39.6455 95.8888 39.5635 95.9515C39.4816 96.0141 39.415 96.0945 39.3687 96.1867C39.3225 96.2789 39.2978 96.3805 39.2966 96.4836L39.8969 101.81C37.1465 99.9342 31.4459 95.8338 30.9959 95.8833C27.4454 96.2838 13.4459 97.1838 10.0673 96.9336C8.74252 96.8337 7.14232 96.5583 6.34222 95.3586C5.39092 93.9339 5.61592 72.36 5.74102 68.7807C5.79052 67.2804 5.79052 65.43 7.01632 64.3293C8.21602 63.2547 9.99172 63.2799 11.492 63.2547C17.918 63.1548 45.2222 62.0298 46.7972 62.5293C48.797 63.1548 48.9725 77.355 49.022 79.0803C49.0472 79.7301 50.1227 79.9551 50.2478 79.2549C50.6474 76.6296 50.048 61.929 47.0717 61.3044C45.0215 60.8598 44.9351 61.3395 12.9671 61.9542C10.3166 62.0046 6.84082 61.8543 5.34052 64.5543C4.78518 65.7952 4.52016 67.1465 4.56562 68.5053C4.46572 70.7058 4.46572 91.2087 4.66552 93.1842C4.93552 96.1722 6.25942 97.7967 10.0916 98.01C12.2921 98.1603 25.8938 97.5348 30.4442 97.0092Z" fill="#3B3839"/>
<path d="M34.8441 86.3829C34.5778 88.5315 34.7651 90.712 35.394 92.7837C35.4285 92.8997 35.503 92.9997 35.6042 93.066C35.7055 93.1322 35.827 93.1604 35.947 93.1455C36.0671 93.1306 36.178 93.0736 36.26 92.9846C36.342 92.8956 36.3898 92.7804 36.3948 92.6595C36.3645 91.6097 36.2474 90.5643 36.0447 89.5338C35.9196 88.4835 35.8647 87.4332 35.7441 86.3838C35.7442 86.2645 35.697 86.1499 35.6126 86.0655C35.5283 85.981 35.4139 85.9335 35.2946 85.9333C35.1752 85.9332 35.0607 85.9805 34.9763 86.0648C34.8918 86.1491 34.8442 86.2636 34.8441 86.3829Z" fill="#3B3839"/>
<path d="M38.0194 84.3832C39.7447 87.211 39.1894 89.254 39.3955 90.9586C39.445 91.3591 40.0705 91.684 40.2955 91.2088C41.8129 87.7465 39.0355 81.6688 34.4689 80.0074C34.4689 79.8823 33.5446 78.832 33.244 78.3316C33.2051 78.2673 33.1523 78.2127 33.0893 78.1717C33.0264 78.1308 32.9551 78.1045 32.8806 78.0949C32.8062 78.0853 32.7305 78.0926 32.6593 78.1163C32.588 78.14 32.523 78.1794 32.4691 78.2317C31.9939 78.7069 30.1435 79.5817 30.2938 79.9318C30.5765 80.7316 30.9364 81.5021 31.3684 82.2322C31.4177 82.3064 31.4845 82.3673 31.5631 82.4095C31.6416 82.4516 31.7293 82.4737 31.8184 82.4737C31.9075 82.4737 31.9953 82.4516 32.0738 82.4095C32.1523 82.3673 32.2192 82.3064 32.2684 82.2322C32.7102 81.6445 33.2417 81.13 33.8434 80.7076C35.5335 81.5456 36.9736 82.8132 38.0194 84.3832ZM31.9192 81.082L31.3936 80.182C31.867 79.9609 32.3121 79.6839 32.7193 79.3567C32.8687 79.5574 33.019 79.7572 33.1945 79.957C32.7344 80.2903 32.3073 80.667 31.9192 81.082Z" fill="#3B3839"/>
<path d="M28.0938 82.4328C28.5978 81.8361 28.9938 81.1818 29.4438 80.532C29.5125 80.4157 29.5327 80.2771 29.5 80.1461C29.4674 80.015 29.3844 79.9021 29.2692 79.8318C28.794 79.5069 28.2936 79.2315 27.8184 78.9318C27.5146 78.6818 27.1544 78.51 26.769 78.4314C25.8897 78.4314 25.8996 79.2846 25.4937 79.4322C25.4519 79.4459 25.4134 79.468 25.3805 79.4971C25.3476 79.5262 25.3209 79.5617 25.3021 79.6015C25.2834 79.6412 25.2729 79.6844 25.2713 79.7283C25.2697 79.7722 25.2771 79.816 25.293 79.857C24.5181 79.8318 22.1925 81.5076 21.4176 83.1573C20.674 82.2511 20.2902 81.1028 20.3394 79.9317C20.4636 80.0325 20.5887 80.1567 20.739 80.2575C22.6893 81.4572 24.24 79.9074 24.069 78.9822C23.8188 77.7321 22.1187 76.9815 21.7191 78.6573C20.9698 77.9662 20.3955 77.107 20.0433 76.1505C19.6911 75.194 19.5711 74.1675 19.6932 73.1556C19.6932 73.1808 20.5437 73.5813 20.919 72.4806C21.0559 72.2222 21.098 71.9239 21.0377 71.6377C20.9775 71.3516 20.8189 71.0955 20.5894 70.9142C20.36 70.7329 20.0742 70.6378 19.7819 70.6454C19.4895 70.6531 19.2091 70.7629 18.9894 70.956C18.1893 71.4807 18.2397 75.2067 18.39 76.1067C18.3144 76.1319 14.4894 82.2573 17.3892 86.2083C17.8764 86.8997 18.5453 87.4431 19.322 87.7784C20.0986 88.1136 20.9528 88.2278 21.7902 88.1082C21.7354 89.979 21.819 91.8513 22.0404 93.7098C22.1151 94.3839 23.115 94.4343 23.115 93.7098C23.1437 91.7183 23.0101 89.7278 22.7154 87.7581C23.1834 87.5066 23.5989 87.1678 23.9394 86.76C24.24 86.3595 23.7144 85.8096 23.3895 86.2101C22.9718 86.6476 22.4701 86.9962 21.9144 87.2352C20.1144 87.7599 18.1137 86.1849 17.5638 84.2346C16.8636 81.7344 18.0138 79.5087 18.6888 77.3046C18.9326 77.9842 19.2601 78.6308 19.6635 79.2297C19.3301 80.3076 19.3477 81.4636 19.7139 82.5309C19.9641 83.2059 20.4636 84.456 21.3393 84.4812C22.1889 84.5064 22.6146 83.6811 22.9143 83.0556C23.4894 81.8307 25.7151 80.5554 25.7403 80.4555C26.3181 80.8821 27.7959 82.7847 28.0938 82.4328ZM26.4189 79.8066C26.5188 79.6572 26.6187 79.4322 26.6889 79.407C26.8509 79.3467 27.0597 79.5708 28.2891 80.4321L27.9147 81.1071C27.4631 80.6222 26.9617 80.1863 26.4189 79.8066Z" fill="#3B3839"/>
<path d="M29.3935 81.9072C29.2936 81.5823 28.6933 81.4077 28.6681 81.8073C28.6655 81.9547 28.6942 82.1009 28.7525 82.2362C28.8107 82.3716 28.8971 82.493 29.0059 82.5923C29.1148 82.6917 29.2435 82.7668 29.3836 82.8125C29.5236 82.8582 29.6719 82.8736 29.8183 82.8576C29.9811 82.8499 30.1396 82.8034 30.2807 82.722C30.4218 82.6406 30.5414 82.5266 30.6295 82.3895C30.7176 82.2525 30.7716 82.0963 30.7871 81.9342C30.8025 81.772 30.7789 81.6084 30.7183 81.4572C30.6792 81.3903 30.6205 81.3369 30.55 81.3044C30.4796 81.2719 30.4009 81.2618 30.3246 81.2754C30.2482 81.2891 30.1779 81.3258 30.1231 81.3807C30.0683 81.4356 30.0317 81.506 30.0181 81.5823C29.9686 82.0575 29.7184 82.5075 29.3935 81.9072Z" fill="#3B3839"/>
<path d="M29.7439 93.0843C30.0886 93.4632 30.319 93.0339 30.544 92.6595C31.0375 92.089 31.4574 91.4589 31.7941 90.7839C32.0407 90.0009 31.5943 89.0802 30.6691 83.4579C30.6334 83.3455 30.5574 83.2502 30.4558 83.1903C30.3542 83.1304 30.234 83.11 30.1183 83.133C29.608 83.2347 28.9204 83.1186 28.8682 83.4579C28.4182 85.4379 28.1185 87.4584 27.7684 89.4582C27.5614 90.5634 27.2518 90.3483 29.7439 93.0843ZM28.9186 88.1343C29.1526 86.7105 29.2687 85.284 29.4433 83.8332C29.6676 83.8584 29.8941 83.8584 30.1183 83.8332C30.6187 83.9088 30.9184 89.1594 30.994 89.7345C31.1434 90.8145 30.0436 92.1645 29.9932 92.2347C29.6291 91.7646 29.2952 91.2719 28.9933 90.7596C28.4434 90.009 28.7746 89.01 28.9186 88.1334V88.1343Z" fill="#3B3839"/>
<path d="M31.6454 68.9806C31.2944 68.7903 30.8919 68.7167 30.4962 68.7706C30.1005 68.8245 29.7323 69.003 29.4449 69.2803C29.0457 69.0311 28.5827 68.9033 28.1122 68.9122C27.6417 68.9212 27.1839 69.0665 26.7944 69.3307C24.8441 70.8058 26.0195 74.1817 26.1446 74.4562C26.5442 76.6315 27.7196 78.8824 30.245 78.5566C32.621 78.2569 33.3707 75.2068 33.2204 72.8065C33.3203 70.0309 32.4203 69.4063 31.6454 68.9806ZM29.7455 74.4562C29.2963 74.4384 28.8493 74.527 28.4408 74.7146C28.0323 74.9023 27.6739 75.1838 27.3947 75.5362C27.175 74.9282 27.0158 74.2999 26.9195 73.6606C27.3587 72.532 28.9229 72.1873 29.4953 71.1856C30.3449 71.8354 32.1458 71.9056 32.1701 73.1602C32.2778 73.911 32.2355 74.6758 32.0459 75.4102C32.0207 75.3562 31.5203 74.6101 29.7455 74.4562Z" fill="#3B3839"/>
</svg>
