<svg width="148" height="44" viewBox="0 0 148 44" fill="none" xmlns="http://www.w3.org/2000/svg">
<path d="M12.7861 0.00266064C12.0038 -0.00515922 11.2389 0.00396398 10.9451 0.0339403L10.88 2.97379C9.38792 3.27486 8.06805 3.83485 6.95297 4.60946L3.85982 2.95294C3.00594 3.69757 2.27962 4.56428 1.69475 5.53351L3.77218 8.47293C3.27148 9.60855 2.97513 10.8754 2.90875 12.2378L0 12.6214C0.0551031 13.9577 0.286796 15.3592 0.711134 16.8055L4.00777 18.3364C4.49199 19.5624 5.11591 20.7458 5.85481 21.8667L4.47246 24.1241C5.532 25.5229 6.74167 26.8237 8.06328 27.9966L11.0163 27.3576C11.9509 28.0692 12.9366 28.707 13.9571 29.2578L14.7841 32.3806C16.399 33.1109 18.0682 33.6574 19.7508 33.9884L20.9539 31.4987C21.206 31.5252 21.8343 31.543 22.4413 31.5491C23.0032 31.5547 23.5464 31.5495 23.7572 31.5317L26.4781 34.0666C27.972 33.7734 29.3218 33.2625 30.5054 32.5656L29.4702 29.5102C28.2818 29.9812 26.9229 30.2305 25.4225 30.2158C18.4548 30.1476 11.0805 24.4056 8.95187 17.3907C6.82324 10.3758 10.7464 4.74413 17.7141 4.81234C20.97 4.84449 24.3144 6.11479 27.171 8.17577L27.4231 5.8185C26.2482 4.83146 24.9934 3.9439 23.6835 3.17537L21.5727 4.77324C19.9781 3.96736 18.3077 3.37304 16.6216 3.03722L14.7759 0.0760809C14.4401 0.036547 13.6035 0.0104805 12.7861 0.00266064Z" fill="#51AEE5"/>
<path d="M26.0896 10.1334L24.909 12.5532C24.1306 12.4298 23.37 12.3655 22.6316 12.3586C21.779 12.3503 20.9568 12.4172 20.1727 12.5562L17.5621 10.1143C16.388 10.4379 15.3007 10.9067 14.3223 11.5088L15.1818 14.0651C16.4904 13.476 17.9986 13.1705 19.6347 13.1862C21.0791 13.2005 22.6237 13.466 24.2161 14.0086C31.4815 16.4866 37.0061 23.8082 36.5549 30.3613C36.2025 35.4786 32.3119 38.6144 27.1639 38.564C25.7191 38.5496 24.1744 38.2842 22.5817 37.7411C21.0175 37.2081 19.5336 36.4496 18.1734 35.5233L17.8632 38.3385C19.2768 39.4993 20.8171 40.5272 22.4524 41.3804L24.6552 39.7257C25.1233 39.9259 27.0836 40.5924 27.577 40.7166L29.4643 43.759C30.4098 43.9115 31.3335 43.9901 32.229 43.9992C32.9202 44.0058 33.5945 43.971 34.2492 43.8958L34.3234 40.9343C35.2506 40.7314 36.1197 40.426 36.9171 40.0241L40.1652 41.7723C41.2499 41.0298 42.1858 40.1127 42.9394 39.0379L40.9236 36.1732C41.4126 35.2722 41.7658 34.2635 41.9615 33.1587L45.0203 32.7642C45.098 31.4083 44.9865 30.0281 44.7053 28.6514L41.5684 27.1869C41.1544 25.7376 40.5244 24.3057 39.714 22.9354L41.1419 20.6225C40.2854 19.3956 39.3074 18.2244 38.2266 17.1331L35.4124 17.7335C34.0509 16.5162 32.5297 15.4479 30.894 14.5877L30.0826 11.4906C29.4387 11.2069 26.7569 10.2937 26.0896 10.1334Z" fill="#68B408"/>
<path fill-rule="evenodd" clip-rule="evenodd" d="M72.4526 15.0389C72.4526 15.4864 72.2288 15.7097 71.781 15.7097H68.0774C67.7728 15.7097 67.5671 15.7949 67.4595 15.9652C67.3519 16.1355 67.3606 16.3553 67.4855 16.6238C68.0049 17.6282 68.6492 18.5383 69.4189 19.3538C70.1882 20.1684 71.1011 20.8357 72.1576 21.3557C72.8019 21.678 72.8822 22.0899 72.3988 22.5912C72.1303 22.9145 71.8617 23.2637 71.5935 23.6391C71.325 24.0153 71.0833 24.3833 70.8681 24.7426C70.7614 24.9033 70.6273 25.0106 70.4655 25.0641C70.3045 25.1184 70.1344 25.1006 69.9552 25.0102C68.864 24.4007 67.9112 23.6617 67.0968 22.7928C66.282 21.9239 65.5799 20.9434 64.9899 19.8508C64.5421 18.9902 64.0856 18.9902 63.6205 19.8508C63.1007 20.8357 62.4386 21.7671 61.6333 22.6451C60.828 23.5231 59.844 24.3294 58.6812 25.0641C58.341 25.2609 58.0364 25.1983 57.7683 24.8764C57.5713 24.6248 57.3431 24.3516 57.0828 24.0562C56.8233 23.7607 56.5691 23.487 56.3191 23.2359C55.818 22.7528 55.8627 22.341 56.4528 22.0004C57.7414 21.2662 58.7528 20.4329 59.4865 19.5015C60.2197 18.5692 60.7747 17.583 61.1509 16.5438C61.2398 16.2927 61.2259 16.0911 61.1092 15.9391C60.9934 15.7862 60.8011 15.7097 60.533 15.7097H57.4993C57.0524 15.7097 56.8294 15.4864 56.8294 15.0389V12.8615C56.8294 12.4132 57.0524 12.189 57.4993 12.189H61.3123C61.7414 12.189 61.9561 11.9831 61.9561 11.5704C61.9735 11.3562 61.9822 11.1459 61.9822 10.9396V10.307V8.82992C61.9822 8.38158 61.7587 8.15741 61.3123 8.15741H58.8686C58.5827 8.15741 58.3814 8.24256 58.2647 8.41286C58.1488 8.58316 58.1354 8.80299 58.2248 9.07147L58.44 9.71618C58.5649 10.0928 58.4486 10.3618 58.0911 10.5225L56.7218 11.1411C56.4892 11.2489 56.2831 11.2537 56.1039 11.155C55.9243 11.0569 55.7989 10.8818 55.7273 10.6302C55.71 10.5772 55.6917 10.5238 55.6735 10.4704L55.6215 10.307V10.2531C55.5139 9.89517 55.424 9.72965 55.3524 9.75615C55.2804 9.78308 55.2448 9.97598 55.2448 10.3348V24.5532C55.2448 25.0015 55.021 25.2257 54.5732 25.2257H52.2389C51.7911 25.2257 51.5673 25.0015 51.5673 24.5532V12.3506C51.5673 11.8849 51.5399 11.6477 51.4857 11.6381C51.4323 11.629 51.3612 11.8571 51.2722 12.3228C51.2536 12.4666 51.2262 12.6056 51.1906 12.7399C51.1546 12.8746 51.1186 13.0136 51.083 13.1569C51.0297 13.3724 50.9225 13.521 50.762 13.6018C50.601 13.6817 50.4218 13.6861 50.224 13.614L48.8286 13.077C48.4164 12.9336 48.2736 12.6556 48.3999 12.2429C48.6138 11.4726 48.8013 10.5946 48.9622 9.60844C49.1241 8.6227 49.2495 7.69126 49.3388 6.81412C49.3571 6.61602 49.4378 6.45919 49.5801 6.34319C49.7233 6.22633 49.8933 6.18592 50.0903 6.22155L50.8158 6.30322C51.3165 6.35666 51.5673 6.13249 51.5673 5.63071V1.65298C51.5673 1.20464 51.7911 0.980469 52.2389 0.980469H54.5732C55.021 0.980469 55.2448 1.20464 55.2448 1.65298V5.09374C55.2448 5.3266 55.316 5.47909 55.4583 5.55077C55.6015 5.62159 55.7811 5.61246 55.9963 5.52297C56.1755 5.45129 56.3543 5.4426 56.5326 5.4969C56.7118 5.55034 56.8372 5.66677 56.9092 5.84619C56.9622 5.97131 57.0203 6.10121 57.0828 6.23545C57.1461 6.37013 57.2047 6.50915 57.2581 6.65251C57.4546 7.08261 57.6069 7.28419 57.7145 7.25725C57.8221 7.23075 57.8759 6.99311 57.8759 6.54477V5.38916C57.8759 4.94082 58.0998 4.71665 58.5476 4.71665H61.3123C61.7587 4.71665 61.9822 4.49248 61.9822 4.04414V1.65298C61.9822 1.20464 62.2061 0.980469 62.6538 0.980469H65.0437C65.4914 0.980469 65.7153 1.20464 65.7153 1.65298V4.04414C65.7153 4.49248 65.9383 4.71665 66.3852 4.71665H70.4932C70.941 4.71665 71.1649 4.94082 71.1649 5.38916V11.5443C71.1649 11.7242 71.2274 11.8762 71.3523 12.0013C71.4773 12.1265 71.6291 12.189 71.8088 12.189C72.0053 12.189 72.1615 12.2477 72.2773 12.3645C72.3941 12.4805 72.4526 12.6369 72.4526 12.8337V15.0389ZM66.1179 8.15741C65.8494 8.15741 65.7153 8.29209 65.7153 8.56057V10.3348C65.7153 10.5677 65.7105 10.8053 65.7014 11.0473C65.6919 11.2897 65.6875 11.5269 65.6875 11.7598C65.6515 12.0461 65.7856 12.189 66.0902 12.189H67.1645C67.4326 12.189 67.5671 12.0548 67.5671 11.7859V8.56057C67.5671 8.29209 67.4326 8.15741 67.1645 8.15741H66.1179ZM116.531 20.6032C116.531 21.0507 116.754 21.274 117.202 21.274H117.443C117.891 21.274 118.115 21.4982 118.115 21.9465V23.9363C118.115 24.3833 117.891 24.607 117.443 24.607H103.752C103.304 24.607 103.08 24.3833 103.08 23.9363V22.1081C103.08 21.9113 103.026 21.7771 102.919 21.705C102.812 21.6333 102.678 21.6242 102.518 21.6772C102.338 21.7493 102.182 21.7493 102.048 21.6772C101.913 21.6055 101.828 21.4804 101.792 21.3018C101.72 20.8895 101.613 20.459 101.47 20.0107C101.309 19.4559 101.175 19.1917 101.067 19.2182C100.96 19.2452 100.907 19.5449 100.907 20.1184V24.5532C100.907 25.0015 100.683 25.2257 100.236 25.2257H98.3023C97.8545 25.2257 97.6307 25.0015 97.6307 24.5532V20.4677C97.6307 19.518 97.5994 19.0427 97.5369 19.0427C97.4745 19.0427 97.3447 19.4998 97.1482 20.4138C96.9872 21.2749 96.7811 22.0456 96.5303 22.7268C96.4583 22.941 96.3329 23.0795 96.1537 23.1421C95.9754 23.2047 95.788 23.1825 95.5914 23.0761C95.3588 22.9496 95.1167 22.8284 94.866 22.7129C94.616 22.596 94.3748 22.4844 94.1422 22.3775C93.7301 22.1981 93.596 21.8935 93.7396 21.4634C93.9535 20.8357 94.1323 20.1323 94.2759 19.3538C94.4191 18.5744 94.5267 17.7807 94.5987 16.9731C94.616 16.7402 94.6963 16.5708 94.8399 16.4639C94.9831 16.3562 95.1714 16.3205 95.404 16.3562L96.8531 16.6238C97.0857 16.6598 97.2731 16.6151 97.4155 16.49C97.5586 16.3648 97.6307 16.1859 97.6307 15.953V15.7914C97.6307 15.5759 97.5634 15.4056 97.4293 15.2805C97.2948 15.1554 97.1208 15.1015 96.9069 15.1189L94.6785 15.2805C94.4989 15.2979 94.3423 15.2488 94.2082 15.1328C94.0737 15.0159 93.9982 14.8682 93.9808 14.6896L93.7934 12.8337C93.7574 12.3867 93.9722 12.1451 94.4373 12.1091L95.43 12.0552C95.6452 12.0552 95.8153 11.9748 95.9403 11.8137L96.3689 11.2211C96.5668 10.9708 96.5668 10.7202 96.3689 10.4686C96.0656 10.039 95.7168 9.59106 95.3224 9.12534C94.9289 8.65962 94.5353 8.22953 94.1422 7.83419C93.8737 7.5657 93.8463 7.27897 94.0607 6.974L95.2686 5.11981C95.3944 4.92301 95.538 4.90519 95.699 5.06594H95.7528C95.8057 5.13805 95.8682 5.16065 95.9403 5.13371C96.0118 5.10721 96.0656 5.05812 96.1017 4.986C96.3516 4.4486 96.5841 3.89295 96.7993 3.31949C97.0145 2.74603 97.2111 2.1995 97.3894 1.67905C97.5326 1.2307 97.8285 1.07865 98.2763 1.22202L100.128 1.86672C100.361 1.93884 100.508 2.05961 100.571 2.22992C100.633 2.40022 100.611 2.59311 100.505 2.80859C100.11 3.54323 99.7159 4.27352 99.3228 4.9999C98.9293 5.72542 98.5531 6.38316 98.1947 6.974C98.0524 7.22554 98.0702 7.46752 98.2485 7.70038C98.4277 7.91586 98.5891 7.89805 98.7327 7.64651C99.0369 7.14517 99.3271 6.63861 99.604 6.12771C99.8816 5.61681 100.137 5.13805 100.369 4.69058C100.549 4.31436 100.835 4.19706 101.228 4.33955L103 5.06594C103.233 5.13805 103.376 5.26839 103.429 5.45693C103.483 5.64461 103.439 5.83707 103.295 6.03387C102.955 6.55433 102.602 7.08782 102.235 7.63434C101.868 8.18 101.497 8.72175 101.121 9.25915C100.888 9.56413 100.812 9.76136 100.892 9.85172C100.972 9.94122 101.183 9.91385 101.523 9.77005L102.169 9.5007C102.508 9.3582 102.785 9.44813 103 9.77005C103.393 10.4873 103.761 11.2445 104.101 12.0413C104.441 12.8385 104.7 13.5688 104.88 14.2326C104.969 14.555 104.844 14.7965 104.503 14.9573L102.785 15.7375C102.428 15.8987 102.186 15.7731 102.061 15.3604L102.034 15.2266C101.944 14.9221 101.739 14.7696 101.416 14.7696C101.077 14.8056 100.907 14.9938 100.907 15.3344V15.8453C100.907 16.1315 100.988 16.3331 101.149 16.45C101.309 16.566 101.524 16.5795 101.792 16.49L102.598 16.2206C102.777 16.1676 102.942 16.1767 103.094 16.2484C103.247 16.3205 103.359 16.4456 103.431 16.6238C103.663 17.2159 103.886 17.8346 104.101 18.4797C104.316 19.124 104.495 19.7239 104.639 20.28C104.728 20.6567 104.594 20.9169 104.236 21.0603C103.86 21.2028 103.86 21.274 104.236 21.274H104.557C105.005 21.274 105.229 21.0507 105.229 20.6032V2.83466C105.229 2.38762 105.453 2.16388 105.9 2.16388H115.859C116.307 2.16388 116.531 2.38762 116.531 2.83466V20.6032ZM112.799 5.90006C112.799 5.63158 112.665 5.4969 112.397 5.4969H109.201C108.933 5.4969 108.799 5.63158 108.799 5.90006V7.9958C108.799 8.26472 108.933 8.39896 109.201 8.39896H112.397C112.665 8.39896 112.799 8.26472 112.799 7.9958V5.90006ZM99.6178 11.2211C99.2777 11.6868 99.394 11.9023 99.9667 11.8675H100.262C100.637 11.8319 100.754 11.652 100.611 11.3288C100.593 11.276 100.575 11.2227 100.557 11.1694L100.557 11.1693L100.557 11.1692L100.557 11.1692L100.557 11.1691L100.557 11.169L100.557 11.1689C100.539 11.1146 100.513 11.0695 100.477 11.0334C100.405 10.854 100.307 10.7601 100.182 10.7519C100.057 10.7428 99.9311 10.8188 99.8053 10.9795L99.6178 11.2211ZM112.397 14.7696C112.665 14.7696 112.799 14.6353 112.799 14.3664V12.1351C112.799 11.8667 112.665 11.732 112.397 11.732H109.201C108.933 11.732 108.799 11.8667 108.799 12.1351V14.3664C108.799 14.6353 108.933 14.7696 109.201 14.7696H112.397ZM109.201 18.0765C108.933 18.0765 108.799 18.2112 108.799 18.4797V20.8709C108.799 21.1398 108.933 21.274 109.201 21.274H112.397C112.665 21.274 112.799 21.1398 112.799 20.8709V18.4797C112.799 18.2112 112.665 18.0765 112.397 18.0765H109.201ZM142.901 9.27306C142.714 9.28261 142.548 9.36776 142.405 9.52851L141.546 10.4426C141.313 10.6754 141.094 10.7606 140.888 10.698C140.682 10.6355 140.543 10.4426 140.472 10.1193C140.418 9.90386 140.369 9.68925 140.324 9.47464C140.28 9.25915 140.231 9.03498 140.177 8.80212C140.141 8.56926 140.185 8.38159 140.31 8.23909C140.436 8.09573 140.616 8.02361 140.848 8.02361H143.936C144.382 8.02361 144.606 7.79944 144.606 7.3511V5.52297C144.606 5.07463 144.382 4.85046 143.936 4.85046H142.995C142.655 4.85046 142.426 4.75662 142.31 4.56894C142.194 4.38127 142.217 4.13537 142.379 3.8304C142.468 3.65097 142.562 3.47198 142.66 3.29343C142.758 3.11401 142.852 2.92502 142.941 2.72692C143.049 2.51274 143.067 2.32028 142.995 2.14998C142.924 1.97968 142.763 1.85891 142.513 1.78679L140.446 1.22202C140.033 1.11428 139.756 1.26677 139.613 1.67905C139.47 2.14477 139.292 2.63308 139.076 3.14398C138.861 3.65488 138.655 4.11669 138.458 4.52898C138.386 4.65409 138.432 4.7349 138.594 4.77052L138.566 4.85046H135.614V4.77052C135.739 4.71752 135.783 4.62759 135.748 4.50117V4.4473C135.623 4.03632 135.439 3.5706 135.197 3.05014C134.955 2.53012 134.682 2.03703 134.378 1.57131C134.199 1.26677 133.948 1.17771 133.627 1.3037L131.909 1.89453C131.425 2.07439 131.3 2.39675 131.534 2.86247L132.042 3.9642C132.15 4.23312 132.15 4.44817 132.042 4.60891C131.935 4.77009 131.73 4.85046 131.426 4.85046H130.459C130.012 4.85046 129.788 5.07463 129.788 5.52297V7.3511C129.788 7.79944 130.012 8.02361 130.459 8.02361H131.64C132.195 8.02361 132.508 8.127 132.58 8.33293C132.652 8.53798 132.454 8.793 131.988 9.09754C131.614 9.34908 131.225 9.58238 130.822 9.79786C130.42 10.0125 130.012 10.218 129.6 10.4148C128.973 10.7024 128.884 11.0968 129.331 11.5982C129.528 11.8128 129.716 12.0409 129.895 12.2829C130.075 12.5253 130.236 12.7447 130.378 12.9415C130.61 13.2647 130.906 13.3368 131.265 13.1569C131.569 12.9775 131.882 12.7938 132.204 12.6061C132.526 12.4175 132.84 12.216 133.144 12.0013C133.358 11.858 133.555 11.8758 133.734 12.0552V12.1091C133.895 12.3063 133.877 12.4766 133.681 12.62C133.233 12.9606 132.749 13.3012 132.23 13.6418C131.711 13.9815 131.193 14.3034 130.675 14.608C130.406 14.7518 130.182 14.7696 130.003 14.6618C129.823 14.5541 129.716 14.3482 129.68 14.0432C129.608 13.5245 129.465 12.9875 129.25 12.4323C129.035 11.8762 128.723 11.2936 128.311 10.6841C128.186 10.5047 128.15 10.2896 128.205 10.0394C128.508 9.14272 128.816 8.13482 129.13 7.01571L130.029 3.80259C130.119 3.46199 130.012 3.20263 129.708 3.02408L127.99 2.08221C127.829 1.99315 127.667 1.96665 127.506 2.00227L127.346 2.05615H127.292L127.184 2.08221H122.433C121.985 2.08221 121.761 2.30638 121.761 2.75472V24.581C121.761 25.0293 121.985 25.2535 122.433 25.2535H124.284C124.732 25.2535 124.956 25.0293 124.956 24.581V18.398C124.956 18.04 124.987 17.8567 125.05 17.8472C125.112 17.838 125.179 18.0131 125.251 18.372L125.331 18.8829C125.385 19.313 125.618 19.5276 126.03 19.5276C126.208 19.5093 126.383 19.4998 126.553 19.4998C126.723 19.4998 126.87 19.4911 126.995 19.4737C127.604 19.366 128.114 19.1692 128.526 18.8829C128.991 18.5596 129.313 18.0935 129.493 17.484C129.653 16.9466 129.886 16.8931 130.19 17.3241L130.324 17.5118C130.432 17.6729 130.57 17.7759 130.741 17.8211C130.911 17.8654 131.076 17.8428 131.237 17.7533C131.864 17.3771 132.513 16.947 133.184 16.4639C133.855 15.9799 134.495 15.4868 135.104 14.9851C135.282 14.8417 135.416 14.8682 135.506 15.065C135.595 15.2979 135.559 15.5042 135.399 15.6836C134.593 16.5621 133.613 17.4088 132.459 18.2243C131.304 19.0388 130.137 19.7061 128.956 20.2261C128.293 20.5311 128.212 20.9521 128.713 21.4895C128.911 21.6867 129.099 21.8927 129.278 22.1081C129.457 22.3228 129.618 22.5287 129.762 22.7268C129.851 22.8693 129.976 22.9631 130.137 23.0083C130.297 23.0535 130.449 23.04 130.593 22.9683C130.969 22.7715 131.363 22.5474 131.775 22.2958C131.953 22.1881 132.132 22.1525 132.311 22.1881C132.49 22.2241 132.616 22.3406 132.688 22.5374C132.83 22.878 132.937 23.2225 133.009 23.5713C133.081 23.9211 133.134 24.2577 133.17 24.581C133.206 24.9746 133.412 25.1896 133.788 25.2257C134.021 25.2257 134.24 25.23 134.446 25.2396C134.652 25.2487 134.853 25.2439 135.05 25.2257C135.73 25.2083 136.307 25.1097 136.78 24.9303C137.254 24.7504 137.716 24.428 138.163 23.9623C138.844 23.3354 139.309 22.341 139.559 20.9786C139.721 20.1367 139.9 19.6935 140.097 19.6492C140.293 19.604 140.624 19.949 141.09 20.6832C141.286 20.9708 141.487 21.2532 141.694 21.5312C141.899 21.8084 142.11 22.0812 142.325 22.3497C142.503 22.5295 142.691 22.6104 142.888 22.593C143.085 22.5747 143.255 22.467 143.398 22.2698C143.596 22.0013 143.82 21.7276 144.069 21.4495C144.32 21.1715 144.562 20.916 144.795 20.6832C145.171 20.307 145.179 19.9394 144.821 19.5814C144.212 18.9363 143.666 18.1925 143.183 17.3502C142.7 16.5082 142.262 15.6033 141.869 14.6358C141.743 14.3126 141.823 14.0528 142.11 13.8555C142.522 13.551 142.942 13.2282 143.372 12.8876C143.801 12.547 144.24 12.2073 144.687 11.8675C144.866 11.7242 144.96 11.5626 144.968 11.3827C144.978 11.2033 144.902 11.033 144.741 10.8718L143.426 9.5007C143.265 9.33996 143.09 9.26393 142.901 9.27306ZM124.956 5.76452C124.956 5.49604 125.09 5.36136 125.359 5.36136H125.734C126.056 5.36136 126.19 5.52297 126.136 5.8462C125.994 6.61689 125.828 7.43234 125.64 8.29296C125.452 9.15272 125.269 9.92298 125.09 10.6042C125.054 10.7293 125.081 10.8457 125.171 10.9535C125.744 11.6881 126.111 12.4006 126.272 13.0909C126.432 13.7804 126.513 14.3847 126.513 14.9034C126.513 15.6033 126.397 16.0425 126.164 16.2206C126.075 16.2927 125.977 16.3423 125.869 16.3701C125.761 16.397 125.636 16.41 125.492 16.41H125.225C125.045 16.41 124.956 16.3205 124.956 16.1407V5.76452ZM136.178 10.1732C136.016 9.97641 136.016 9.77961 136.178 9.58238L136.581 9.23309C136.759 9.05366 136.91 8.98633 137.035 9.03151C137.161 9.07582 137.242 9.21397 137.278 9.44683L137.52 10.7641C137.609 11.2124 137.609 11.4548 137.52 11.4904C137.43 11.5265 137.234 11.374 136.929 11.0334C136.822 10.89 136.705 10.7423 136.579 10.5903C136.454 10.4374 136.32 10.2983 136.178 10.1732ZM135.036 21.8127C134.849 21.9022 134.629 21.9465 134.378 21.9465C134.217 21.9465 134.061 21.9426 133.908 21.9344C133.756 21.9252 133.6 21.9113 133.439 21.8927C133.171 21.8753 133.023 21.8127 132.995 21.705C132.968 21.5972 133.071 21.463 133.304 21.3018C133.662 21.0333 134.025 20.7557 134.392 20.4694C134.759 20.1823 135.112 19.8951 135.453 19.6075C135.685 19.4107 135.859 19.3395 135.975 19.3938C136.092 19.4472 136.123 19.6171 136.07 19.9029C135.998 20.459 135.837 20.8895 135.586 21.1941C135.569 21.1941 135.56 21.2036 135.56 21.2219C135.56 21.2393 135.551 21.2566 135.532 21.274C135.39 21.5429 135.224 21.7224 135.036 21.8127ZM80.5555 10.7063H83.1436H85.7317V13.2982V15.8896H83.1436H80.5555V13.2982V10.7063ZM54.173 40.8523C54.173 41.0643 54.2788 41.1703 54.4906 41.1703H56.0196C56.2322 41.1703 56.3389 41.0643 56.3389 40.8523V34.2697C56.3389 34.0577 56.4448 33.9517 56.6565 33.9517H58.4528C58.6654 33.9517 58.7721 33.8452 58.7721 33.6319V32.4711C58.7721 32.2591 58.6654 32.1531 58.4528 32.1531H52.0573C51.8456 32.1531 51.7397 32.2591 51.7397 32.4711V33.6319C51.7397 33.8452 51.8456 33.9517 52.0573 33.9517H53.8536C54.0662 33.9517 54.173 34.0577 54.173 34.2697V40.8523ZM63.5114 41.3354C62.8484 41.3354 62.2535 41.1933 61.7272 40.9097C61.2005 40.6247 60.7822 40.2124 60.4725 39.6724C60.1622 39.1315 60.0073 38.4829 60.0073 37.7261C60.0073 36.978 60.1622 36.3337 60.4725 35.7937C60.7822 35.2541 61.1879 34.8375 61.6891 34.5442C62.1898 34.2514 62.7204 34.1046 63.2805 34.1046C63.9435 34.1046 64.4911 34.2514 64.9241 34.5442C65.358 34.8375 65.6829 35.235 65.8995 35.7363C66.1155 36.2381 66.224 36.8033 66.224 37.4324C66.224 37.7048 66.211 37.939 66.1858 38.1345C66.1602 38.2874 66.0665 38.3638 65.9047 38.3638H62.4787C62.3594 38.3638 62.2722 38.3982 62.2167 38.4664C62.162 38.535 62.1559 38.6241 62.1976 38.734C62.3421 39.0746 62.5542 39.3196 62.8345 39.4691C63.1157 39.6176 63.4385 39.6915 63.8029 39.6915C64.2021 39.6915 64.5883 39.5976 64.9623 39.41C65.1658 39.3083 65.3146 39.3552 65.4083 39.5507L65.8283 40.3032C65.9298 40.4735 65.8964 40.6099 65.7276 40.7115C65.3875 40.9157 65.0217 41.0704 64.6308 41.1755C64.2407 41.282 63.8676 41.3354 63.5114 41.3354ZM62.1091 36.7321C62.0661 36.8759 62.1255 36.9476 62.2878 36.9476H64.2108C64.347 36.9476 64.4069 36.8841 64.3895 36.7564C64.3639 36.4588 64.2663 36.2168 64.0962 36.03C63.9262 35.8437 63.6628 35.7502 63.3066 35.7502C63.0436 35.7502 62.802 35.8311 62.5811 35.9918C62.3598 36.153 62.2028 36.3997 62.1091 36.7321ZM68.6307 41.0487C68.9371 41.2398 69.3028 41.3354 69.7276 41.3354C70.0504 41.3354 70.3559 41.2781 70.644 41.1634C70.9329 41.0487 71.205 40.8984 71.4597 40.7115C71.6471 40.5669 71.766 40.6051 71.8172 40.8262L71.8415 40.9288C71.884 41.0899 71.986 41.1703 72.1469 41.1703H73.3444C73.5571 41.1703 73.6638 41.0643 73.6638 40.8523V37.2551C73.6638 36.1743 73.4212 35.3792 72.9366 34.8692C72.4528 34.3596 71.7651 34.1046 70.8731 34.1046C70.3893 34.1046 69.9242 34.175 69.4777 34.3149C69.0321 34.4552 68.6017 34.6359 68.1865 34.857C67.999 34.9591 67.9561 35.0995 68.058 35.2776L68.5162 36.1447C68.6099 36.3406 68.7583 36.3876 68.9622 36.2855C69.2434 36.1326 69.5046 36.0179 69.7467 35.9414C69.9884 35.8649 70.2283 35.8267 70.4669 35.8267C70.7468 35.8267 70.965 35.878 71.1212 35.9796C71.2783 36.0817 71.3872 36.222 71.4475 36.4002C71.4809 36.4849 71.4722 36.5592 71.4215 36.6226C71.3703 36.6865 71.2983 36.7269 71.2045 36.7442C69.9732 36.9054 69.0794 37.1882 68.5231 37.5923C67.9665 37.9967 67.6884 38.5476 67.6884 39.2449C67.6884 39.6272 67.7686 39.976 67.9296 40.291C68.0914 40.6051 68.3253 40.8575 68.6307 41.0487ZM71.0015 39.5386C70.8488 39.6233 70.6704 39.6654 70.4669 39.6654C70.2457 39.6654 70.0669 39.6168 69.9307 39.5194C69.7953 39.4213 69.7276 39.274 69.7276 39.0781C69.7276 38.8487 69.8395 38.6427 70.0643 38.4594C70.2899 38.2765 70.6999 38.1388 71.2948 38.0458C71.438 38.0284 71.51 38.0923 71.51 38.237V39.0398C71.51 39.0911 71.4931 39.1337 71.4597 39.1684C71.3069 39.3296 71.1542 39.453 71.0015 39.5386ZM76.1476 41.1703C75.9359 41.1703 75.83 41.0643 75.83 40.8523V34.5894C75.83 34.3765 75.9359 34.2697 76.1476 34.2697H77.3191C77.5065 34.2697 77.6128 34.3548 77.6384 34.5251L77.6766 34.7041C77.7274 34.9848 77.8632 35.0308 78.0845 34.8431C78.3309 34.6311 78.5982 34.4552 78.8863 34.3149C79.1752 34.175 79.5067 34.1046 79.8807 34.1046C80.2704 34.1046 80.5992 34.1684 80.8665 34.2957C81.1347 34.4235 81.3581 34.6103 81.5364 34.857C81.7143 35.0864 81.9013 35.1073 82.097 34.9196C82.3435 34.6902 82.6151 34.4973 82.9127 34.3409C83.2099 34.1837 83.5453 34.1046 83.9193 34.1046C84.6747 34.1046 85.2218 34.3579 85.5611 34.864C85.9013 35.3692 86.0714 36.0509 86.0714 36.9093V40.8523C86.0714 41.0643 85.9646 41.1703 85.752 41.1703H84.2369C84.0252 41.1703 83.9193 41.0643 83.9193 40.8523V37.1648C83.9193 36.6886 83.8551 36.368 83.7267 36.2021C83.5991 36.0365 83.3995 35.9536 83.1279 35.9536C82.9925 35.9536 82.8372 35.9966 82.6628 36.0822C82.4892 36.1669 82.3092 36.2985 82.123 36.4766C82.0627 36.5357 82.0328 36.6083 82.0328 36.6938V40.8523C82.0328 41.0643 81.9269 41.1703 81.7152 41.1703H80.1862C79.9732 41.1703 79.8668 41.0643 79.8668 40.8523V37.1648C79.8668 36.6886 79.8031 36.368 79.6759 36.2021C79.5484 36.0365 79.3488 35.9536 79.0772 35.9536C78.7635 35.9536 78.4281 36.1282 78.0706 36.4766C78.0116 36.5357 77.9821 36.6083 77.9821 36.6938V40.8523C77.9821 41.0643 77.8762 41.1703 77.6645 41.1703H76.1476ZM92.2688 40.2719C92.884 40.9809 93.7952 41.3354 95.0022 41.3354C96.1985 41.3354 97.0979 40.9809 97.701 40.2719C98.305 39.562 98.6069 38.4455 98.6069 36.9232V32.4711C98.6069 32.2591 98.5002 32.1531 98.2876 32.1531H96.8489C96.6358 32.1531 96.5295 32.2591 96.5295 32.4711V37.1648C96.5295 38.0154 96.3976 38.6132 96.1338 38.9581C95.8709 39.3022 95.4938 39.4743 95.0022 39.4743C94.5094 39.4743 94.1349 39.3022 93.8794 38.9581C93.6247 38.6132 93.4975 38.0154 93.4975 37.1648V32.4711C93.4975 32.2591 93.3917 32.1531 93.1799 32.1531H91.6631C91.4514 32.1531 91.3455 32.2591 91.3455 32.4711V36.9232C91.3455 38.4455 91.6531 39.562 92.2688 40.2719ZM101.218 43.6831C101.006 43.6831 100.901 43.5762 100.901 43.3634V34.5894C100.901 34.3765 101.006 34.2697 101.218 34.2697H102.416C102.576 34.2697 102.678 34.3509 102.721 34.513L102.747 34.6016C102.772 34.7037 102.817 34.7658 102.881 34.7875C102.944 34.8084 103.018 34.7888 103.103 34.7284C103.349 34.5421 103.617 34.3913 103.905 34.2766C104.194 34.1619 104.487 34.1046 104.785 34.1046C105.337 34.1046 105.814 34.2497 106.218 34.539C106.622 34.8275 106.932 35.2337 107.148 35.7572C107.365 36.2798 107.473 36.898 107.473 37.6114C107.473 38.4029 107.335 39.0772 107.058 39.6341C106.783 40.1902 106.424 40.6134 105.982 40.9027C105.541 41.1912 105.075 41.3354 104.582 41.3354C104.165 41.3354 103.77 41.2125 103.396 40.967C103.124 40.7876 103.001 40.8514 103.027 41.1581L103.053 41.7055V43.3634C103.053 43.5762 102.947 43.6831 102.735 43.6831H101.218ZM104.071 39.5768C104.402 39.5768 104.682 39.4282 104.911 39.1302C105.141 38.8326 105.257 38.3391 105.257 37.6496C105.257 36.4601 104.887 35.8649 104.148 35.8649C103.791 35.8649 103.443 36.0396 103.103 36.388C103.069 36.4219 103.053 36.464 103.053 36.5149V39.0781C103.053 39.1467 103.074 39.1936 103.117 39.2188C103.277 39.3544 103.441 39.4482 103.606 39.5003C103.772 39.5516 103.926 39.5768 104.071 39.5768ZM120.48 42.1782C120.437 41.9566 120.297 41.8758 120.059 41.9349C119.855 41.9858 119.63 42.0114 119.384 42.0114C119.095 42.0114 118.798 41.9688 118.491 41.8845C118.186 41.7998 117.923 41.6638 117.702 41.4762C117.617 41.3914 117.589 41.3063 117.618 41.2207C117.648 41.1364 117.719 41.0687 117.83 41.0174C118.586 40.6942 119.18 40.1568 119.613 39.4048C120.047 38.6519 120.263 37.7226 120.263 36.6174C120.263 35.6303 120.089 34.7927 119.741 34.1046C119.393 33.4156 118.911 32.8899 118.295 32.5284C117.68 32.167 116.96 31.9863 116.136 31.9863C115.321 31.9863 114.603 32.167 113.983 32.5284C113.362 32.8899 112.878 33.4156 112.53 34.1046C112.182 34.7927 112.008 35.6303 112.008 36.6174C112.008 37.8503 112.279 38.8621 112.823 39.6532C113.367 40.4435 114.093 40.9618 115.001 41.2085C115.103 41.2337 115.175 41.2937 115.218 41.3875C115.566 42.0674 116.07 42.6266 116.728 43.0645C117.386 43.5024 118.191 43.7213 119.142 43.7213C119.719 43.7213 120.191 43.6536 120.557 43.518C120.692 43.4576 120.747 43.3425 120.722 43.1722L120.48 42.1782ZM114.734 38.7983C114.395 38.2796 114.226 37.5523 114.226 36.6174C114.226 35.7416 114.395 35.0595 114.734 34.5703C115.074 34.0816 115.541 33.837 116.136 33.837C116.73 33.837 117.198 34.0816 117.542 34.5703C117.887 35.0595 118.059 35.7416 118.059 36.6174C118.059 37.5523 117.887 38.2796 117.542 38.7983C117.198 39.3174 116.73 39.5768 116.136 39.5768C115.541 39.5768 115.074 39.3174 114.734 38.7983ZM124.289 41.3354C123.541 41.3354 122.998 41.0847 122.658 40.583C122.318 40.0816 122.149 39.4013 122.149 38.5428V34.5894C122.149 34.3765 122.255 34.2697 122.467 34.2697H123.983C124.195 34.2697 124.301 34.3765 124.301 34.5894V38.2752C124.301 38.7514 124.367 39.0746 124.499 39.2449C124.631 39.4143 124.833 39.4986 125.105 39.4986C125.334 39.4986 125.529 39.4525 125.689 39.3596C125.851 39.2657 126.017 39.1085 126.188 38.8869C126.229 38.8278 126.25 38.7644 126.25 38.6957V34.5894C126.25 34.3765 126.356 34.2697 126.569 34.2697H128.085C128.297 34.2697 128.404 34.3765 128.404 34.5894V40.8523C128.404 41.0643 128.297 41.1703 128.085 41.1703H126.913C126.726 41.1703 126.621 41.0852 126.595 40.9149L126.556 40.6976C126.504 40.4092 126.365 40.367 126.136 40.5708C125.889 40.8097 125.615 40.9965 125.313 41.1321C125.012 41.2676 124.671 41.3354 124.289 41.3354ZM130.633 33.0011C130.862 33.2096 131.159 33.3139 131.525 33.3139C131.881 33.3139 132.174 33.2096 132.403 33.0011C132.632 32.7926 132.747 32.531 132.747 32.2156C132.747 31.8924 132.632 31.6274 132.403 31.4198C132.174 31.2112 131.881 31.107 131.525 31.107C131.159 31.107 130.862 31.2112 130.633 31.4198C130.404 31.6274 130.289 31.8924 130.289 32.2156C130.289 32.531 130.404 32.7926 130.633 33.0011ZM130.442 40.8523C130.442 41.0643 130.548 41.1703 130.76 41.1703H132.277C132.488 41.1703 132.594 41.0643 132.594 40.8523V34.5894C132.594 34.3765 132.488 34.2697 132.277 34.2697H130.76C130.548 34.2697 130.442 34.3765 130.442 34.5894V40.8523ZM137.64 41.3354C136.994 41.3354 136.412 41.1933 135.894 40.9097C135.375 40.6247 134.965 40.2124 134.663 39.6724C134.362 39.1315 134.212 38.4829 134.212 37.7261C134.212 36.9615 134.38 36.3094 134.715 35.7694C135.051 35.2285 135.495 34.8162 136.046 34.5321C136.598 34.2471 137.193 34.1046 137.831 34.1046C138.196 34.1046 138.525 34.1559 138.818 34.2575C139.111 34.3596 139.376 34.4956 139.613 34.6659C139.775 34.784 139.792 34.9244 139.665 35.0864L139.04 35.9414C138.905 36.1108 138.748 36.1404 138.57 36.03C138.365 35.911 138.161 35.851 137.957 35.851C137.482 35.851 137.106 36.0192 136.829 36.355C136.554 36.6912 136.416 37.1483 136.416 37.7261C136.416 38.2961 136.554 38.7492 136.829 39.085C137.106 39.4213 137.456 39.589 137.881 39.589C138.043 39.589 138.198 39.5638 138.346 39.5125C138.495 39.4617 138.638 39.3935 138.773 39.3074C138.986 39.1801 139.147 39.2184 139.257 39.4221L139.78 40.3032C139.873 40.4644 139.848 40.596 139.703 40.6976C139.388 40.9283 139.046 41.0921 138.678 41.1894C138.308 41.2867 137.963 41.3354 137.64 41.3354ZM141.475 40.8523C141.475 41.0643 141.581 41.1703 141.792 41.1703H143.257C143.47 41.1703 143.576 41.0643 143.576 40.8523V39.6011C143.576 39.5168 143.602 39.4491 143.653 39.3978L144.099 38.8869C144.191 38.7931 144.285 38.7487 144.378 38.7531C144.472 38.7579 144.548 38.82 144.607 38.939L145.793 41.0052C145.852 41.1156 145.945 41.1703 146.072 41.1703H147.639C147.817 41.1703 147.93 41.126 147.976 41.0365C148.023 40.9474 148 40.8262 147.907 40.6733L145.741 37.3316C145.656 37.1952 145.665 37.067 145.767 36.9476L147.601 34.7927C147.737 34.632 147.782 34.5043 147.735 34.4104C147.688 34.3166 147.563 34.2697 147.36 34.2697H145.869C145.826 34.2697 145.783 34.281 145.741 34.3027C145.699 34.3235 145.661 34.347 145.626 34.3722L145.602 34.3965L144.161 36.1951C144 36.4084 143.867 36.4957 143.76 36.4575C143.654 36.4193 143.601 36.2681 143.601 36.004L143.576 31.8073C143.576 31.5953 143.47 31.4893 143.257 31.4893H141.792C141.581 31.4893 141.475 31.5953 141.475 31.8073V40.8523Z" fill="#3B3839"/>
</svg>
