<svg width="282" height="210" viewBox="0 0 282 210" fill="none" xmlns="http://www.w3.org/2000/svg">
<g clip-path="url(#clip0_1672_121291)">
<path d="M228.722 123.511C229.909 123.448 231.054 123.056 232.031 122.38C233.008 121.704 233.779 120.769 234.256 119.68C234.663 118.295 233.198 117.806 232.709 119.354C232.299 120.202 231.681 120.931 230.913 121.473C230.144 122.015 229.25 122.352 228.316 122.452C227.99 122.533 227.339 123.538 228.722 123.511Z" fill="#777980"/>
<path d="M231.161 111.777C230.682 109.982 228.23 111.614 229.696 113.325C230.103 113.814 231.66 113.648 231.161 111.777Z" fill="#777980"/>
<path d="M227.662 104.2C226.521 104.521 226.523 105.829 227.986 105.829C229.622 105.709 231.265 105.962 232.789 106.57C232.894 106.605 233.008 106.604 233.112 106.565C233.216 106.527 233.303 106.454 233.36 106.359C233.417 106.264 233.44 106.152 233.424 106.042C233.409 105.933 233.357 105.831 233.276 105.755C232.508 105.106 231.608 104.631 230.639 104.363C229.67 104.094 228.655 104.039 227.662 104.2Z" fill="#777980"/>
<path d="M223.266 108.268C222.179 107.652 220.897 107.478 219.685 107.779C218.945 108.023 219.034 108.838 219.766 108.92C220.723 108.953 221.663 109.174 222.533 109.571C223.508 109.985 223.748 108.687 223.266 108.268Z" fill="#777980"/>
<path d="M224.571 113.897C224.34 115.708 224.313 117.539 224.49 119.357C224.817 121.475 229.617 119.927 228.886 118.786C228.479 118.135 226.852 119.527 225.792 119.031C225.51 117.335 225.401 115.615 225.468 113.897C225.468 113.778 225.421 113.663 225.337 113.579C225.253 113.495 225.139 113.448 225.02 113.448C224.901 113.448 224.787 113.495 224.703 113.579C224.619 113.663 224.571 113.778 224.571 113.897Z" fill="#777980"/>
<path d="M222.937 114.466C224.154 113.725 223.02 111.207 221.962 112.022C221.146 112.51 221.467 115.356 222.937 114.466Z" fill="#777980"/>
<path d="M214.72 121.066C215.86 124.814 218.627 129.702 221.8 131.984C223.265 133.043 223.998 131.984 222.54 130.599C219.411 127.959 217.05 124.526 215.704 120.657C215.65 120.527 215.546 120.423 215.416 120.369C215.285 120.315 215.139 120.315 215.008 120.369C214.878 120.424 214.774 120.527 214.72 120.658C214.666 120.789 214.666 120.936 214.72 121.066Z" fill="#777980"/>
<path d="M241.169 124.977C241.567 124.641 241.251 123.999 240.762 124.236C236.205 126.192 233.031 133.28 235.229 138.333C235.554 138.985 236.449 138.74 236.286 138.005C235.066 131.739 236.674 128.772 241.169 124.977Z" fill="#777980"/>
<path d="M213.988 126.525C214.627 128.562 215.67 130.449 217.055 132.073C218.439 133.697 220.136 135.024 222.045 135.976C223.103 136.465 224.161 135.65 222.533 134.591C219.184 132.67 216.533 129.731 214.965 126.2C214.558 125.548 213.808 125.797 213.988 126.525Z" fill="#777980"/>
<path d="M217.491 120.904C219.322 124.694 222.395 127.742 226.198 129.54C231.488 131.903 232.547 128.236 237.105 125.222C237.593 124.896 237.347 124.244 236.778 124.407C232.709 125.385 232.302 130.762 226.605 127.992C223.282 126.143 220.482 123.48 218.467 120.252C218.373 120.144 218.242 120.073 218.1 120.054C217.957 120.036 217.813 120.069 217.693 120.149C217.574 120.229 217.487 120.349 217.45 120.488C217.413 120.627 217.427 120.775 217.491 120.904Z" fill="#777980"/>
<path d="M224.572 142.338C224.98 142.989 226.038 142.42 225.711 141.768C224.165 137.611 217.98 136.715 215.783 133.049C215.376 132.397 214.644 133.049 214.895 133.701C217.166 138.013 221.812 137.927 224.572 142.338Z" fill="#777980"/>
<path d="M216.922 108.192C217.221 112.186 218.014 116.127 219.282 119.926C219.445 120.496 220.503 120.252 220.34 119.6C218.624 114.095 217.934 108.32 218.305 102.565C218.881 102.774 219.494 102.862 220.106 102.821C220.717 102.781 221.314 102.614 221.857 102.33C222.4 102.047 222.879 101.653 223.262 101.175C223.645 100.696 223.925 100.143 224.083 99.5501C226.282 102.809 232.793 102.483 234.827 99.5501C234.257 104.031 239.466 111.934 240.524 110.468C241.012 109.727 241.5 108.92 242.395 108.675C245.732 107.616 246.302 113.971 244.267 114.867C243.379 115.274 241.582 114.126 242.639 116.985C244.044 120.718 245.24 124.526 246.22 128.392C246.383 129.125 247.278 128.799 247.278 128.066C246.562 124.114 245.472 120.24 244.023 116.495C244.78 116.398 245.482 116.048 246.014 115.5C246.546 114.953 246.877 114.241 246.953 113.481C247.904 113.134 248.755 112.555 249.426 111.795C250.096 111.036 250.567 110.12 250.793 109.132C251.02 108.143 250.996 107.114 250.723 106.137C250.451 105.161 249.938 104.268 249.233 103.541C253.627 99.1413 252.813 91.8887 246.057 91.9702C246.476 90.6358 246.482 89.2058 246.074 87.868C245.667 86.5302 244.864 85.3473 243.772 84.4746C242.68 83.602 241.35 83.0806 239.957 82.9788C238.563 82.877 237.172 83.1996 235.965 83.9044C233.523 77.305 223.514 79.2604 223.27 85.1264C216.922 79.9122 208.701 88.0595 213.584 94.3329C208.052 94.4218 207.563 107.622 216.922 108.192Z" fill="#777980"/>
<path d="M228.071 146.895C228.558 147.441 229.2 147.825 229.912 147.996C230.623 148.166 231.369 148.115 232.051 147.849C232.732 147.584 233.316 147.116 233.725 146.508C234.134 145.901 234.347 145.183 234.337 144.451C235.684 143.924 236.989 143.298 238.243 142.577C238.061 141.47 237.645 140.414 237.022 139.481C235.755 139.809 234.528 140.274 233.36 140.866C232.89 140.282 232.246 139.864 231.522 139.671C230.798 139.478 230.032 139.521 229.334 139.793C228.635 140.065 228.042 140.553 227.639 141.185C227.236 141.817 227.045 142.562 227.093 143.31C226.279 143.799 225.384 144.369 225.058 144.614C225.018 145.739 225.328 146.85 225.946 147.791C226.604 147.547 227.412 147.227 228.071 146.895ZM228.802 143.31C229.059 140.459 232.797 140.785 232.465 144.369C232.221 147.302 228.494 146.734 228.802 143.31Z" fill="#777980"/>
<path d="M210.245 174.435C210.001 170.361 209.838 160.746 210.896 157.161C211.059 156.509 211.873 156.346 211.784 157.731C211.51 163.27 211.565 168.821 211.947 174.353C218.092 174.155 224.243 174.455 230.34 175.249C227.735 168.406 224.072 147.14 223.666 144.37C223.259 141.599 217.725 139.724 214.788 136.873C207.952 139.317 198.429 146.977 191.023 157.405C193.748 163.35 195.979 169.509 197.697 175.82C201.851 175.125 206.04 174.663 210.245 174.435Z" fill="#D2D2D5"/>
<path d="M248.574 129.866C245.238 133.369 242.389 135.08 237.344 135.161C238.402 142.42 244.751 153.005 250.285 160.747C251.149 158.905 251.778 156.961 252.155 154.961C252.319 153.82 253.043 154.228 253.043 154.879C252.91 157.45 252.36 159.982 251.415 162.376C258.09 171.501 266.803 180.3 270.058 191.382C273.72 186.738 288.045 161.311 278.116 144.451C272.259 134.265 259.48 129.051 248.574 129.866Z" fill="#D2D2D5"/>
<path d="M260.539 203.517C266.318 203.599 269.003 203.599 273.885 203.599C276.41 197.325 279.014 185.023 279.909 174.837C274.699 191.708 266.805 199.693 260.539 203.517Z" fill="#D2D2D5"/>
<path d="M238.323 198.471C229.136 199.341 220.042 201.004 211.141 203.441C216.43 203.359 235.475 203.196 242.148 203.359C240.42 202.142 239.09 200.441 238.323 198.471Z" fill="#D2D2D5"/>
<path d="M237.03 196.434C238.008 196.285 237.843 194.804 236.867 194.967C213.324 198.275 209.414 201.098 199.348 201.974C197.964 202.055 196.832 203.522 198.697 203.522C204.72 203.522 214.649 200.426 221.159 199.204C226.85 198.063 231.334 197.315 237.03 196.434Z" fill="#777980"/>
<path d="M200.638 176.878C197.054 177.595 197.952 178.752 199.254 178.426C208.533 176.471 221.066 176.878 230.344 178.426C231.24 178.589 231.646 177.204 230.751 177.041C221.554 175.493 209.826 175.043 200.638 176.878Z" fill="#777980"/>
<path d="M257.934 174.76C258.337 175.091 259.154 174.597 258.821 174.02C251.131 164.859 244.293 155.013 238.394 144.606C238.068 144.036 237.091 144.606 237.336 145.177C240.435 151.375 252.602 170.41 257.934 174.76Z" fill="#777980"/>
<path d="M268.03 192.034C268.355 191.219 267.29 190.567 266.89 191.293C264.449 195.611 261.519 199.929 256.799 202.048C251.998 204.247 246.707 203.596 243.207 199.44C235.639 190.478 230.105 161.963 228.069 149.006C227.906 148.191 226.767 148.517 226.93 149.331C228.639 161.715 234.18 190.886 242.231 200.418C248.396 207.774 261.408 205.955 268.03 192.034Z" fill="#777980"/>
<path d="M146.687 159.522C147.256 159.199 146.849 158.544 146.198 158.633C143.269 159.204 141.315 160.018 140.419 162.953C139.515 165.625 139.291 168.482 139.768 171.263C139.931 172.004 140.988 171.833 141.07 171.1C141.151 167.923 140.663 167.271 141.721 163.768C142.616 160.501 144.087 161.003 146.687 159.522Z" fill="#777980"/>
<path d="M147.745 147.058C147.655 148.824 147.71 150.596 147.907 152.353C147.989 153.005 149.128 152.924 149.21 152.353C149.246 150.585 149.165 148.816 148.965 147.058C148.883 146.486 147.758 146.486 147.745 147.058Z" fill="#777980"/>
<path d="M153.923 146.406C156.096 145.221 159.545 142.903 161.003 140.05C161.41 139.235 161.33 138.99 160.759 138.257C160.039 137.443 159.189 136.754 158.243 136.22C157.268 135.731 157.185 136.057 156.454 136.546C151.652 139.887 144.321 139.235 139.28 136.628C138.873 136.383 137.734 137.035 138.792 137.605C145.06 140.784 151.813 141.355 157.592 137.279C158.524 137.871 159.372 138.583 160.117 139.398C158.189 142.14 155.58 144.331 152.547 145.754C151.407 144.369 150.268 143.066 149.129 141.681C147.411 139.771 146.707 143.208 143.919 145.999C141.098 144.604 138.403 142.968 135.862 141.11C136.676 140.294 137.409 139.481 138.222 138.665C138.711 138.257 138.06 137.442 137.483 137.776C136.625 138.398 135.834 139.108 135.123 139.894C134.831 140.23 134.684 140.669 134.715 141.113C134.745 141.557 134.951 141.971 135.285 142.264C136.587 143.486 143.179 147.723 144.239 147.234C146.029 146.345 147.006 143.975 148.226 142.509C149.366 143.649 150.912 145.93 151.807 146.827C152.377 147.465 153.347 146.72 153.923 146.406Z" fill="#777980"/>
<path d="M162.556 113.651C162.852 112.397 162.961 111.107 162.88 109.822C162.718 108.437 161.417 108.355 161.497 109.903C161.66 111.94 160.929 114.303 161.173 114.792C161.743 116.178 163.777 113.903 164.752 115.363C166.136 117.645 163.125 121.963 161.253 120.822C160.766 120.496 160.365 120.741 160.032 121.8C159.535 123.226 158.88 124.593 158.079 125.873C153.685 132.31 144.814 133.939 139.931 128.392C138.21 126.16 137.089 123.523 136.676 120.733C136.663 120.55 136.603 120.373 136.501 120.22C136.399 120.067 136.259 119.943 136.095 119.861C135.93 119.778 135.748 119.74 135.564 119.751C135.381 119.761 135.203 119.819 135.049 119.918C133.34 121.222 131.793 119.267 131.631 116.822C131.387 113.481 133.421 113.236 134.886 114.377C134.977 114.451 135.089 114.494 135.206 114.501C135.323 114.508 135.44 114.478 135.539 114.414C135.638 114.351 135.714 114.259 135.758 114.15C135.801 114.04 135.809 113.92 135.781 113.806C135.7 113.066 135.293 108.918 135.293 108.022C135.211 107.207 134.235 107.533 134.235 108.266C134.316 109.733 134.398 111.281 134.56 112.666C134.111 112.448 133.616 112.343 133.118 112.36C132.619 112.377 132.132 112.515 131.699 112.763C131.266 113.012 130.9 113.362 130.633 113.784C130.366 114.205 130.205 114.686 130.166 115.184C129.515 119.585 132.607 123.007 135.456 121.378C136.269 124.962 137.653 128.629 140.665 130.828C140.501 132.295 140.421 133.761 140.258 135.228C140.177 136.532 141.072 136.694 141.398 136.043C141.618 134.558 141.753 133.062 141.805 131.562C143.799 132.602 146.035 133.09 148.281 132.976C150.528 132.861 152.703 132.148 154.581 130.91C154.663 132.376 154.581 133.924 154.744 135.391C154.746 135.484 154.767 135.575 154.806 135.659C154.845 135.743 154.901 135.818 154.971 135.879C155.041 135.94 155.123 135.985 155.212 136.012C155.3 136.039 155.394 136.047 155.486 136.035C155.578 136.024 155.666 135.993 155.745 135.945C155.825 135.897 155.893 135.833 155.946 135.757C155.999 135.681 156.035 135.594 156.052 135.503C156.069 135.412 156.067 135.318 156.046 135.228C155.802 132.784 155.965 131.236 155.883 130.014C158.347 128.058 160.14 125.38 161.012 122.355C161.505 122.473 162.018 122.475 162.512 122.362C163.006 122.249 163.467 122.024 163.86 121.703C167.683 119.111 167.356 112.184 162.556 113.651Z" fill="#777980"/>
<path d="M142.292 106.481C141.469 106.465 140.651 106.624 139.894 106.947C139.136 107.27 138.455 107.75 137.896 108.355C137.408 108.844 137.733 109.903 138.71 109.414C139.762 108.658 141.001 108.207 142.292 108.111C143.757 107.948 143.519 106.568 142.292 106.481Z" fill="#777980"/>
<path d="M162.067 157.568C161.839 155.588 161.095 153.702 159.909 152.101C158.724 150.499 157.139 149.238 155.313 148.443C154.425 148.117 154.336 149.013 154.987 149.332C159.138 151.531 160.765 155.768 160.929 160.25C161.091 163.917 159.382 169.62 163.695 171.657C164.435 171.983 164.998 170.768 164.265 170.435C160.602 168.731 162.928 163.114 162.067 157.568Z" fill="#777980"/>
<path d="M143.347 149.828C143.746 149.332 143.266 148.687 142.696 149.087C139.534 151.798 137.218 155.361 136.023 159.353C135.454 161.473 135.616 163.673 135.128 165.709C134.558 168.072 132.524 168.968 130.652 170.272C130.001 170.679 130.571 171.82 131.303 171.494C133.128 170.747 134.687 169.47 135.779 167.828C137.488 164.895 135.779 161.228 139.278 155.116C140.501 153.254 141.861 151.487 143.347 149.828Z" fill="#777980"/>
<path d="M138.466 167.509C138.746 164.991 138.547 162.375 139.931 160.094C140.554 159.151 141.369 158.352 142.323 157.748C143.277 157.144 144.349 156.75 145.466 156.59C146.443 156.427 146.354 155.45 145.466 155.45C144.176 155.492 142.914 155.839 141.782 156.462C140.651 157.085 139.683 157.966 138.956 159.035C137.552 161.593 137.009 164.536 137.409 167.428C137.408 167.998 138.393 168.161 138.466 167.509Z" fill="#777980"/>
<path d="M148.395 166.78C148.099 168.903 148.558 200.43 148.639 202.141C148.639 203.037 150.104 202.956 150.104 202.059C150.104 193.023 149.697 176.72 149.535 166.862C149.447 166.368 148.48 166.124 148.395 166.78Z" fill="#777980"/>
<path d="M157.104 181.767C156.171 181.415 155.34 180.836 154.686 180.082C154.032 179.328 153.577 178.423 153.36 177.449C152.465 173.131 156.941 168.975 154.663 164.494C154.264 163.656 153.603 162.972 152.78 162.544C151.958 162.116 151.018 161.969 150.104 162.124C149.985 162.124 149.871 162.172 149.787 162.256C149.703 162.34 149.656 162.454 149.656 162.572C149.656 162.691 149.703 162.805 149.787 162.889C149.871 162.973 149.985 163.021 150.104 163.021C150.632 163.04 151.15 163.167 151.628 163.394C152.105 163.62 152.532 163.941 152.882 164.337C153.232 164.733 153.498 165.197 153.665 165.699C153.831 166.201 153.893 166.732 153.849 167.259C153.849 169.621 152.547 171.821 152.058 174.102C151.562 175.896 151.754 177.811 152.598 179.47C153.441 181.129 154.875 182.411 156.616 183.064C157.511 183.478 157.996 182.104 157.104 181.767Z" fill="#777980"/>
<path d="M130.002 172.235C129.916 171.583 130.002 169.383 128.862 169.716C127.864 169.901 126.883 170.174 125.933 170.531C124.631 171.101 123.979 172.568 125.77 172.079C126.584 171.835 127.479 171.59 128.285 171.338C128.7 176.618 130.813 181.621 134.307 185.598C129.54 189.675 124.386 193.277 118.919 196.352C117.373 197.248 117.78 198.633 119.082 197.9C124.997 194.809 130.494 190.976 135.441 186.494C135.685 186.249 136.01 185.924 135.685 185.435C132.768 180.871 130.698 177.535 130.002 172.235Z" fill="#777980"/>
<path d="M199.258 190.404C198.357 181.85 192.259 165.146 188.841 157.731C183.632 146.569 175.412 142.495 163.856 139.968C163.705 139.936 163.547 139.964 163.417 140.048C163.287 140.133 163.196 140.265 163.163 140.416C163.131 140.568 163.159 140.726 163.243 140.856C163.327 140.986 163.459 141.078 163.611 141.11C173.622 144.614 181.027 145.917 186.481 156.264C190.388 163.68 199.014 186.412 197.793 195.13C196.817 201.892 193.236 201.566 188.516 201.892C180.051 202.462 165.565 191.138 159.542 185.598C163.611 182.744 166.216 176.227 166.949 171.664C173.428 173.444 179.683 175.959 185.592 179.16C186.407 179.567 187.058 178.508 186.245 178.101C182.481 175.987 178.563 174.162 174.524 172.642C174.173 170.698 173.333 168.875 172.083 167.346C171.432 166.776 171.106 167.509 171.351 167.916C172.145 169.207 172.748 170.607 173.141 172.072C171.213 171.333 169.226 170.76 167.2 170.361C165.654 170.116 165.654 170.361 165.41 171.664C162.723 184.62 156.619 184.292 158.328 186.168C164.352 192.93 178.838 203.114 188.279 203.277C197.142 203.517 200.229 199.612 199.258 190.404Z" fill="#777980"/>
<path d="M157.914 164.495C157.813 163.304 157.367 162.169 156.631 161.228C155.895 160.287 154.901 159.581 153.771 159.197C152.377 158.927 150.958 158.818 149.539 158.872C148.887 158.872 148.887 159.686 149.458 159.851C151.818 160.502 153.771 159.605 155.48 162.05C157.352 164.658 156.294 167.183 156.619 168.731C156.664 168.853 156.742 168.96 156.846 169.037C156.95 169.115 157.074 169.161 157.203 169.17C157.332 169.179 157.461 169.149 157.574 169.086C157.687 169.023 157.78 168.928 157.84 168.813C158.114 167.389 158.139 165.927 157.914 164.495Z" fill="#777980"/>
<path d="M147.414 161.643C146.476 161.941 145.613 162.437 144.882 163.098C144.152 163.758 143.572 164.568 143.181 165.472C139.763 172.642 149.123 177.938 135.613 182.909C135.447 182.958 135.307 183.07 135.221 183.22C135.135 183.371 135.111 183.549 135.153 183.717C135.195 183.884 135.3 184.03 135.446 184.122C135.592 184.215 135.769 184.247 135.938 184.213C138.093 183.705 140.099 182.7 141.797 181.278C149.367 174.923 138.542 168.813 147.821 162.539C148.309 162.132 148.067 161.489 147.414 161.643Z" fill="#777980"/>
<path d="M140.332 113.732C141.379 114.642 142.699 111.777 141.31 111.044C140.088 110.392 139.592 113.089 140.332 113.732Z" fill="#777980"/>
<path d="M156.777 158.709C158.874 160.688 158.73 163.597 158.812 166.287C158.812 166.939 159.788 166.857 159.951 166.287C160.358 163.354 160.032 159.849 157.754 157.649C155.312 155.368 151.569 155.042 148.476 155.531C148.406 155.534 148.337 155.552 148.274 155.584C148.211 155.616 148.155 155.661 148.111 155.716C148.067 155.771 148.034 155.834 148.016 155.903C147.998 155.971 147.995 156.042 148.007 156.112C148.018 156.182 148.045 156.248 148.084 156.307C148.123 156.365 148.174 156.415 148.234 156.453C148.294 156.49 148.361 156.515 148.43 156.524C148.5 156.534 148.572 156.529 148.639 156.509C151.406 156.509 154.558 156.614 156.777 158.709Z" fill="#777980"/>
<path d="M128.944 111.696C129.675 112.349 130.491 111.207 129.839 110.555C125.119 105.829 125.119 98.6584 128.375 93.1182C137.733 76.9851 165.568 80.2455 171.346 96.866C172.348 99.523 172.452 102.435 171.644 105.158C170.836 107.88 169.159 110.262 166.87 111.94C166.382 112.347 166.789 113.244 167.44 112.918C173.95 109.659 175.09 101.104 172.404 94.9936C164.429 76.8236 133.42 75.8459 125.852 94.9936C123.573 100.615 124.298 107.548 128.944 111.696Z" fill="#777980"/>
<path d="M131.464 106.807C136.422 107.361 142.533 103.874 144.974 99.6377C145.048 99.5185 145.075 99.3755 145.048 99.2377C145.021 99.0998 144.943 98.9773 144.83 98.8946C144.716 98.812 144.576 98.7755 144.437 98.7924C144.297 98.8094 144.17 98.8785 144.079 98.9859C140.417 103.467 137.079 104.933 131.464 105.585C131.319 105.609 131.187 105.683 131.092 105.795C130.997 105.907 130.945 106.049 130.945 106.196C130.945 106.343 130.997 106.485 131.092 106.597C131.187 106.709 131.319 106.784 131.464 106.807Z" fill="#777980"/>
<path d="M147.089 119.356C147.66 118.95 147.659 118.378 147.089 118.133C146.682 117.971 144.485 118.541 144.322 118.133C143.997 117.319 145.217 113.814 145.461 112.103C145.624 110.881 145.055 110.881 144.485 111.859C143.915 112.836 142.118 117.808 142.937 119.274C143.752 120.496 146.278 119.929 147.089 119.356Z" fill="#777980"/>
<path d="M114.128 153.494C119.085 146.563 124.546 143.718 132.684 141.192C133.498 140.947 133.253 139.644 132.44 139.888C123.081 142.658 118.278 145.266 112.582 153.168C111.768 154.146 113.312 154.633 114.128 153.494Z" fill="#777980"/>
<path d="M164.677 107.541C164.796 107.505 164.899 107.43 164.969 107.328C165.039 107.225 165.072 107.102 165.063 106.978C165.053 106.855 165.002 106.738 164.917 106.648C164.832 106.557 164.719 106.499 164.596 106.482C159.549 106.4 153.445 105.667 149.621 102.001C146.04 98.5787 144.25 92.6297 143.998 87.8228C143.917 87.008 142.696 86.934 142.777 87.7413C142.859 92.7926 145.145 99.3934 148.799 102.897C152.454 106.4 159.7 108.305 164.677 107.541Z" fill="#777980"/>
<path d="M144.891 124C147.529 125.402 150.832 124.57 151.727 122.044C151.89 121.474 151.239 120.985 150.832 121.474C148.464 124.244 146.437 123.103 145.209 123.185C144.566 123.103 144.409 123.743 144.891 124Z" fill="#777980"/>
<path d="M155.389 110.229C154.774 108.452 151.32 106.482 149.693 107.052C149.042 107.296 148.798 108.6 149.693 108.763C151.501 108.999 153.2 109.764 154.576 110.963C154.982 111.289 155.617 110.887 155.389 110.229Z" fill="#777980"/>
<path d="M150.184 114.303C151.733 113.994 151.649 111.125 150.428 111.451C149.288 111.695 148.884 114.562 150.184 114.303Z" fill="#777980"/>
<path d="M96.7931 124.414C97.2015 124.74 97.8526 124.414 97.6084 123.925C97.0373 122.296 96.549 120.666 97.7712 118.956C98.2713 118.285 98.9449 117.763 99.7192 117.447C100.494 117.131 101.339 117.032 102.166 117.162C102.299 117.161 102.429 117.117 102.535 117.036C102.642 116.955 102.719 116.842 102.756 116.714C102.793 116.585 102.787 116.448 102.739 116.323C102.691 116.198 102.604 116.092 102.491 116.021C100.213 114.962 95.7352 116.917 95.7352 121.237C95.6716 121.811 95.7333 122.393 95.916 122.942C96.0986 123.49 96.3979 123.993 96.7931 124.414Z" fill="#777980"/>
<path d="M93.7028 134.021C93.711 134.199 93.7875 134.367 93.9163 134.49C94.0452 134.613 94.2164 134.682 94.3945 134.682C94.5726 134.682 94.7439 134.613 94.8727 134.49C95.0016 134.367 95.078 134.199 95.0863 134.021C95.2621 132.52 95.1516 130.999 94.7607 129.54C93.9469 126.688 91.2614 125.629 91.3428 122.777C91.4242 121.067 91.7497 119.356 91.8311 117.726C91.8294 117.593 91.7779 117.465 91.6869 117.368C91.5959 117.271 91.4719 117.211 91.3393 117.201C91.2067 117.191 91.075 117.231 90.9702 117.313C90.8655 117.395 90.7952 117.513 90.7731 117.645C90.4476 119.274 90.1221 120.904 89.9593 122.533C89.6338 126.118 92.0752 127.096 93.0518 129.377C93.7089 130.83 93.9348 132.442 93.7028 134.021Z" fill="#777980"/>
<path d="M94.5986 103.63L95.8193 115.606C95.9006 116.095 96.7958 116.095 96.8772 115.525C97.2841 112.51 96.2261 106.563 95.5751 103.378C95.4937 102.896 94.5172 103.059 94.5986 103.63Z" fill="#777980"/>
<path d="M102.815 125.629C103.132 126.285 103.955 125.792 103.792 125.222C103.548 123.837 102.978 122.207 105.664 122.207C107.861 122.207 108.179 124.162 108.105 125.955C107.942 129.295 105.094 132.147 105.094 135.161C105.097 135.332 105.161 135.495 105.276 135.621C105.39 135.748 105.546 135.828 105.715 135.848C105.884 135.868 106.054 135.826 106.194 135.73C106.334 135.633 106.435 135.489 106.477 135.324C107.291 131.984 107.617 132.31 108.756 129.54C109.74 127.476 109.886 125.11 109.163 122.94C107.535 119.274 100.226 120.283 102.815 125.629Z" fill="#777980"/>
<path d="M99.1578 121.392C99.0006 122.6 99.2285 123.826 99.8088 124.896C99.8749 124.992 99.9728 125.062 100.085 125.093C100.198 125.124 100.318 125.114 100.424 125.066C100.53 125.017 100.615 124.932 100.665 124.827C100.715 124.721 100.726 124.601 100.697 124.488C100.371 122.777 100.046 120.741 101.673 119.844C102.389 119.406 103.204 119.154 104.043 119.111C104.881 119.068 105.717 119.236 106.475 119.6C107.044 119.926 107.532 119.03 107.126 118.622C105.749 116.911 99.646 117.563 99.1578 121.392Z" fill="#777980"/>
<path d="M62.3663 107.703C61.878 107.785 61.3898 107.866 60.9829 107.948C60.2504 105.667 58.0532 103.304 55.3677 104.282C52.5194 105.341 52.4365 108.437 52.6008 109.822C50.2333 110.066 47.7979 110.392 45.4379 110.636C45.3041 110.668 45.186 110.746 45.1046 110.857C45.0232 110.968 44.9839 111.104 44.9937 111.241C45.0034 111.379 45.0617 111.508 45.158 111.606C45.2543 111.704 45.3824 111.765 45.5192 111.777C47.9606 111.614 50.402 111.451 52.8449 111.37C54.2772 118.701 62.5498 116.711 61.3898 109.414C61.7967 109.333 62.2036 109.333 62.5291 109.251C63.4331 115.591 70.7958 115.787 70.0974 108.274C70.7484 108.274 72.1319 107.948 71.4808 106.97C71.1553 106.481 70.4229 106.807 69.9346 106.889C68.6325 101.511 62.6104 102.163 62.3663 107.703ZM53.9028 110.473C53.6587 108.6 54.0656 106.644 55.2863 105.911C57.3208 104.607 59.3553 106.644 60.0063 109.251C61.3528 115.489 54.693 116.811 53.9028 110.473ZM67.1677 112.592C64.1789 113.629 62.171 106.831 64.8077 104.852C68.31 102.107 70.6034 111.393 67.1647 112.592H67.1677Z" fill="#777980"/>
<path d="M62.532 116.911C60.6603 117.074 60.8231 117.889 62.0438 118.052C62.8575 118.133 64.1596 117.971 64.5591 117.237C65.2102 116.097 64.315 114.221 63.1757 113.162C62.3619 112.347 61.955 113.081 62.2879 113.488C63.0247 114.629 64.8107 116.504 62.532 116.911Z" fill="#777980"/>
<path d="M68.471 114.71C68.394 113.895 67.5832 113.895 67.5832 114.71C67.7459 120.252 67.1763 129.132 59.2825 129.784C56.1885 130.029 52.852 128.562 50.1665 127.014C49.6782 126.688 49.0271 127.503 49.5968 127.91C52.2857 129.848 55.4838 130.953 58.7942 131.088C58.9569 132.391 59.2825 133.776 59.4452 135.08C59.8521 137.606 60.8287 136.383 60.6659 135.569C60.4945 134.042 60.2774 132.52 60.0149 131.006C67.6572 129.784 69.0732 121.064 68.471 114.71Z" fill="#777980"/>
<path d="M57.3222 124.244C57.7726 124.46 58.2633 124.577 58.7623 124.59C59.2613 124.603 59.7573 124.51 60.218 124.318C60.6787 124.125 61.0938 123.838 61.4362 123.475C61.7786 123.111 62.0405 122.679 62.205 122.207C62.7746 120.985 62.4491 120.741 61.3912 120.741C60.3623 120.818 59.3294 120.66 58.3705 120.279C57.4115 119.898 56.5517 119.304 55.8559 118.541C54.5154 117.421 54.1869 123.049 57.3222 124.244ZM61.2284 121.963C59.9264 124.481 56.0187 123.267 55.9388 120.333C57.4823 121.429 59.3365 122.001 61.2284 121.963Z" fill="#777980"/>
<path d="M57.0818 110.229C56.9116 110.717 57.1617 112.022 57.977 111.859C58.628 111.777 58.628 110.881 58.3839 110.311C58.0583 109.496 57.394 109.329 57.0818 110.229Z" fill="#777980"/>
<path d="M66.1146 108.762C65.94 109.33 66.196 110.799 67.0024 110.473C67.4093 110.31 67.5721 109.903 67.4907 109.17C67.3353 108.268 66.4194 107.779 66.1146 108.762Z" fill="#777980"/>
<path d="M51.9488 105.422C53.182 104 54.8884 103.074 56.7517 102.815C56.9449 102.776 57.1175 102.668 57.2384 102.512C57.3593 102.356 57.4204 102.162 57.4105 101.965C57.4007 101.768 57.3206 101.581 57.1848 101.438C57.049 101.295 56.8664 101.205 56.6703 101.186C55.7287 101.194 54.7994 101.401 53.9436 101.794C53.0878 102.187 52.3247 102.757 51.7047 103.467C49.9143 105.422 51.4472 105.979 51.9488 105.422Z" fill="#777980"/>
<path d="M30.2999 104.363C30.1663 106.892 30.7534 109.406 31.9929 111.613C33.2323 113.82 35.0729 115.629 37.3 116.829C37.7069 119.191 39.2531 121.963 42.1828 121.963C43.0579 126.317 43.6289 130.728 43.8917 135.161C43.8861 135.24 43.8966 135.319 43.9227 135.393C43.9488 135.467 43.9898 135.535 44.0433 135.592C44.0967 135.65 44.1614 135.696 44.2334 135.727C44.3053 135.758 44.3829 135.774 44.4614 135.774C44.5399 135.774 44.6175 135.758 44.6894 135.727C44.7614 135.696 44.8261 135.65 44.8795 135.592C44.933 135.535 44.974 135.467 45.0001 135.393C45.0262 135.319 45.0367 135.24 45.0311 135.161C44.9469 130.919 44.4839 126.693 43.6476 122.533C43.4849 121.8 43.4849 120.332 42.6711 120.413C41.0435 120.576 39.4159 119.191 38.9276 116.584C38.3579 113.814 39.9041 111.533 42.1014 112.585C42.4269 112.748 42.6711 112.503 42.8338 112.34C46.0076 109.244 49.9952 103.541 49.9952 97.2662C54.227 99.1415 64.4009 99.8748 69.0395 98.3253C68.714 92.1334 62.7733 82.601 49.5883 83.9046C34.8586 85.3785 30.4449 96.6218 30.2999 104.363Z" fill="#777980"/>
<path d="M64.156 101.837C65.1904 101.522 66.2953 101.522 67.3298 101.837C68.1436 102.082 68.0622 101.267 67.4111 100.697C66.853 100.402 66.2417 100.221 65.6129 100.165C64.9841 100.109 64.3505 100.179 63.7491 100.371C62.5284 100.941 62.9471 102.354 64.156 101.837Z" fill="#777980"/>
<path d="M33.0668 90.6742C33.9851 88.6514 35.6047 87.0304 37.6255 86.1118C35.9166 73.4005 18.1743 71.934 12.7145 84.5667C7.25465 97.1995 18.2498 103.231 20.5284 107.87C22.7257 112.513 24.0277 119.685 22.5629 122.535C21.0981 125.305 22.8884 125.468 24.9229 121.646C26.5505 118.55 29.4802 109.499 27.1202 102.009C24.6033 94.2591 30.8695 90.1039 33.0668 90.6742Z" fill="#777980"/>
<path d="M116.975 155.449C106.639 155.292 89.5483 154.879 80.1896 155.694C72.864 156.346 71.0736 158.627 69.3646 164.983C66.9232 174.271 63.017 189.834 61.7149 198.715C51.8809 198.569 42.046 198.95 32.2526 199.855C28.5905 200.344 28.3463 203.033 29.4857 204.173C30.0553 204.744 30.7877 203.929 30.3734 203.359C30.2928 203.214 30.2415 203.055 30.2224 202.891C30.2033 202.727 30.2168 202.56 30.2622 202.401C30.3076 202.242 30.3839 202.094 30.4868 201.965C30.5897 201.835 30.7171 201.727 30.8617 201.648C32.8962 200.263 57.5572 200.018 61.0565 200.018C62.3586 200.018 62.7655 199.855 63.091 198.47C65.5324 186.982 68.7136 173.782 71.6359 162.946C72.5236 159.442 75.2166 157.568 79.5312 157.242C90.436 156.346 105.818 156.834 117.374 156.997C121.445 157.079 123.885 158.708 123.561 163.272C123.154 169.383 117.781 188.123 115.828 195.048C115.209 197.764 114.252 200.392 112.98 202.87C112.491 203.684 113.712 204.582 114.2 203.758C115.662 200.698 116.834 197.506 117.7 194.226C120.304 185.101 123.967 171.901 125.107 163.835C125.61 158.301 122.51 155.534 116.975 155.449Z" fill="#777980"/>
<path d="M94.7585 175.005C94.4286 175.491 95.0027 176.227 95.5723 175.819C96.1443 175.353 96.8558 175.091 97.5935 175.076C98.3312 175.062 99.0526 175.295 99.6428 175.738C100.701 176.716 100.945 178.752 98.9917 182.256C96.5489 186.738 93.2123 187.39 91.7416 185.598C89.9512 183.398 91.6602 178.915 93.3692 177.123C93.7761 176.634 93.0436 175.901 92.6293 176.308C89.0486 179.567 88.3976 184.376 90.4321 186.575C93.6873 190.16 98.4088 187.227 100.198 183.398C101.256 181.115 102.883 178.019 101.418 175.657C101.116 175.062 100.668 174.553 100.117 174.177C99.5666 173.801 98.9301 173.57 98.2667 173.505C97.6032 173.44 96.9341 173.544 96.321 173.806C95.7079 174.068 95.1706 174.48 94.7585 175.005Z" fill="#777980"/>
<path d="M276.088 206.293C206.554 205.578 91.8487 204.219 4.42779 208.167C3.85813 208.167 3.93951 209.96 4.50917 209.96C88.5714 207.831 165.408 206.196 276.169 208.656C276.897 208.656 276.814 206.301 276.088 206.293Z" fill="#E9E9EA"/>
<path d="M87.5156 153.745C91.5846 153.745 99.5613 153.745 105.014 153.663C106.206 148.1 107.046 142.466 107.529 136.797C103.216 137.367 95.0765 136.96 91.4958 135.575C90.6525 141.727 89.3216 147.803 87.5156 153.745Z" fill="#D2D2D5"/>
<path d="M27.2148 203.517C26.9826 202.511 27.0975 201.456 27.5409 200.524C27.9842 199.592 28.7299 198.838 29.6562 198.384C31.8535 197.325 54.3986 197.162 59.6927 196.918C59.9369 195.614 60.6693 192.111 61.7272 187.548C48.4049 184.872 34.8651 183.426 21.2786 183.23C20.0579 183.23 20.5462 182.088 21.2786 182.088C23.2317 182.007 25.1848 182.007 27.1379 182.007C28.643 176.048 30.8852 170.3 33.8125 164.897C34.138 164.327 34.8704 164.653 34.6263 165.223C32.1047 170.648 30.0883 176.293 28.6027 182.088C39.8602 182.519 51.0692 183.799 62.1341 185.919C63.9245 178.178 66.3658 168.238 68.6445 161.557C70.5976 155.608 73.69 154.142 77.8419 153.897C80.5529 153.78 83.267 153.752 85.9798 153.816C86.3053 152.838 86.6309 151.86 86.9564 150.638C82.9688 144.12 74.4224 138.334 62.7851 137.438C58.7975 142.165 47.647 141.676 41.5436 135.89C37.9629 136.298 26.1554 138.905 19.0813 146.89C9.15152 158.297 -4.3575 184.453 2.15288 198.221C5.39622 205.234 23.5454 203.929 27.2148 203.517Z" fill="#D2D2D5"/>
<path d="M217.973 60.5588C225.37 54.9209 226.211 41.6483 220.55 34.4983C214.41 26.745 201.095 23.7206 192.341 28.2862C181.034 34.1848 178.14 54.0076 187.517 62.878C193.088 68.147 201.067 70.3424 212.406 66.1711C215.162 68.6914 218.879 71.2056 222.581 71.8449C222.666 71.8614 222.755 71.853 222.836 71.8206C222.917 71.7883 222.987 71.7334 223.038 71.6624C223.088 71.5914 223.118 71.5074 223.122 71.4202C223.127 71.333 223.106 71.2464 223.063 71.1705C221.634 68.6871 218.833 63.3355 217.973 60.5588ZM221.723 70.6945C218.521 69.7286 215.367 67.3277 212.983 64.997C212.898 64.9153 212.792 64.8591 212.677 64.8349C212.562 64.8106 212.442 64.8194 212.332 64.86C203.872 67.9231 195.146 68.0214 188.566 61.7689C179.975 53.6019 182.689 35.0726 193.055 29.6552C201.156 25.4207 213.655 28.2572 219.399 35.4178C224.727 42.0593 223.955 54.7883 216.983 59.8747C216.888 59.9428 216.817 60.0383 216.779 60.1482C216.74 60.2581 216.736 60.3772 216.768 60.4894C217.508 63.1212 220.368 68.3191 221.723 70.6945Z" fill="#D2D2D5"/>
<path d="M213.19 41.5299C213.091 40.7082 212.751 39.9344 212.212 39.3067C211.673 38.6791 210.959 38.226 210.163 38.005C207.18 37.0767 204.554 38.8129 202.742 41.4114C202.242 40.8999 201.701 40.43 201.125 40.0063C199.108 38.6012 196.476 38.5573 194.778 40.621C194.126 41.5089 193.667 42.524 193.432 43.6006C193.196 44.6773 193.19 45.7914 193.412 46.8709C193.95 49.3298 196.736 52.0609 198.779 53.61C200.07 54.5748 201.445 55.4218 202.888 56.1408C202.967 56.1829 203.057 56.2007 203.146 56.1921C203.235 56.1836 203.32 56.1489 203.39 56.0925C205.593 54.2721 209.257 51.0923 210.973 48.759C212.23 47.2571 213.013 45.4153 213.223 43.4672C213.277 42.8219 213.266 42.1729 213.19 41.5299Z" fill="#777980"/>
<path d="M68.8403 67.8902C61.553 62.3361 60.7243 49.2605 66.3015 42.2166C72.3505 34.5783 85.4672 31.5988 94.0914 36.0966C105.231 41.9077 108.082 61.4363 98.8441 70.175C93.356 75.3658 85.4949 77.5287 74.325 73.4193C71.609 75.9022 67.9477 78.3791 64.301 79.0089C64.2166 79.0251 64.1294 79.0168 64.0496 78.985C63.9698 78.9531 63.9009 78.899 63.8508 78.8291C63.8008 78.7591 63.7719 78.6763 63.7674 78.5905C63.763 78.5046 63.7832 78.4192 63.8257 78.3445C65.2334 75.8979 67.9935 70.6258 68.8403 67.8902ZM65.1461 77.8756C68.3002 76.9239 71.4077 74.5587 73.7564 72.2626C73.8398 72.1821 73.9442 72.1268 74.0576 72.1029C74.171 72.079 74.2889 72.0876 74.3976 72.1277C82.7322 75.1452 91.3287 75.2421 97.8106 69.0824C106.274 61.0367 103.6 42.7824 93.3888 37.4454C85.4076 33.2737 73.0945 36.0681 67.4352 43.1224C62.1864 49.6654 62.9469 62.2055 69.8159 67.2163C69.9089 67.2834 69.979 67.3775 70.0169 67.4858C70.0547 67.5941 70.0585 67.7114 70.0276 67.8219C69.2983 70.4147 66.4803 75.5354 65.1461 77.8756Z" fill="#D2D2D5"/>
<path d="M93.4876 49.1438C93.3903 48.3342 93.0549 47.5719 92.5239 46.9536C91.9929 46.3353 91.2904 45.8889 90.5055 45.6711C87.5674 44.7567 84.9802 46.4671 83.1949 49.027C82.7024 48.5231 82.1698 48.0602 81.6023 47.6428C79.6147 46.2586 77.0223 46.2153 75.3493 48.2484C74.7067 49.123 74.2548 50.1231 74.0229 51.1838C73.7909 52.2444 73.7842 53.3421 74.003 54.4055C74.5336 56.8279 77.2781 59.5184 79.2907 61.0445C80.5628 61.995 81.9174 62.8294 83.3383 63.5378C83.4165 63.5793 83.505 63.5968 83.593 63.5884C83.681 63.5799 83.7646 63.5458 83.8335 63.4903C86.0033 61.6968 89.6128 58.5642 91.304 56.2655C92.5423 54.7859 93.3137 52.9715 93.5205 51.0523C93.574 50.4166 93.563 49.7772 93.4876 49.1438Z" fill="#777980"/>
<path d="M138.948 56.0664C128.558 57.2701 117.537 47.1648 116.558 36.9474C115.498 25.8668 123.938 13.0195 134.592 9.88685C148.356 5.8416 166.143 19.6556 165.449 34.169C165.036 42.7907 160.276 50.8007 147.834 56.2705C147.561 60.4665 146.506 65.4068 144.003 68.8152C143.946 68.8954 143.868 68.9576 143.777 68.9946C143.686 69.0316 143.587 69.0418 143.49 69.0239C143.394 69.0059 143.304 68.9607 143.233 68.8936C143.161 68.8264 143.11 68.7401 143.086 68.645C142.31 65.5157 140.414 58.989 138.948 56.0664ZM143.802 67.2126C145.646 63.9297 146.333 59.5203 146.451 55.7691C146.456 55.6367 146.498 55.5084 146.573 55.3989C146.647 55.2894 146.751 55.2031 146.872 55.1499C156.118 51.0284 163.27 44.2954 163.735 34.0887C164.339 20.7593 147.705 7.85377 135.08 11.5537C125.213 14.4453 117.288 26.5033 118.208 36.7944C119.061 46.3394 129.602 56.058 139.218 54.7385C139.347 54.7201 139.479 54.7419 139.596 54.8011C139.713 54.8602 139.809 54.9538 139.871 55.0692C141.321 57.7812 143.05 64.2291 143.802 67.2126Z" fill="#D2D2D5"/>
<path d="M152.565 29.5178C152.454 28.5933 152.071 27.7228 151.465 27.0167C150.858 26.3106 150.056 25.8009 149.16 25.5522C145.805 24.508 142.85 26.4611 140.811 29.3844C140.249 28.809 139.641 28.2804 138.993 27.8037C136.723 26.223 133.763 26.1736 131.852 28.4953C131.118 29.4941 130.602 30.6361 130.337 31.8473C130.073 33.0586 130.065 34.312 130.315 35.5264C130.921 38.2926 134.055 41.3651 136.353 43.1078C137.806 44.1932 139.353 45.1461 140.975 45.9551C141.064 46.0024 141.165 46.0225 141.266 46.0128C141.366 46.0031 141.462 45.9642 141.541 45.9007C144.018 43.8527 148.14 40.2754 150.071 37.6505C151.486 35.9609 152.367 33.8888 152.603 31.6972C152.664 30.9713 152.651 30.2411 152.565 29.5178Z" fill="#777980"/>
</g>
<defs>
<clipPath id="clip0_1672_121291">
<rect width="282" height="210" fill="white"/>
</clipPath>
</defs>
</svg>
