<svg width="216" height="180" viewBox="0 0 216 180" fill="none" xmlns="http://www.w3.org/2000/svg">
<g clip-path="url(#clip0_1672_123872)">
<path d="M108.716 100.183C106.781 99.0847 104.982 97.7603 103.359 96.2373C103.253 96.1374 103.121 96.0702 102.978 96.0439C102.834 96.0175 102.687 96.0331 102.552 96.0887C100.795 96.8237 98.5761 97.3013 96.9352 98.3778C96.7806 98.4758 96.6643 98.6238 96.6057 98.7972C96.5471 98.9706 96.5497 99.1589 96.6132 99.3306C97.3561 101.572 97.9278 103.867 98.3232 106.195C97.2856 110.368 87.1635 142.267 84.3478 161.761C83.4406 167.932 88.6117 173.164 90.8683 178.717C90.9334 178.873 91.0357 179.011 91.1663 179.118C91.2968 179.225 91.4517 179.299 91.6173 179.332C91.7829 179.366 91.9542 179.358 92.1162 179.31C92.2782 179.262 92.426 179.176 92.5466 179.057C96.901 174.538 100.924 169.712 104.585 164.615C104.714 164.433 104.782 164.215 104.779 163.992C104.56 146.42 105.255 124.687 103.23 106.693C103.343 106.593 108.019 102.416 109.072 101.401C109.186 101.32 109.272 101.206 109.318 101.074C109.364 100.942 109.367 100.799 109.328 100.665C109.289 100.531 109.209 100.412 109.099 100.326C108.99 100.239 108.856 100.189 108.716 100.183Z" fill="#777980"/>
<path d="M100.407 81.2809C99.0382 80.3265 97.8848 79.0947 97.0221 77.6656C96.1594 76.2365 95.6066 74.642 95.3997 72.9854C94.6161 68.1712 95.7739 62.9782 96.6948 58.4794C97.1131 56.3847 97.7052 54.3286 98.4649 52.3323C98.5156 52.1843 98.6213 52.0615 98.7601 51.9895C98.8989 51.9174 99.0602 51.9017 99.2103 51.9455C99.3604 51.9893 99.4879 52.0893 99.5662 52.2248C99.6445 52.3602 99.6676 52.5206 99.6307 52.6726C99.2984 54.0554 98.965 56.9832 98.5942 58.8514C96.993 66.894 95.3442 75.1781 101.746 79.9322C102.519 80.4245 102.146 81.8299 102.004 85.1434C102.011 85.2299 102.001 85.3169 101.973 85.3993C101.946 85.4817 101.903 85.5578 101.846 85.6231C101.788 85.6883 101.719 85.7415 101.641 85.7794C101.563 85.8172 101.478 85.8391 101.391 85.8435C101.304 85.848 101.218 85.8351 101.136 85.8054C101.055 85.7758 100.98 85.7301 100.916 85.6711C100.853 85.612 100.802 85.5408 100.766 85.4617C100.73 85.3825 100.711 85.2971 100.709 85.2103C100.58 84.2506 100.537 82.2326 100.407 81.2809ZM100.623 81.4182C100.666 81.4454 100.666 81.4647 100.709 81.4772L100.623 81.4182ZM100.407 81.2616V81.2061C100.407 81.1198 100.407 80.9951 100.364 81.0064C100.191 81.0416 100.278 81.155 100.407 81.2616Z" fill="#777980"/>
<path d="M102.829 72.1867C102.789 71.6239 102.892 71.0602 103.13 70.5487C103.272 70.2752 103.446 70.0199 103.649 69.7887C105.847 67.0594 110.817 68.8982 111.851 72.2763C111.93 72.4306 111.948 72.6095 111.9 72.7763C111.852 72.9431 111.742 73.0852 111.592 73.1736C111.515 73.2154 111.43 73.2415 111.342 73.2504C111.254 73.2593 111.166 73.2507 111.082 73.2252C110.997 73.1997 110.919 73.1577 110.851 73.1017C110.783 73.0458 110.726 72.9769 110.685 72.8991C110.364 72.5462 110.002 72.2331 109.607 71.9666C108.847 71.226 107.886 70.7261 106.843 70.5294C106.428 70.4823 106.007 70.5497 105.628 70.7245C105.248 70.8992 104.923 71.1746 104.689 71.5208C104.54 71.6676 104.409 71.8322 104.301 72.0109C104.215 72.1481 104.128 72.2616 104.041 72.4102C104.028 72.4873 103.999 72.5611 103.957 72.6271C103.915 72.6932 103.86 72.7503 103.796 72.7951C103.732 72.8399 103.659 72.8716 103.583 72.8883C103.506 72.9049 103.427 72.9063 103.35 72.8923C103.189 72.8646 103.045 72.7758 102.948 72.6443C102.851 72.5128 102.808 72.3489 102.829 72.1867Z" fill="#777980"/>
<path d="M106.197 56.771C106.015 57.5505 105.885 58.3415 105.809 59.1384C105.581 60.51 105.422 61.8922 105.334 63.2799C105.334 64.3814 105.221 65.7108 105.982 65.8231C106.662 65.915 107.08 64.4472 107.19 63.8131C107.469 62.7729 107.871 58.9603 108.053 57.5742C108.154 56.8175 108.33 54.9209 107.535 54.7768C106.859 54.6328 106.489 55.8068 106.197 56.771Z" fill="#777980"/>
<path d="M102.208 52.6363C102.487 52.2244 102.876 51.8995 103.331 51.6993C104.411 51.3692 104.848 53.174 105.749 52.8008C106.486 52.5081 105.976 51.0993 105.749 50.759C104.522 48.6037 101.263 49.7199 100.569 51.6948C100.396 52.161 100.167 53.4587 100.87 53.6345C101.293 53.7593 102.13 52.7497 102.208 52.6363Z" fill="#777980"/>
<path d="M113.003 52.2245C113.455 51.8779 113.992 51.66 114.557 51.5938C114.805 51.5834 115.053 51.6258 115.284 51.7183C115.514 51.8108 115.723 51.9513 115.895 52.1303C116.873 52.9459 116.888 53.242 117.407 53.0469C118.152 52.7679 117.703 51.4327 117.407 50.9279C117.09 50.4519 116.649 50.0716 116.131 49.8285C115.614 49.5853 115.039 49.4885 114.471 49.5486C113.416 49.5954 112.422 50.0588 111.708 50.8372C111.435 51.1593 110.785 52.4423 111.368 52.8439C111.778 53.0855 112.887 52.313 113.003 52.2245Z" fill="#777980"/>
<path d="M0.328419 85.2047C1.5985 89.9814 7.29118 92.5609 12.0086 93.9392C15.8642 95.0735 18.7695 93.997 19.1744 97.695C19.1788 97.7819 19.2004 97.8671 19.2378 97.9457C19.2751 98.0243 19.3276 98.0948 19.3922 98.1531C19.4568 98.2114 19.5323 98.2564 19.6143 98.2855C19.6963 98.3146 19.7832 98.3273 19.8701 98.3229C19.957 98.3184 20.0421 98.2968 20.1207 98.2594C20.1993 98.2221 20.2697 98.1696 20.328 98.1049C20.3863 98.0403 20.4313 97.9648 20.4604 97.8828C20.4895 97.8008 20.5022 97.7139 20.4977 97.6269C20.5659 96.9903 20.5038 96.3465 20.315 95.7347C20.1263 95.1229 19.815 94.556 19.4 94.0685C18.0132 92.5008 15.0784 92.7231 12.596 91.9892C8.36621 90.7335 3.66351 88.5226 1.4284 84.718C1.39673 84.6438 1.35059 84.5765 1.29267 84.5203C1.23475 84.464 1.16621 84.4199 1.09104 84.3904C1.01588 84.361 0.935604 84.3468 0.854899 84.3487C0.774193 84.3506 0.694677 84.3686 0.620991 84.4016C0.5474 84.4331 0.481048 84.4794 0.426024 84.5376C0.371 84.5957 0.328471 84.6646 0.301059 84.7398C0.273647 84.8151 0.261933 84.8951 0.266639 84.9751C0.271344 85.055 0.29237 85.1332 0.328419 85.2047Z" fill="#777980"/>
<path d="M6.61701 83.8843C8.35705 86.06 10.6882 87.6868 13.3303 88.5691C14.0969 88.7699 15.7389 89.0841 15.8807 88.3048C16.1619 87.2726 13.6489 86.9969 10.8128 85.0368C9.82703 84.3323 8.90871 83.5379 8.06967 82.6637C7.96988 82.5503 6.61588 81.0631 6.03641 81.4159C5.40817 81.8572 6.37887 83.5088 6.61701 83.8843Z" fill="#777980"/>
<path d="M13.9192 80.7364C15.3307 82.4955 17.1321 83.9018 19.181 84.8439C19.748 85.0458 21.2414 85.4553 21.5045 84.7565C21.6383 84.2858 21.5045 84.0929 20.0519 83.1253C19.2252 82.574 18.3418 82.0988 17.5673 81.4794C15.788 80.066 14.1653 77.9743 13.4032 78.5607C12.8192 79.0054 13.7344 80.4959 13.9192 80.7364Z" fill="#777980"/>
<path d="M22.2442 80.8431C23.7591 82.0604 25.5046 82.9586 27.3755 83.4838C27.794 83.5496 29.3124 83.7016 29.4417 82.9802C29.6832 82.0863 27.6794 81.6768 25.7301 80.6627C24.6845 80.1182 21.9539 78.1263 21.3075 79.0315C20.9457 79.5454 22.0332 80.6582 22.2442 80.8431Z" fill="#777980"/>
<path d="M31.0255 77.3719C31.5301 78.352 32.9215 80.1034 32.7685 80.5787C32.4283 82.0829 29.3132 83.9602 28.7337 86.2765C28.1792 88.4545 29.8246 90.0721 31.8964 90.9421C32.047 91.0315 32.2268 91.0578 32.3967 91.0153C32.5665 90.9728 32.7128 90.865 32.8036 90.7152C32.8889 90.5636 32.9129 90.3851 32.8708 90.2164C32.8286 90.0476 32.7234 89.9014 32.5768 89.8078C31.7637 89.1453 30.4154 87.7841 30.6728 86.77C31.0811 85.2193 34.2472 83.3034 34.7393 81.0358C35.2145 78.842 32.4611 77.1292 32.028 76.6516C31.9325 76.5186 31.7881 76.429 31.6266 76.4025C31.465 76.3761 31.2996 76.4148 31.1667 76.5104C31.0337 76.6059 30.9442 76.7503 30.9177 76.9119C30.8912 77.0734 30.93 77.2389 31.0255 77.3719Z" fill="#777980"/>
<path d="M36.6082 83.9943C37.4473 87.0763 37.385 86.4899 37.6413 87.4269C38.4963 90.5588 38.1425 92.5314 37.7048 95.5465C37.6038 96.243 37.5766 96.9509 37.4473 97.7018C37.3973 97.8688 37.4155 98.0488 37.4982 98.2023C37.5808 98.3558 37.721 98.4701 37.8879 98.5202C38.0548 98.5703 38.2348 98.552 38.3882 98.4694C38.5417 98.3867 38.656 98.2465 38.7061 98.0795C39.0348 97.3966 39.3255 96.696 39.577 95.981C40.8051 92.1129 40.4581 86.7928 37.673 83.4181C37.5921 83.2764 37.4593 83.1718 37.3026 83.1265C37.146 83.0812 36.9778 83.0987 36.8338 83.1753C36.6961 83.2547 36.5952 83.3852 36.553 83.5385C36.5107 83.6918 36.5306 83.8555 36.6082 83.9943Z" fill="#777980"/>
<path d="M174.686 92.6335C178.331 85.5234 188.14 88.0961 194.827 85.976C194.994 85.933 195.137 85.8268 195.227 85.68C195.316 85.5332 195.345 85.3572 195.308 85.1893C195.27 85.0214 195.168 84.8748 195.024 84.7805C194.881 84.6862 194.706 84.6516 194.537 84.684C189.378 85.3725 175.272 83.5961 173.558 92.2331C173.531 92.3075 173.52 92.3865 173.524 92.4653C173.529 92.5442 173.548 92.6215 173.582 92.6928C173.616 92.764 173.664 92.8279 173.723 92.8807C173.782 92.9334 173.85 92.9742 173.925 93.0004C173.999 93.0267 174.078 93.0381 174.157 93.0339C174.236 93.0297 174.313 93.01 174.384 92.9759C174.455 92.9418 174.519 92.894 174.572 92.8353C174.625 92.7765 174.665 92.708 174.692 92.6335H174.686Z" fill="#777980"/>
<path d="M189.216 89.8158C188.789 90.4307 188.239 90.9506 187.602 91.3426C186.164 92.224 183.633 92.3635 183.729 93.3958C183.793 94.1218 185.414 94.1195 185.762 94.1002C187.952 93.9675 190.437 92.1333 190.865 90.7584C191.127 90.164 191.354 88.8391 190.704 88.6304C190.193 88.4682 189.297 89.7023 189.216 89.8158Z" fill="#777980"/>
<path d="M197.056 90.5588C198.562 90.5781 200.057 90.2858 201.445 89.7002C202.834 89.1146 204.086 88.2483 205.124 87.1557C205.641 86.5295 206.662 85.0764 205.996 84.6057C205.493 84.2495 205.225 84.5648 203.769 85.7967C201.909 87.5045 199.513 88.5122 196.991 88.6474C195.011 88.9196 194.714 88.9502 194.666 89.4414C194.589 90.2434 196.467 90.5168 197.056 90.5588Z" fill="#777980"/>
<path d="M203.74 92.6823C205.436 92.2648 206.993 91.4112 208.258 90.206C208.414 90.0211 209.368 88.7983 208.871 88.3014C208.477 87.9112 207.964 88.188 207.128 88.7087C206.883 88.8549 206.646 89.0143 206.418 89.1862C205.401 89.8513 204.32 90.4126 203.191 90.8617C203.078 90.9104 201.743 91.5638 201.868 92.1854C202.048 92.7935 203.347 92.7356 203.74 92.6823Z" fill="#777980"/>
<path d="M205.581 96.0535C207.84 95.3779 209.865 94.0808 211.423 92.3102C211.825 91.7872 212.686 90.5508 212.103 90.0823C211.71 89.767 211.341 89.9042 210.07 90.9671C208.617 92.3834 206.893 93.4925 205.002 94.2284C203.575 94.9192 203.276 95.0598 203.325 95.5521C203.465 96.2895 205.064 96.1499 205.581 96.0535Z" fill="#777980"/>
<path d="M194.021 102.798C194.83 102.561 198.588 101.908 198.701 101.891C202.725 101.21 206.746 100.87 210.128 99.3012C212.462 98.3024 214.394 96.5494 215.615 94.3225C215.716 94.1769 215.754 93.9974 215.722 93.8234C215.69 93.6493 215.591 93.4951 215.445 93.3947C215.299 93.2942 215.12 93.2556 214.946 93.2876C214.772 93.3195 214.618 93.4192 214.517 93.5648C209.981 98.9325 203.775 98.7896 198.347 99.9444C196.673 100.263 195.06 100.847 193.57 101.674C193.494 101.702 193.424 101.745 193.365 101.8C193.305 101.855 193.258 101.922 193.225 101.996C193.192 102.07 193.174 102.15 193.172 102.231C193.17 102.312 193.185 102.393 193.215 102.468C193.28 102.618 193.4 102.736 193.551 102.798C193.702 102.859 193.871 102.86 194.021 102.798Z" fill="#777980"/>
<path d="M102.368 60.2104C102.565 60.2502 102.772 60.2285 102.978 60.1467C103.183 60.0649 103.383 59.9245 103.567 59.7336C103.75 59.5427 103.913 59.305 104.046 59.0341C104.179 58.7632 104.279 58.4644 104.342 58.1547C104.404 57.845 104.428 57.5305 104.41 57.2291C104.393 56.9278 104.335 56.6456 104.24 56.3985C104.145 56.1514 104.015 55.9443 103.858 55.7891C103.7 55.6339 103.518 55.5335 103.321 55.4938C103.124 55.4541 102.917 55.4757 102.712 55.5576C102.506 55.6394 102.306 55.7797 102.123 55.9706C101.939 56.1615 101.777 56.3992 101.644 56.6701C101.511 56.941 101.41 57.2399 101.347 57.5496C101.285 57.8593 101.262 58.1738 101.279 58.4751C101.297 58.7764 101.354 59.0587 101.449 59.3058C101.544 59.5529 101.674 59.7599 101.832 59.9151C101.989 60.0704 102.172 60.1707 102.368 60.2104Z" fill="#777980"/>
<path d="M113.755 60.0867C114.176 60.1699 114.629 60.0023 115.014 59.6208C115.399 59.2393 115.684 58.6752 115.807 58.0526C115.929 57.43 115.879 56.7999 115.668 56.3009C115.457 55.8018 115.102 55.4748 114.68 55.3917C114.472 55.3505 114.253 55.3705 114.037 55.4504C113.821 55.5304 113.612 55.6688 113.421 55.8577C113.231 56.0465 113.062 56.2822 112.927 56.5513C112.791 56.8204 112.689 57.1175 112.628 57.4258C112.568 57.7341 112.549 58.0475 112.572 58.348C112.596 58.6486 112.662 58.9305 112.767 59.1776C112.871 59.4247 113.012 59.6321 113.182 59.7881C113.352 59.9441 113.546 60.0456 113.755 60.0867Z" fill="#777980"/>
<path d="M128.56 58.8798C129.775 55.6605 129.731 52.912 127.313 50.4312C127.208 42.1323 119.162 37.7264 113.153 32.7081C110.318 30.2806 107.663 26.3988 104.26 24.8073C102.439 23.9543 100.282 23.69 98.9064 25.1681C98.232 25.9751 97.838 26.9795 97.7837 28.03C96.8462 27.0663 95.6694 26.3694 94.3738 26.0109C89.8242 24.8572 87.9792 28.3284 88.9771 33.0733C88.879 33.0199 88.7784 32.9714 88.6754 32.9281C86.4857 32.0286 85.2508 32.8782 84.9627 34.1498C84.5862 35.4214 85.3188 37.7094 85.8699 38.888C88.0461 43.5445 92.0117 47.6089 95.8423 51.0346C95.9947 51.1737 96.1861 51.2628 96.3906 51.2899C96.5952 51.317 96.8031 51.2809 96.9865 51.1862C97.1699 51.0916 97.3199 50.9431 97.4164 50.7607C97.5129 50.5782 97.5513 50.3706 97.5263 50.1657C97.3789 48.083 97.397 48.4869 97.397 48.1783C98.8798 48.9115 100.426 49.5083 102.017 49.9615C102.184 50.0084 102.36 50.0102 102.527 49.9668C102.695 49.9234 102.847 49.8362 102.97 49.7143C103.093 49.5924 103.181 49.44 103.226 49.2728C103.271 49.1056 103.27 48.9295 103.225 48.7625C103.034 47.9197 102.884 47.061 102.706 46.1921C104.652 47.0996 106.031 47.7722 108.189 48.598C108.367 48.6662 108.56 48.6809 108.745 48.6403C108.931 48.5998 109.1 48.5058 109.233 48.3699C109.366 48.2341 109.456 48.0623 109.492 47.8758C109.528 47.6894 109.509 47.4964 109.437 47.3208C109.264 46.799 109.097 46.2817 108.92 45.7565C112.633 46.9541 116.153 48.6838 119.371 50.8917C119.342 50.9439 119.313 50.9983 119.28 51.0539C118.751 52.2922 118.616 53.6632 118.892 54.981C119.186 56.8856 120.48 59.27 120.791 59.2984C122.667 59.5774 124.903 59.8871 125.928 61.0226C126.179 61.2679 126.357 61.5783 126.441 61.919C126.525 62.2598 126.512 62.6171 126.404 62.951C125.696 65.4057 122.275 65.3626 119.755 64.9724C119.508 64.9348 119.256 64.9909 119.048 65.1296C118.841 65.2683 118.692 65.4797 118.632 65.7222C117.312 70.0506 115.44 74.191 113.063 78.0412C110.864 81.763 111.379 78.0628 111.379 86.4422C111.372 86.5279 111.382 86.6141 111.409 86.6959C111.435 86.7776 111.478 86.8532 111.534 86.9182C111.591 86.9831 111.66 87.0361 111.737 87.0739C111.814 87.1118 111.898 87.1338 111.984 87.1387C112.071 87.1467 112.159 87.1365 112.242 87.1087C112.325 87.081 112.402 87.0362 112.466 86.9774C112.531 86.9185 112.583 86.8468 112.619 86.7668C112.655 86.6867 112.674 86.6002 112.674 86.5125C112.977 83.5269 113.063 81.9558 113.193 81.1947V81.1096C114.926 79.365 118.701 72.7154 120.359 67.1083C121.32 67.2223 122.289 67.2383 123.252 67.156C126.278 66.8429 127.848 65.29 128.303 63.4728C128.565 62.4768 128.53 60.4384 127.711 59.7373L127.81 59.3074C127.966 59.3429 128.129 59.3187 128.268 59.2396C128.407 59.1604 128.511 59.032 128.56 58.8798Z" fill="#777980"/>
<path d="M37.7207 24.5441C36.3891 16.737 41.5869 9.67645 48.2959 9.94082C49.3099 9.93741 50.3056 10.2107 51.1759 10.7313C52.0461 11.2519 52.7579 12.0001 53.2346 12.8953C53.7995 14.102 54.1044 15.4141 54.1293 16.7464C54.1542 18.0786 53.8987 19.4012 53.3793 20.6282C50.5772 29.0777 44.4043 34.4948 47.9726 44.8321C49.6243 48.879 51.832 52.6758 54.5319 56.1128C54.6611 56.3254 54.8309 56.5105 55.0317 56.6575C55.2324 56.8045 55.4601 56.9105 55.7018 56.9694C55.9435 57.0284 56.1944 57.0391 56.4403 57.0011C56.6861 56.963 56.9221 56.8769 57.1346 56.7477C57.3472 56.6184 57.5322 56.4485 57.6792 56.2477C57.8261 56.0469 57.9321 55.8191 57.991 55.5774C58.05 55.3356 58.0607 55.0846 58.0227 54.8387C57.9846 54.5928 57.8985 54.3568 57.7693 54.1441C55.3107 49.3972 51.5774 41.6828 52.848 36.4984C54.0796 31.464 58.4482 25.9693 59.6811 19.634C61.222 11.7127 56.6811 4.38719 48.4764 4.14544C45.7598 4.08414 43.0775 4.76095 40.715 6.10381C38.3525 7.44667 36.3983 9.4053 35.0605 11.7711C33.9903 13.8713 33.3764 16.1742 33.2589 18.5285C33.1414 20.8829 33.523 23.2354 34.3787 25.4318C34.4971 25.8748 34.7865 26.2526 35.1833 26.4821C35.5802 26.7116 36.0519 26.7741 36.4947 26.6557C36.9376 26.5373 37.3153 26.2478 37.5448 25.8508C37.7742 25.4539 37.8367 24.982 37.7183 24.539L37.7207 24.5441Z" fill="#777980"/>
<path d="M63.8446 59.7793C63.3166 59.3969 62.7088 59.1393 62.067 59.0258C61.4251 58.9122 60.7659 58.9457 60.1388 59.1238C59.5118 59.3019 58.9333 59.6199 58.4468 60.0539C57.9603 60.4879 57.5786 61.0266 57.3303 61.6294C57.0097 62.6798 57.0804 63.8108 57.5292 64.813C57.9781 65.8153 58.7746 66.621 59.7716 67.081C60.2963 67.3315 60.8699 67.4629 61.4513 67.466C62.0327 67.4691 62.6077 67.3437 63.135 67.0988C63.6624 66.854 64.1292 66.4956 64.5022 66.0494C64.8751 65.6032 65.145 65.0802 65.2925 64.5176C65.5128 63.6711 65.4942 62.7801 65.2386 61.9436C64.9829 61.1071 64.5004 60.3579 63.8446 59.7793Z" fill="#777980"/>
<path d="M159.753 63.0342C157.001 68.1644 156.759 68.2725 153.159 74.0219C153.051 74.2426 152.901 74.4397 152.716 74.6017C152.531 74.7637 152.316 74.8874 152.083 74.9657C151.85 75.044 151.604 75.0752 151.359 75.0576C151.114 75.04 150.875 74.974 150.655 74.8632C150.436 74.7525 150.241 74.5993 150.081 74.4126C149.921 74.2258 149.8 74.0092 149.725 73.7753C149.649 73.5414 149.621 73.2948 149.642 73.0499C149.662 72.805 149.731 72.5666 149.844 72.3485C151.567 67.733 153.525 63.209 155.711 58.7944C155.964 58.2756 156.373 57.8492 156.881 57.5755C157.389 57.3018 157.97 57.1945 158.542 57.2688C160.092 57.484 161.656 57.5885 163.221 57.5814C170.285 57.4221 174.498 51.2136 171.614 44.3251C169.11 38.3416 163.546 36.853 158.207 39.8114C157.477 40.1951 156.797 40.6656 156.181 41.2128C155.5 41.8088 154.871 42.4606 154.299 43.1615C154.059 43.5385 153.68 43.8064 153.245 43.908C152.81 44.0095 152.352 43.9366 151.97 43.7048C151.588 43.473 151.312 43.1008 151.201 42.6678C151.089 42.2348 151.152 41.7755 151.375 41.3882C152.356 39.2457 153.827 37.3639 155.669 35.895C163.457 29.7807 173.023 33.0183 176.902 42.1028C180.158 49.7314 178.152 59.7702 167.4 62.7098C164.896 63.3121 162.299 63.4223 159.753 63.0342Z" fill="#777980"/>
<path d="M151.505 79.5602C151.341 78.9399 151.038 78.365 150.619 77.8787C150.201 77.3923 149.677 77.0073 149.089 76.7524C148.5 76.4975 147.861 76.3795 147.22 76.4072C146.579 76.435 145.953 76.6077 145.388 76.9124C144.491 77.5136 143.841 78.4197 143.559 79.463C143.278 80.5063 143.383 81.6163 143.857 82.5878C144.101 83.1055 144.456 83.5629 144.897 83.9274C145.338 84.2918 145.854 84.5544 146.409 84.6963C146.963 84.8381 147.542 84.8558 148.104 84.7481C148.665 84.6403 149.197 84.4098 149.659 84.0729C150.355 83.5655 150.895 82.875 151.221 82.0781C151.547 81.2813 151.646 80.4097 151.505 79.5602Z" fill="#777980"/>
<path d="M196.119 106.104C196.173 105.885 196.151 105.655 196.057 105.451C195.964 105.246 195.804 105.079 195.603 104.977C186.976 100.483 178.118 96.445 169.068 92.8796C168.941 92.8286 168.806 92.8039 168.67 92.8068C168.534 92.8098 168.4 92.8405 168.276 92.8969C168.152 92.9534 168.041 93.0345 167.95 93.1352C167.859 93.236 167.789 93.3544 167.744 93.4831C166.778 96.286 166.508 97.2139 165.033 102.284C158.211 104.052 156.063 112.441 154.704 119.277C147.052 104.417 132.857 93.2936 117.102 87.7421C116.206 87.4325 117.399 87.5947 102.996 95.0156C102.12 92.2016 101.053 89.4508 99.8018 86.7825C99.7103 86.6072 99.5704 86.462 99.3986 86.3643C99.2269 86.2665 99.0306 86.2203 98.8333 86.2312C98.3162 86.2697 97.7999 86.3234 97.2843 86.3922C86.1291 87.9179 76.5661 90.3693 66.0721 96.5594C58.1507 101.296 51.1435 107.417 45.3834 114.63C44.3865 112.497 42.6233 110.817 40.4448 109.925C40.8984 107.569 41.2284 104.481 41.445 102.016C41.4565 101.863 41.4338 101.71 41.3785 101.567C41.3232 101.425 41.2368 101.296 41.1255 101.191C41.0142 101.086 40.8808 101.008 40.7352 100.961C40.5896 100.914 40.4353 100.9 40.2838 100.921C31.4386 102.21 23.174 101.197 14.559 99.106C14.423 99.0772 14.2827 99.0763 14.1463 99.1033C14.01 99.1303 13.8806 99.1846 13.7659 99.2631C13.6512 99.3416 13.5536 99.4425 13.479 99.5598C13.4044 99.6771 13.3544 99.8083 13.332 99.9454C13.1052 101.728 12.3318 107.271 12.198 108.275C5.97005 111.054 4.65575 118.055 4.19308 124.836C3.25186 139.304 7.67332 157.008 19.1698 165.867C31.0496 175.017 45.8188 166.321 57.9016 157.508L57.5795 167.672C57.5823 167.83 57.6465 167.982 57.7585 168.094C57.8706 168.207 58.0218 168.271 58.1805 168.275C58.3391 168.278 58.4928 168.219 58.6094 168.112C58.7259 168.004 58.7962 167.855 58.8054 167.697L59.2692 156.661C61.1016 155.173 62.7841 153.509 64.2928 151.693C64.42 151.573 64.4943 151.407 64.4991 151.232C64.504 151.057 64.4392 150.887 64.3189 150.76C64.1986 150.632 64.0327 150.558 63.8577 150.553C63.6826 150.548 63.5128 150.613 63.3856 150.734C63.2722 150.818 50.2029 164.214 35.8215 167.465C30.4304 168.682 25.0405 168.211 20.2312 164.459C9.38793 155.966 5.22502 138.559 6.20366 124.962C6.60396 118.736 7.67786 112.126 13.4975 109.9C13.6683 109.832 13.818 109.719 13.9314 109.574C14.0449 109.429 14.1182 109.257 14.1439 109.075C14.6293 104.62 14.7427 104.466 15.177 101.309C23.0524 103.348 31.2303 103.953 39.3199 103.096C39.1929 104.426 38.8028 107.666 38.3628 110.129C28.9562 111.83 25.8479 110.421 16.8553 110.317C16.6958 110.295 16.5342 110.338 16.4062 110.436C16.2782 110.533 16.1942 110.678 16.1727 110.837C16.1511 110.997 16.1939 111.159 16.2915 111.287C16.3891 111.415 16.5336 111.499 16.6932 111.52C17.8272 111.785 19.1222 112.136 20.7926 112.382C25.2707 113.027 31.8888 113.36 36.2535 112.402C37.1945 112.184 38.1169 111.893 39.0125 111.532C40.2453 111.963 41.365 112.667 42.2887 113.591C44.348 115.786 44.2369 118.637 44.4841 122.046C44.9097 127.054 44.7906 132.094 44.1292 137.076C43.967 138.361 43.8706 139.623 43.6756 140.859C43.6556 140.944 43.6525 141.032 43.6666 141.118C43.6806 141.204 43.7114 141.286 43.7573 141.36C43.8031 141.435 43.8631 141.499 43.9338 141.55C44.0046 141.601 44.0846 141.637 44.1694 141.657C44.2542 141.677 44.3421 141.68 44.4281 141.666C44.5141 141.652 44.5965 141.621 44.6706 141.575C44.7447 141.53 44.809 141.47 44.8599 141.399C44.9108 141.328 44.9472 141.248 44.9672 141.163C45.3803 139.919 45.7248 138.652 45.9991 137.37C47.1193 130.758 47.0371 123.999 45.7564 117.417C59.6729 99.5802 76.9414 90.7924 98.2879 88.3331C99.3776 90.5326 100.329 93.6646 101.242 96.1681C96.7653 97.6552 92.1995 98.8589 87.5716 99.7719C89.686 96.7844 91.6054 93.6633 93.3175 90.4283C93.3959 90.2877 93.416 90.122 93.3736 89.9668C93.3312 89.8115 93.2297 89.6791 93.0907 89.5979C92.9485 89.5196 92.7815 89.4995 92.6248 89.5418C92.4681 89.5841 92.3339 89.6855 92.2504 89.8248C90.8715 92.1706 87.008 97.3342 84.4723 100.695C84.3527 100.856 84.2851 101.05 84.2785 101.251C84.2718 101.451 84.3265 101.649 84.4352 101.818C84.5438 101.987 84.7013 102.118 84.8867 102.195C85.072 102.272 85.2764 102.29 85.4725 102.248C91.3466 101 97.1958 99.8933 102.806 97.7607C107.847 101.806 113.502 105.019 119.557 107.278C119.735 107.342 119.928 107.354 120.113 107.314C120.298 107.273 120.467 107.181 120.602 107.048C120.737 106.915 120.832 106.747 120.875 106.563C120.919 106.378 120.909 106.185 120.848 106.006C119.197 101.382 118.305 96.5215 118.205 91.6125C118.207 91.4391 118.14 91.272 118.019 91.1476C117.899 91.0232 117.734 90.9514 117.56 90.9478C117.384 90.9477 117.214 91.0163 117.087 91.1391C116.96 91.2618 116.886 91.4292 116.88 91.6057C116.639 95.9905 117.119 100.385 118.301 104.614C113.364 102.562 108.733 99.8378 104.54 96.5197C108.708 94.3645 112.834 92.2013 116.88 89.8271C132.814 95.5521 147.809 107.734 154.188 122.899C154.197 122.92 154.207 122.941 154.217 122.961C153.31 126.097 151.679 138.998 151.64 139.436C151.56 140.354 151.544 141.266 151.479 142.183C151.451 142.356 151.494 142.534 151.597 142.676C151.7 142.818 151.855 142.914 152.028 142.942C152.203 142.969 152.381 142.928 152.526 142.826C152.67 142.724 152.77 142.57 152.803 142.396C153.029 141.54 153.256 140.701 153.448 139.838C154.816 133.773 155.935 116.906 159.805 109.451C161.16 106.811 163.094 104.687 166.002 104.13C166.182 104.095 166.348 104.011 166.484 103.89C166.621 103.768 166.722 103.611 166.777 103.437C167.417 101.245 169.1 95.7234 169.294 95.1415C177.417 98.3732 186.041 102.245 193.986 106.372C193.351 108.773 192.956 110.58 192.049 113.536C192.014 113.672 192.007 113.814 192.029 113.953C192.052 114.092 192.102 114.225 192.179 114.344C195.557 119.646 193.415 125.983 191.533 131.926C187.615 144.545 181.361 161.451 169.746 167.786C164.485 170.67 158.933 172.817 153.802 172.041C146.229 170.899 143.709 164.668 139.61 158.202C139.535 158.044 139.399 157.922 139.234 157.863C139.069 157.804 138.887 157.813 138.729 157.889C138.571 157.964 138.449 158.099 138.39 158.264C138.331 158.429 138.34 158.611 138.416 158.769C139.628 161.764 141.329 164.538 143.447 166.978C143.584 169.876 143.542 171.897 143.473 174.74C143.472 174.913 143.539 175.079 143.659 175.203C143.778 175.327 143.942 175.4 144.114 175.405C144.287 175.411 144.455 175.349 144.582 175.232C144.71 175.116 144.787 174.954 144.797 174.782C144.873 171.658 144.893 173.202 144.893 168.76C152.032 176.39 161.384 174.17 170.553 169.258C182.743 162.724 189.234 145.611 193.406 132.515C195.422 126.017 197.546 119.583 194.086 113.672C194.344 112.745 195.734 107.72 196.119 106.104Z" fill="#D2D2D5"/>
</g>
<defs>
<clipPath id="clip0_1672_123872">
<rect width="216" height="180" fill="white"/>
</clipPath>
</defs>
</svg>
