<svg width="117" height="116" viewBox="0 0 117 116" fill="none" xmlns="http://www.w3.org/2000/svg">
<g clip-path="url(#clip0_1540_71697)">
<path d="M47.1981 27.2277C47.2919 27.2487 47.3914 27.2384 47.4908 27.1976C47.5903 27.1568 47.6878 27.0861 47.7777 26.9898C47.8677 26.8935 47.9482 26.7733 48.0147 26.6362C48.0813 26.4992 48.1325 26.348 48.1654 26.1913C48.1984 26.0346 48.2124 25.8755 48.2066 25.7233C48.2009 25.571 48.1755 25.4286 48.132 25.3042C48.0885 25.1798 48.0277 25.0758 47.953 24.9984C47.8784 24.9209 47.7915 24.8715 47.6973 24.8529C47.6035 24.8319 47.504 24.8422 47.4045 24.883C47.3051 24.9238 47.2075 24.9945 47.1176 25.0908C47.0277 25.1872 46.9472 25.3073 46.8806 25.4444C46.8141 25.5814 46.7629 25.7326 46.73 25.8893C46.697 26.046 46.683 26.2051 46.6888 26.3573C46.6945 26.5096 46.7198 26.652 46.7634 26.7764C46.8069 26.9008 46.8677 27.0048 46.9423 27.0822C47.0169 27.1597 47.1039 27.2091 47.1981 27.2277Z" fill="#BABABA"/>
<path d="M45.8252 32.6191L45.8176 32.6273C45.9321 32.802 46.0947 32.2555 46.194 32.1042C46.6778 31.3009 47.2498 30.554 47.8992 29.8776C47.9259 29.8313 47.9616 29.7909 48.0042 29.7587C48.0468 29.7266 48.0955 29.7034 48.1473 29.6905C48.1991 29.6776 48.253 29.6753 48.3057 29.6837C48.3584 29.6921 48.4089 29.711 48.4541 29.7394C48.4993 29.7678 48.5383 29.805 48.5688 29.8489C48.5993 29.8927 48.6207 29.9422 48.6315 29.9945C48.6424 30.0467 48.6427 30.1006 48.6322 30.153C48.6218 30.2053 48.6009 30.255 48.5708 30.2991C48.2401 31.1726 47.8195 32.0094 47.3158 32.796C47.0094 33.3229 46.6811 33.8295 46.0751 33.9251C45.4307 33.9418 44.8059 33.7026 44.3375 33.2596C44.0606 33.014 43.8287 32.7218 43.6524 32.3963C43.5817 32.3208 43.5438 32.2203 43.5471 32.1169C43.5504 32.0135 43.5947 31.9156 43.6701 31.8449C43.7456 31.7741 43.8461 31.7362 43.9495 31.7395C44.0529 31.7428 44.1508 31.7871 44.2216 31.8626L45.0384 32.2239C45.2846 32.3853 45.5486 32.5179 45.8252 32.6191ZM45.8252 32.6191H45.8583C45.8473 32.6206 45.8361 32.6206 45.8252 32.6191Z" fill="#BABABA"/>
<path d="M39.7031 34.2186C38.8538 32.9588 38.3979 31.4752 38.3931 29.9559C38.0073 29.6897 37.6403 29.3972 37.2947 29.0805C37.6241 28.5944 37.9072 28.0785 38.1402 27.5396C38.8351 24.6077 39.1189 21.5983 39.9297 18.6829C36.1098 16.0544 33.4688 10.871 35.3102 6.22363C19.6872 12.1416 15.99 25.8753 16.1127 25.9114C13.8 28.5837 11.3909 31.1889 9.01562 33.8046C9.88111 34.925 10.8154 35.9904 11.8132 36.9947C15.189 40.8487 19.5886 43.9199 24.0259 46.4529C25.4209 45.3486 26.6164 43.9952 27.9406 42.8089C31.4323 39.6813 35.3185 36.2849 39.5849 34.19L39.7031 34.2186Z" fill="#DCDCDC"/>
<path d="M97.7182 22.432C95.0639 20.3996 92.259 18.5717 89.3277 16.9642C86.9801 15.5476 84.4882 14.3853 81.8941 13.497C79.4801 10.0231 76.2711 7.176 72.5342 5.19267C68.7973 3.20934 64.6406 2.14718 60.4102 2.0946C57.4244 2.04642 54.3265 1.9034 51.4453 2.78034C53.1648 4.55002 54.1435 7.12363 55.1403 9.35098C62.1583 9.46313 65.726 17.531 64.1548 23.6033C65.638 26.3071 65.8043 29.851 62.5415 31.0953C65.854 31.443 69.0423 32.8341 72.1779 33.8804C79.4692 36.3087 86.7831 39.6862 92.9158 44.3991C96.7378 38.5162 99.4728 31.9953 100.991 25.1464C99.9703 24.16 98.8763 23.2526 97.7182 22.432Z" fill="#DCDCDC"/>
<path d="M8.54059 36.54C6.92001 39.1032 5.5243 41.8018 4.36907 44.6056C1.75722 51.2051 0.305456 58.2061 0.0778556 65.2998C-0.312118 76.1257 1.76649 85.4965 5.51566 94.8379C5.55622 94.9327 5.63207 95.0079 5.72713 95.0477C5.8222 95.0875 5.92902 95.0888 6.025 95.0512C6.12097 95.0136 6.19856 94.9402 6.24134 94.8465C6.28411 94.7527 6.28873 94.646 6.2542 94.5489C2.77742 85.2156 1.13132 75.3001 1.40587 65.3442C1.64966 58.4005 3.04405 51.5453 5.53222 45.058C6.5745 42.2681 7.8047 39.552 9.21438 36.9285C9.2666 36.8386 9.28098 36.7317 9.25436 36.6313C9.22775 36.5308 9.16232 36.4451 9.07247 36.3929C8.98262 36.3407 8.87571 36.3263 8.77526 36.3529C8.6748 36.3795 8.58904 36.4449 8.53682 36.5348L8.54059 36.54Z" fill="#BABABA"/>
<path d="M5.92454 88.98C6.34773 90.729 7.10129 92.381 8.14468 93.8472C8.54986 94.3829 9.00982 94.8748 9.51712 95.315C9.58712 95.3887 9.68271 95.4327 9.7842 95.4379C9.88568 95.4432 9.98531 95.4093 10.0626 95.3433C10.1398 95.2773 10.1887 95.1841 10.1993 95.083C10.2099 94.982 10.1813 94.8807 10.1194 94.8002C9.90107 94.4674 8.67619 92.2702 8.63553 92.1942C7.80213 90.6526 7.41593 89.5114 7.05456 88.8558C6.62017 88.073 6.45228 87.7831 6.12329 87.8878C5.73934 88.0112 5.85302 88.441 5.92454 88.98Z" fill="#BABABA"/>
<path d="M9.24813 87.4522C9.82034 89.2805 10.6759 91.0077 11.7837 92.5708C12.2079 93.1417 12.6758 93.6788 13.1833 94.1771C13.2145 94.2196 13.2538 94.2554 13.299 94.2825C13.3442 94.3096 13.3943 94.3274 13.4465 94.3349C13.4987 94.3424 13.5518 94.3394 13.6028 94.3262C13.6538 94.3129 13.7016 94.2896 13.7435 94.2577C13.7855 94.2257 13.8206 94.1858 13.8469 94.1401C13.8731 94.0944 13.8901 94.044 13.8966 93.9917C13.9032 93.9394 13.8993 93.8864 13.8851 93.8356C13.871 93.7849 13.8468 93.7374 13.8141 93.6961C13.443 93.0744 13.501 93.0864 12.3837 91.1248C11.0376 88.7665 10.8668 88.0672 10.342 87.2279C9.84439 86.433 9.69608 86.1831 9.36332 86.311C9.01475 86.445 9.11488 86.8056 9.24813 87.4522Z" fill="#BABABA"/>
<path d="M22.6605 47.7112C21.3349 49.5485 20.1385 51.4756 19.08 53.4786C16.6718 58.1974 14.8742 63.2034 13.7302 68.3761C12.019 76.2045 11.943 83.5098 14.3047 90.8272C14.319 90.8782 14.3434 90.9259 14.3764 90.9674C14.4095 91.0089 14.4506 91.0434 14.4972 91.0687C14.5438 91.094 14.595 91.1098 14.6478 91.115C14.7006 91.1202 14.7539 91.1147 14.8046 91.099C14.8552 91.0832 14.9022 91.0575 14.9428 91.0232C14.9833 90.989 15.0165 90.947 15.0405 90.8997C15.0646 90.8524 15.0788 90.8007 15.0825 90.7478C15.0862 90.6949 15.0792 90.6417 15.062 90.5916C13.5225 85.4075 13.0753 77.4367 15.0244 68.6598C16.1653 63.5993 17.9009 58.6915 20.1949 54.0387C20.9824 52.4007 22.3473 49.6849 23.3109 48.138C23.3396 48.0951 23.3595 48.047 23.3695 47.9965C23.3794 47.9459 23.3792 47.8938 23.369 47.8433C23.3587 47.7928 23.3385 47.7448 23.3095 47.7022C23.2805 47.6595 23.2434 47.6231 23.2003 47.5948C23.1571 47.5666 23.1088 47.5472 23.0581 47.5378C23.0074 47.5284 22.9554 47.5291 22.905 47.5399C22.8546 47.5508 22.8068 47.5715 22.7645 47.6009C22.7221 47.6303 22.686 47.6678 22.6582 47.7112H22.6605Z" fill="#BABABA"/>
<path d="M94.8165 48.0584C95.4654 49.3689 96.469 51.9974 96.9809 53.3817C98.571 57.5524 99.7103 61.8811 100.379 66.2941C101.348 72.6063 101.27 79.0349 100.149 85.3218C100.128 85.4237 100.147 85.5298 100.204 85.6173C100.26 85.7048 100.348 85.7667 100.45 85.7896C100.552 85.8125 100.658 85.7947 100.746 85.7398C100.835 85.685 100.898 85.5976 100.923 85.4964C102.486 79.1491 102.747 72.5509 101.69 66.0999C101.029 61.585 99.839 57.1636 98.1441 52.9271C97.3808 51.1284 96.5006 49.3815 95.5091 47.6978C95.4611 47.6062 95.3786 47.5374 95.2799 47.5065C95.1811 47.4757 95.0741 47.4853 94.9825 47.5333C94.8908 47.5813 94.822 47.6638 94.7912 47.7625C94.7603 47.8613 94.77 47.9682 94.818 48.0599L94.8165 48.0584Z" fill="#BABABA"/>
<path d="M104.612 80.2387C104.443 80.5556 104.183 81.3384 103.951 81.9391C103.703 82.5835 103.388 83.3249 103.198 83.9075C103.079 84.2688 102.994 84.6226 102.88 84.9824C102.856 85.0287 102.841 85.0793 102.837 85.1311C102.833 85.183 102.839 85.2352 102.855 85.2847C102.871 85.3342 102.897 85.3801 102.93 85.4198C102.964 85.4594 103.005 85.492 103.052 85.5158C103.098 85.5395 103.148 85.5538 103.2 85.558C103.252 85.5622 103.304 85.5562 103.354 85.5402C103.403 85.5242 103.449 85.4987 103.489 85.4649C103.529 85.4312 103.561 85.3901 103.585 85.3438C104.221 84.57 104.72 83.6936 105.062 82.7521C105.334 82.1074 105.557 81.4431 105.729 80.7649C105.754 80.6133 105.766 80.46 105.767 80.3064C105.778 79.7998 105.817 79.4506 105.479 79.3602C105.141 79.2699 104.948 79.6049 104.612 80.2387Z" fill="#BABABA"/>
<path d="M107.918 81.8201C107.657 82.2149 107.439 82.6363 107.268 83.0771C106.844 83.9794 106.36 84.8516 105.817 85.6876C105.725 85.8382 105.2 86.7294 104.959 87.0855C104.924 87.1233 104.896 87.1678 104.877 87.2165C104.859 87.2651 104.85 87.3169 104.852 87.3689C104.853 87.4209 104.865 87.4721 104.886 87.5196C104.908 87.567 104.938 87.6098 104.976 87.6455C105.014 87.6812 105.058 87.7091 105.107 87.7275C105.156 87.746 105.207 87.7547 105.26 87.7532C105.312 87.7517 105.363 87.7399 105.41 87.7186C105.458 87.6973 105.5 87.6668 105.536 87.6289C106.011 87.2735 106.444 86.8649 106.826 86.411C107.817 85.1668 108.529 83.7237 108.913 82.1799C108.975 81.6643 109.063 81.2691 108.703 81.1509C108.343 81.0327 108.206 81.3775 107.918 81.8201Z" fill="#BABABA"/>
<path d="M103.401 27.2436C111.711 35.5787 115.485 55.9756 115.061 67.7574C114.792 75.2599 113.04 83.0304 108.911 89.2691C108.882 89.3123 108.862 89.3608 108.852 89.4119C108.841 89.4629 108.841 89.5156 108.851 89.5667C108.861 89.6179 108.881 89.6666 108.909 89.7101C108.938 89.7535 108.975 89.7909 109.018 89.8201C109.062 89.8492 109.11 89.8696 109.161 89.88C109.212 89.8904 109.265 89.8907 109.316 89.8808C109.367 89.8708 109.416 89.8509 109.459 89.8222C109.503 89.7934 109.54 89.7564 109.569 89.7132C113.059 84.5511 115.254 78.6249 115.969 72.4356C117.145 63.4623 115.863 53.6745 113.517 44.9284C111.621 37.858 109.162 31.6577 103.946 26.6866C103.91 26.6486 103.867 26.6182 103.819 26.5973C103.771 26.5764 103.719 26.5654 103.666 26.565C103.614 26.5645 103.562 26.5747 103.514 26.5949C103.465 26.615 103.421 26.6447 103.385 26.6822C103.348 26.7197 103.319 26.7642 103.3 26.813C103.281 26.8618 103.272 26.914 103.274 26.9665C103.275 27.0189 103.287 27.0704 103.309 27.1181C103.331 27.1657 103.363 27.2084 103.401 27.2436H103.401Z" fill="#BABABA"/>
<path d="M18.961 24.744C19.3859 24.4937 19.7911 24.2113 20.173 23.8995C20.4328 23.6646 20.9824 23.097 20.7753 22.7643C20.5615 22.4188 19.6641 22.7568 19.5391 22.8118C19.0617 23.062 18.6184 23.3727 18.2202 23.7361C18.1637 23.8076 17.7685 24.4542 17.9567 24.7056C18.1449 24.9571 18.8887 24.7719 18.961 24.744Z" fill="#BABABA"/>
<path d="M76.5866 13.2294C76.8072 13.2904 77.9138 13.4018 78.1412 13.4251C78.7036 13.4838 80.265 13.657 80.3643 13.1022C80.4464 12.6453 79.2245 12.2968 79.0845 12.2599C78.2975 12.0883 77.4952 11.996 76.6897 11.9844C76.5775 11.9957 75.6847 12.1447 75.6568 12.5309C75.6312 12.8914 76.4925 13.2038 76.5866 13.2294Z" fill="#BABABA"/>
<path d="M63.2598 23.7369C63.838 18.8396 63.1197 14.5008 58.9934 11.8346C57.3274 10.7808 55.5431 10.4044 53.8311 9.67278C52.3255 4.99753 49.7658 0.965879 44.8512 0.932758C43.9464 0.881816 43.0426 1.04938 42.2162 1.42129C36.7092 4.21093 34.0983 12.0507 38.8909 16.546C42.1282 19.5705 47.9318 20.8306 52.3119 20.4602C52.3985 22.0944 53.0881 23.4223 54.6344 23.9191C55.9895 24.3541 57.7489 24.0282 59.144 23.7512C59.6543 23.658 60.1738 23.6254 60.6918 23.6541C61.7323 23.7181 63.5052 24.6327 63.3765 26.4121C63.3041 27.266 62.9305 28.0664 62.3225 28.6703C61.4033 29.5646 59.7289 29.8243 58.4491 29.8837C58.3194 29.891 58.195 29.9375 58.0924 30.0171C57.9898 30.0967 57.9139 30.2056 57.8747 30.3294C57.6244 31.3218 57.1595 32.2472 56.5128 33.0406C55.8661 33.8339 55.0532 34.4758 54.1315 34.9211C52.275 35.8093 49.4526 35.7491 49.0039 35.448C48.8641 35.3537 48.6937 35.3163 48.5273 35.3433C46.8921 35.6688 45.1996 35.554 43.6233 35.0106C41.4777 34.1615 40.5442 32.2692 40.2521 29.9906C40.6676 30.1058 41.0915 30.1878 41.48 30.2955C41.5766 30.3292 41.6826 30.3243 41.7756 30.2817C41.8687 30.2391 41.9418 30.1622 41.9795 30.0671C42.0172 29.9719 42.0167 29.8659 41.978 29.7711C41.9394 29.6764 41.8656 29.6002 41.7721 29.5586C41.1833 29.2492 40.4079 28.9105 39.9494 28.5958C40.6341 27.2279 41.4303 25.9188 42.3299 24.6816C42.4504 24.4957 42.5558 24.3052 42.6732 24.12C43.0903 23.4719 43.3154 23.3071 43.0767 23.0271C42.6838 22.5641 41.5771 23.6338 41.1864 24.0997C40.9296 24.4068 40.5201 24.9902 40.2972 25.3207C40.4409 23.747 40.7218 22.189 41.1367 20.6642C41.1528 20.6147 41.1589 20.5624 41.1545 20.5105C41.1501 20.4586 41.1354 20.4081 41.1111 20.3619C41.0869 20.3158 41.0537 20.275 41.0134 20.2419C40.9731 20.2089 40.9266 20.1842 40.8766 20.1694C40.8267 20.1546 40.7742 20.15 40.7224 20.1558C40.6707 20.1616 40.6206 20.1778 40.5751 20.2032C40.5297 20.2287 40.4898 20.2631 40.4578 20.3043C40.4259 20.3454 40.4025 20.3926 40.3891 20.4429C40.2295 20.945 40.0511 21.4358 39.899 21.9379C39.41 23.6671 39.0851 25.4386 38.9286 27.2288C38.8676 28.0501 38.9835 27.5518 38.5785 28.5251C38.5257 28.6478 38.5127 28.784 38.5415 28.9145C38.5703 29.0449 38.6393 29.1631 38.7389 29.2522C38.7938 29.2951 38.8503 29.3365 38.9075 29.3772C39.2568 35.238 43.0971 37.4834 48.5334 36.69C49.7997 37.1883 52.7493 37.052 54.7022 36.1111C55.7204 35.6244 56.6251 34.9295 57.358 34.0714C58.091 33.2134 58.6358 32.2112 58.9573 31.1295C60.5019 31.0922 61.9859 30.5214 63.1574 29.5141C64.6955 27.9266 65.0553 25.0873 63.2598 23.7369ZM48.0598 3.86542C48.0425 3.91362 48.0158 3.95792 47.9813 3.99581C47.9469 4.0337 47.9053 4.06443 47.8589 4.08624C47.8126 4.10805 47.7624 4.12051 47.7112 4.12292C47.66 4.12533 47.6089 4.11763 47.5607 4.10027C47.3567 4.07543 47.1715 4.07618 46.9772 4.06264C45.0635 3.93091 44.078 3.99263 42.4677 5.30013C41.9667 5.70004 41.4946 6.13469 41.0546 6.60086C41.0262 6.64647 40.9888 6.68583 40.9447 6.71655C40.9006 6.74728 40.8507 6.76872 40.7981 6.77959C40.7454 6.79045 40.6911 6.79051 40.6385 6.77975C40.5858 6.769 40.5359 6.74766 40.4917 6.71704C40.4476 6.68641 40.4101 6.64713 40.3816 6.60158C40.3531 6.55603 40.3341 6.50516 40.3258 6.45206C40.3176 6.39896 40.3202 6.34474 40.3335 6.29268C40.3469 6.24062 40.3706 6.19181 40.4034 6.14922C40.7245 5.50432 41.1379 4.90968 41.6305 4.38406C42.616 3.37493 43.9454 2.77399 45.3541 2.70094C46.2308 2.62511 47.1062 2.86131 47.8257 3.36786C47.9227 3.40287 48.0018 3.47493 48.0457 3.56822C48.0896 3.6615 48.0947 3.76839 48.0598 3.86542Z" fill="#BABABA"/>
<path d="M15.7463 94.3939C17.8645 99.7637 21.6263 104.327 26.4939 107.431C36.4314 113.988 53.9381 117.713 69.8578 113.545C78.9333 111.242 87.1517 106.37 93.5272 99.5132C96.7276 96.0627 99.4664 92.7296 101.452 88.5391C101.476 88.4919 101.491 88.4402 101.496 88.3871C101.5 88.334 101.493 88.2806 101.477 88.23C101.46 88.1795 101.433 88.1328 101.398 88.0928C101.362 88.0529 101.32 88.0204 101.271 87.9974C101.223 87.9744 101.171 87.9613 101.118 87.9589C101.065 87.9565 101.012 87.9648 100.962 87.9834C100.912 88.002 100.866 88.0305 100.827 88.0671C100.789 88.1037 100.758 88.1478 100.736 88.1966C98.8009 92.1733 95.7586 95.6487 92.7518 98.7808C86.4159 105.348 78.3749 110.021 69.531 112.274C51.0976 117.05 23.8047 111.677 16.472 94.1003C16.4305 94.0084 16.355 93.9361 16.2613 93.8986C16.1676 93.8612 16.0631 93.8615 15.9696 93.8995C15.8762 93.9375 15.8011 94.0102 15.7601 94.1024C15.7192 94.1946 15.7156 94.2991 15.75 94.3939H15.7463Z" fill="#BABABA"/>
<path d="M46.3709 49.1552C45.517 49.1467 44.682 49.1567 44.3614 49.1894L44.2903 52.398C42.6616 52.7265 41.2209 53.3377 40.0037 54.1831L36.6273 52.3752C35.6952 53.1879 34.9024 54.1338 34.264 55.1917L36.5316 58.3997C35.9851 59.6392 35.6616 61.0218 35.5891 62.5087L32.4141 62.9274C32.4742 64.3859 32.7271 65.9155 33.1903 67.4939L36.7888 69.1649C37.3174 70.5029 37.9984 71.7945 38.805 73.0178L37.296 75.4815C38.4526 77.0082 39.773 78.4278 41.2156 79.708L44.439 79.0106C45.4592 79.7872 46.5352 80.4833 47.6492 81.0845L48.5519 84.4927C50.3147 85.2897 52.1366 85.8862 53.9733 86.2475L55.2866 83.5302C55.5618 83.5591 56.2476 83.5785 56.9102 83.5852C57.5235 83.5913 58.1164 83.5856 58.3466 83.5662L61.3166 86.3329C62.9473 86.0128 64.4207 85.4552 65.7127 84.6947L64.5827 81.36C63.2854 81.874 61.8021 82.1461 60.1643 82.13C52.5586 82.0556 44.5091 75.7887 42.1856 68.1326C39.8621 60.4765 44.1445 54.3301 51.7502 54.4046C55.3041 54.4396 58.9547 55.8261 62.073 58.0754L62.3482 55.5027C61.0656 54.4254 59.6959 53.4567 58.2661 52.618L55.962 54.3619C54.2215 53.4823 52.3981 52.8337 50.5576 52.4672L48.5429 49.2354C48.1763 49.1922 47.2632 49.1638 46.3709 49.1552Z" fill="#C7C7C7"/>
<path d="M61.955 61.2502L60.6443 63.9368C59.7801 63.7998 58.9357 63.7284 58.1158 63.7207C57.1692 63.7115 56.2564 63.7858 55.386 63.9402L52.4875 61.229C51.184 61.5883 49.9769 62.1088 48.8906 62.7773L49.8449 65.6153C51.2977 64.9612 52.9721 64.6222 54.7886 64.6395C56.3922 64.6554 58.1071 64.9501 59.875 65.5526C67.9412 68.3037 74.0747 76.4324 73.5738 83.7078C73.1826 89.3891 68.8631 92.8705 63.1477 92.8145C61.5436 92.7986 59.8287 92.5039 58.0604 91.901C56.3238 91.3092 54.6764 90.4671 53.1663 89.4387L52.8218 92.5642C54.3912 93.853 56.1013 94.9942 57.9168 95.9414L60.3625 94.1043C60.8822 94.3266 63.0586 95.0665 63.6063 95.2045L65.7017 98.5822C66.7513 98.7515 67.7769 98.8388 68.7711 98.8489C69.5385 98.8561 70.2871 98.8175 71.014 98.7341L71.0963 95.4461C72.1257 95.2209 73.0906 94.8818 73.976 94.4356L77.582 96.3765C78.7863 95.5522 79.8253 94.534 80.6621 93.3407L78.4241 90.1603C78.9669 89.16 79.3591 88.04 79.5763 86.8134L82.9723 86.3755C83.0586 84.8702 82.9348 83.3378 82.6226 81.8093L79.1399 80.1834C78.6803 78.5744 77.9809 76.9846 77.0811 75.4634L78.6664 72.8955C77.7155 71.5334 76.6297 70.233 75.4298 69.0214L72.3054 69.688C70.7938 68.3365 69.105 67.1505 67.2889 66.1955L66.3881 62.757C65.6733 62.4421 62.6959 61.4282 61.955 61.2502Z" fill="#C7C7C7"/>
<path d="M74.3092 56.6124C76.5549 56.65 78.0064 57.5156 78.5251 60.3956C78.6674 61.1867 79.4142 61.2455 79.5038 60.2737C79.7056 58.0388 80.417 56.4129 83.1461 56.2262C84.0005 56.1682 84.6111 55.2815 82.9654 55.2793C79.4451 55.274 79.3517 51.8129 79.0205 49.5923C78.9452 49.1038 78.2533 48.8449 78.2345 49.7828C78.1795 52.4776 77.5803 55.7429 74.4213 55.7429C73.5473 55.7429 73.4253 56.5973 74.3092 56.6124ZM78.7509 52.9608C79.1364 54.5371 79.9472 55.1332 81.3678 55.7286C80.7372 55.9771 80.1812 56.3838 79.7536 56.9096C79.3259 57.4355 79.041 58.0626 78.9264 58.7306C78.683 58.1308 78.3119 57.5912 77.8389 57.1492C77.366 56.7073 76.8024 56.3735 76.1875 56.1713C76.8053 55.8349 77.3489 55.3776 77.786 54.8265C78.2231 54.2754 78.5446 53.6419 78.7314 52.9638L78.7509 52.9608Z" fill="#BABABA"/>
<path d="M36.4233 99.5738C36.4986 100.037 37.2515 100.552 37.3411 99.5738C37.5104 97.6505 37.9366 95.8161 40.622 95.5752C41.3251 95.5128 41.7941 94.9497 40.71 94.8579C38.191 94.6449 37.865 92.4604 37.3975 89.7905C37.2951 89.2048 36.5656 89.4826 36.5378 89.9275C36.3932 92.2504 35.8835 94.3949 33.3201 94.6185C31.9725 94.7359 32.2601 95.381 33.3201 95.5173C35.8798 95.844 36.1184 97.7529 36.4233 99.5738ZM36.9338 92.3678C37.0191 92.9904 37.2654 93.58 37.6483 94.0783C38.0311 94.5766 38.5374 94.9665 39.117 95.2094C38.6053 95.4057 38.1382 95.7025 37.7431 96.0824C37.3481 96.4622 37.0332 96.9174 36.8171 97.4209C36.7566 96.8928 36.5545 96.3908 36.2323 95.968C35.91 95.5452 35.4794 95.2173 34.9862 95.019C35.4711 94.7291 35.8932 94.3453 36.2277 93.89C36.5621 93.4347 36.8022 92.9172 36.9338 92.3678Z" fill="#BABABA"/>
</g>
<defs>
<clipPath id="clip0_1540_71697">
<rect width="117" height="116" fill="white"/>
</clipPath>
</defs>
</svg>
